<svg xmlns="http://www.w3.org/2000/svg" fill="none" viewBox="1.94 9.86 65.11 49.29">
<path d="M64.4818 28.8441L66.2885 20.857L56.3377 25.5178L60.2952 30.6806L46.6332 36.6774L38.5776 30.3545L42.343 23.9543L34.5005 10.6235L26.657 23.9543L30.4223 30.3545L22.3667 36.6764L8.70523 30.6806L12.6622 25.5178L2.71143 20.857L4.5182 28.8441L4.51003 28.84L6.29329 36.7219L10.4568 58.3766H58.5426L62.7031 36.7382L64.4899 28.84L64.4818 28.8441Z" fill="#FFF80D"/>
<path d="M65.3633 24.9476L58.4005 28.209L60.2952 30.6808V34.3388L46.6332 40.3351L38.5775 34.0122V30.3547L41.2665 25.7833L34.5004 14.2812L27.7333 25.7833L30.4222 30.3547V34.0122L22.3666 40.3341L8.70514 34.3388V30.6808L10.5993 28.209L3.63696 24.9476L4.51812 28.8443L4.50994 28.8402L6.29321 36.7221L10.4567 58.3768H58.5426L62.703 36.7384L64.4899 28.8402L64.4817 28.8443L65.3633 24.9476Z" fill="#FFBA01"/>
<path d="M58.5426 59.1434H10.4568C10.0893 59.1434 9.77342 58.8822 9.70391 58.5214L5.54091 36.8666L3.76225 29.0093C3.75458 28.9756 3.74947 28.9413 3.7464 28.9076L1.96365 21.0262C1.89873 20.7405 2.00249 20.4431 2.23045 20.2596C2.45789 20.0761 2.7712 20.0378 3.03647 20.1625L12.9878 24.8233C13.1979 24.9219 13.3522 25.1105 13.4069 25.3359C13.4621 25.5613 13.412 25.7995 13.2704 25.984L9.90785 30.3714L22.2537 35.7897L29.421 30.1649L25.9956 24.3428C25.8545 24.1026 25.8545 23.8052 25.9956 23.5654L33.8391 10.2346C33.9771 10.0006 34.2286 9.85693 34.5 9.85693C34.7714 9.85693 35.0228 10.0006 35.1608 10.2346L43.0033 23.5654C43.1444 23.8057 43.1444 24.1031 43.0033 24.3428L39.5778 30.1649L46.7452 35.7907L59.0916 30.3714L55.7284 25.984C55.5874 25.8 55.5368 25.5613 55.592 25.3359C55.6467 25.1105 55.801 24.9219 56.0111 24.8233L65.9624 20.1625C66.2282 20.0383 66.541 20.0766 66.7684 20.2596C66.9964 20.4431 67.1002 20.7405 67.0352 21.0262L65.2535 28.9086C65.2504 28.9423 65.2448 28.9761 65.2377 29.0093L63.4508 36.9075L59.2955 58.5214C59.226 58.8822 58.9101 59.1434 58.5426 59.1434ZM11.09 57.61H57.9094L61.9502 36.5937L63.7181 28.7757C63.7212 28.742 63.7268 28.7088 63.734 28.675L65.1947 22.2156L57.5255 25.8077L60.9029 30.2145C61.046 30.4016 61.0956 30.6438 61.0374 30.8718C60.9786 31.0997 60.8181 31.2883 60.6024 31.3829L46.9414 37.3792C46.6828 37.4922 46.3823 37.4549 46.1604 37.2806L38.1043 30.9576C37.8022 30.7205 37.722 30.2968 37.9167 29.9656L41.4536 23.9544L34.5005 12.1355L27.5468 23.9544L31.0837 29.9656C31.2784 30.2963 31.1982 30.7205 30.8961 30.9576L22.84 37.2796C22.6176 37.4544 22.3176 37.4917 22.059 37.3787L8.39751 31.3829C8.18182 31.2883 8.02185 31.0997 7.96256 30.8718C7.90429 30.6438 7.95336 30.4016 8.09698 30.2145L11.4739 25.8077L3.80467 22.2156L5.26542 28.675C5.27309 28.7088 5.2782 28.743 5.28127 28.7767L7.04051 36.5528L11.09 57.61Z" fill="#FFBA01"/>
<path d="M34.4999 54.2429C38.9415 54.2429 42.5422 50.6422 42.5422 46.2005C42.5422 41.7589 38.9415 38.1582 34.4999 38.1582C30.0582 38.1582 26.4575 41.7589 26.4575 46.2005C26.4575 50.6422 30.0582 54.2429 34.4999 54.2429Z" fill="#FFAF10"/>
<path d="M42.5422 46.2005C42.5422 49.6035 38.9409 52.3614 34.4993 52.3614C30.0583 52.3614 26.4575 49.6035 26.4575 46.2005C26.4575 42.8011 30.0583 40.0396 34.4993 40.0396C38.9409 40.0396 42.5422 42.8006 42.5422 46.2005Z" fill="#ED5564"/>
<path d="M26.4575 46.2007C26.4575 50.6427 30.0583 54.244 34.4993 54.244C38.9409 54.244 42.5422 50.6427 42.5422 46.2007H26.4575Z" fill="#FFF9DE"/>
<path d="M34.4993 52.3611C38.9409 52.3611 42.5422 49.6032 42.5422 46.2002H26.4575C26.4575 49.6037 30.0583 52.3611 34.4993 52.3611Z" fill="#FFF3C2"/>
<path d="M34.4994 55.0106C29.6423 55.0106 25.6909 51.0587 25.6909 46.2006C25.6909 41.343 29.6423 37.3916 34.4994 37.3916C39.357 37.3916 43.3089 41.343 43.3089 46.2006C43.3089 51.0582 39.357 55.0106 34.4994 55.0106ZM34.4994 38.9244C30.4877 38.9244 27.2243 42.1884 27.2243 46.2001C27.2243 50.2128 30.4882 53.4768 34.4994 53.4768C38.5116 53.4768 41.7756 50.2123 41.7756 46.2001C41.7756 42.1884 38.5116 38.9244 34.4994 38.9244Z" fill="#33363A"/>
<path d="M42.5423 46.9674H26.4576C26.0344 46.9674 25.6909 46.6239 25.6909 46.2007C25.6909 45.7775 26.0344 45.4341 26.4576 45.4341H42.5428C42.966 45.4341 43.3094 45.7775 43.3094 46.2007C43.3094 46.6239 42.9655 46.9674 42.5423 46.9674Z" fill="#33363A"/>
<path d="M34.4999 49.781C35.9683 49.781 37.1587 48.5906 37.1587 47.1222C37.1587 45.6538 35.9683 44.4634 34.4999 44.4634C33.0314 44.4634 31.8411 45.6538 31.8411 47.1222C31.8411 48.5906 33.0314 49.781 34.4999 49.781Z" fill="#A7BBC1"/>
<path d="M34.4999 48.8762C35.9683 48.8762 37.1587 47.6858 37.1587 46.2174C37.1587 44.749 35.9683 43.5586 34.4999 43.5586C33.0314 43.5586 31.8411 44.749 31.8411 46.2174C31.8411 47.6858 33.0314 48.8762 34.4999 48.8762Z" fill="white"/>
<path d="M32.6191 48.0979C31.5811 47.0608 31.5811 45.3757 32.6191 44.3381C33.6577 43.3001 35.3418 43.3001 36.3799 44.3381" fill="#D8E5EA"/>
<path d="M34.5 49.6439C33.5846 49.6439 32.7238 49.2872 32.0773 48.6396C31.4302 47.993 31.074 47.1333 31.074 46.2179C31.074 45.3025 31.4302 44.4418 32.0773 43.7958C32.7249 43.1487 33.5846 42.7925 34.5 42.7925C35.4148 42.7925 36.2756 43.1487 36.9221 43.7958C37.5697 44.4423 37.9259 45.3025 37.9259 46.2185C37.9259 47.1339 37.5692 47.9941 36.9216 48.6401C36.2756 49.2872 35.4154 49.6439 34.5 49.6439ZM34.5 44.3258C33.9945 44.3258 33.5186 44.5226 33.1614 44.8799C32.8041 45.2371 32.6073 45.7125 32.6073 46.2179C32.6073 46.7234 32.8041 47.1988 33.1614 47.555C33.8769 48.2716 35.124 48.2711 35.8375 47.5555C36.1953 47.1983 36.3926 46.7234 36.3926 46.2179C36.3926 45.7125 36.1958 45.2371 35.838 44.8804C35.4808 44.5221 35.0054 44.3258 34.5 44.3258Z" fill="#33363A"/>
<path d="M34.5001 58.5263C34.0769 58.5263 33.7334 58.1829 33.7334 57.7597V54.2437C33.7334 53.8205 34.0769 53.4771 34.5001 53.4771C34.9233 53.4771 35.2667 53.8205 35.2667 54.2437V57.7597C35.2667 58.1829 34.9233 58.5263 34.5001 58.5263Z" fill="#33363A"/>
<path d="M24.3114 55.0104H23.1072C22.684 55.0104 22.3406 54.6669 22.3406 54.2437C22.3406 53.8205 22.684 53.4771 23.1072 53.4771H24.3114C24.7346 53.4771 25.0781 53.8205 25.0781 54.2437C25.0781 54.6669 24.7351 55.0104 24.3114 55.0104Z" fill="#33363A"/>
<path d="M20.5942 55.0104H19.3895C18.9663 55.0104 18.6228 54.6669 18.6228 54.2437C18.6228 53.8205 18.9663 53.4771 19.3895 53.4771H20.5942C21.0174 53.4771 21.3608 53.8205 21.3608 54.2437C21.3608 54.6669 21.0174 55.0104 20.5942 55.0104Z" fill="#33363A"/>
<path d="M16.8763 55.0104H9.98444C9.56124 55.0104 9.21777 54.6669 9.21777 54.2437C9.21777 53.8205 9.56124 53.4771 9.98444 53.4771H16.8758C17.299 53.4771 17.6424 53.8205 17.6424 54.2437C17.6424 54.6669 17.2995 55.0104 16.8763 55.0104Z" fill="#33363A"/>
<path d="M26.5572 55.0109C26.3573 55.0109 26.1585 54.9292 26.0149 54.786C25.8723 54.6434 25.7905 54.4436 25.7905 54.2443C25.7905 54.0398 25.8723 53.8456 26.0149 53.702C26.3016 53.4157 26.8128 53.4157 27.0985 53.702C27.2416 53.8451 27.3233 54.0449 27.3233 54.2443C27.3233 54.4436 27.2416 54.6429 27.0985 54.786C26.9559 54.9292 26.7611 55.0109 26.5572 55.0109Z" fill="#33363A"/>
<path d="M45.893 55.0104H44.6888C44.2656 55.0104 43.9221 54.6669 43.9221 54.2437C43.9221 53.8205 44.2656 53.4771 44.6888 53.4771H45.893C46.3162 53.4771 46.6596 53.8205 46.6596 54.2437C46.6596 54.6669 46.3162 55.0104 45.893 55.0104Z" fill="#33363A"/>
<path d="M49.6103 55.0104H48.4056C47.9824 55.0104 47.6389 54.6669 47.6389 54.2437C47.6389 53.8205 47.9824 53.4771 48.4056 53.4771H49.6103C50.0335 53.4771 50.3769 53.8205 50.3769 54.2437C50.3769 54.6669 50.034 55.0104 49.6103 55.0104Z" fill="#33363A"/>
<path d="M59.0152 55.0104H52.1238C51.7006 55.0104 51.3572 54.6669 51.3572 54.2437C51.3572 53.8205 51.7006 53.4771 52.1238 53.4771H59.0152C59.4384 53.4771 59.7818 53.8205 59.7818 54.2437C59.7818 54.6669 59.4384 55.0104 59.0152 55.0104Z" fill="#33363A"/>
<path d="M42.4424 55.0109C42.2426 55.0109 42.0438 54.9292 41.9002 54.786C41.7576 54.6434 41.6758 54.4436 41.6758 54.2443C41.6758 54.0398 41.7576 53.8456 41.9002 53.702C42.1869 53.4157 42.698 53.4157 42.9837 53.702C43.1268 53.8451 43.2086 54.0449 43.2086 54.2443C43.2086 54.4436 43.1268 54.6429 42.9837 54.786C42.8406 54.9292 42.6418 55.0109 42.4424 55.0109Z" fill="#33363A"/>
</svg>