<svg xmlns="http://www.w3.org/2000/svg" fill="none" viewBox="0 8 63.29 51.95">
<path d="M56.5415 15.642C59.6741 19.9459 60.3307 25.8141 57.7217 30.8674C55.1137 35.9217 49.9512 38.7848 44.6264 38.7248C41.4938 34.4199 40.8372 28.5537 43.4467 23.4994C46.0553 18.4456 51.2167 15.582 56.5415 15.642Z" fill="#4F4B48"/>
<path d="M44.6264 38.7248C41.4938 34.4199 40.8372 28.5537 43.4467 23.4994C46.0553 18.4451 51.2167 15.582 56.5415 15.642" fill="#33363A"/>
<path d="M44.7906 39.4701L44.6179 39.4691C44.3827 39.4661 44.1628 39.353 44.0243 39.1629C40.5954 34.4516 40.121 28.3183 42.7851 23.1578C45.415 18.0624 50.6231 14.8965 56.3772 14.8965L56.5499 14.8975C56.7851 14.9005 57.005 15.0136 57.1434 15.2037C60.5723 19.915 61.0473 26.0483 58.3832 31.2088C55.7538 36.3042 50.5452 39.4701 44.7906 39.4701ZM56.1573 16.3874C51.0504 16.4668 46.4487 19.3076 44.1087 23.8407C41.7617 28.3868 42.1146 33.7696 45.011 37.9792C50.1184 37.8998 54.7205 35.059 57.0601 30.5258C59.407 25.9803 59.0537 20.5979 56.1573 16.3874Z" fill="#33363A"/>
<path d="M54.2508 21.0294C56.179 23.6776 56.5829 27.2892 54.9769 30.4C53.3719 33.5108 50.1941 35.2736 46.9171 35.2359C44.989 32.5867 44.5855 28.9761 46.191 25.8653C47.796 22.754 50.9733 20.9917 54.2508 21.0294Z" fill="#EFA3CC"/>
<path d="M47.0199 35.981L46.9077 35.9805C46.6725 35.9776 46.4526 35.8644 46.3146 35.6743C44.1404 32.6866 43.8396 28.7976 45.529 25.5241C47.196 22.2922 50.4989 20.2847 54.1472 20.2847L54.2593 20.2852C54.4946 20.2881 54.7139 20.4013 54.8524 20.5914C57.0272 23.5791 57.3279 27.4681 55.6381 30.7416C53.9705 33.9735 50.6681 35.981 47.0199 35.981ZM53.8643 21.7785C50.8885 21.8788 48.2199 23.5563 46.8521 26.207C45.4799 28.8646 45.66 32.0037 47.3028 34.4877C50.2781 34.3874 52.9466 32.7099 54.3149 30.0592C55.6877 27.4006 55.5085 24.2625 53.8643 21.7785Z" fill="#33363A"/>
<path d="M6.74611 15.642C3.61349 19.9459 2.9564 25.8141 5.56592 30.8674C8.17396 35.9217 13.3364 38.7848 18.6607 38.7248C21.7933 34.4199 22.4499 28.5537 19.8414 23.4994C17.2329 18.4451 12.0709 15.582 6.74611 15.642Z" fill="#4F4B48"/>
<path d="M18.6607 38.7248C21.7933 34.4199 22.4499 28.5537 19.8414 23.4994C17.2328 18.4451 12.0709 15.582 6.74609 15.642" fill="#33363A"/>
<path d="M18.4965 39.4696C12.7419 39.4696 7.53378 36.3037 4.9044 31.2083C2.23978 26.0483 2.71474 19.9155 6.14415 15.2037C6.28262 15.0136 6.50297 14.9005 6.73772 14.8975L6.91043 14.8965C12.6645 14.8965 17.8731 18.0624 20.503 23.1578C23.1666 28.3183 22.6912 34.4511 19.2628 39.1624C19.1243 39.3525 18.9039 39.4656 18.6692 39.4686L18.4965 39.4696ZM7.13029 16.3869C4.23341 20.5969 3.88004 25.9798 6.22753 30.5249C8.56707 35.0585 13.1687 37.8988 18.2761 37.9787C21.1725 33.7691 21.5259 28.3863 19.1794 23.8402C16.8398 19.3071 12.2372 16.4668 7.13029 16.3869Z" fill="#33363A"/>
<path d="M9.03676 21.0294C7.10865 23.6776 6.70467 27.2892 8.31019 30.4C9.91521 33.5108 13.093 35.2736 16.37 35.2359C18.2981 32.5867 18.7021 28.9761 17.0966 25.8653C15.4911 22.754 12.3143 20.9917 9.03676 21.0294Z" fill="#EFA3CC"/>
<path d="M16.2672 35.981C12.6189 35.981 9.31659 33.973 7.64903 30.7411C5.95914 27.4676 6.26039 23.5781 8.43517 20.5914C8.57363 20.4013 8.79349 20.2881 9.02824 20.2852L9.1404 20.2847C12.7887 20.2847 16.091 22.2922 17.7586 25.5246C19.448 28.7976 19.1467 32.6866 16.9725 35.6743C16.8345 35.8644 16.6141 35.9776 16.3794 35.9805L16.2672 35.981ZM9.42329 21.7785C7.77956 24.2625 7.5999 27.4006 8.97216 30.0587C10.34 32.7099 13.0085 34.3874 15.9843 34.4877C17.6276 32.0032 17.8072 28.8651 16.4355 26.2075C15.0677 23.5563 12.3986 21.8788 9.42329 21.7785Z" fill="#33363A"/>
<path d="M56.0659 40.6192C56.0659 50.8807 45.1315 59.2011 31.6437 59.2011C18.1553 59.2011 7.22144 50.8802 7.22144 40.6192C7.22144 30.3558 18.1553 18.0581 31.6437 18.0581C45.1315 18.0581 56.0659 30.3558 56.0659 40.6192Z" fill="#FBFCF2"/>
<path d="M56.0659 40.6188C56.0659 50.8802 45.1315 59.2006 31.6437 59.2006C18.1553 59.2006 7.22144 50.8797 7.22144 40.6188C7.22144 30.3554 18.1553 23.2842 31.6437 23.2842C45.1315 23.2842 56.0659 30.3554 56.0659 40.6188Z" fill="#EAE4C5"/>
<path d="M56.0659 40.6189C56.0659 50.8803 45.1315 59.2007 31.6437 59.2007C18.1553 59.2007 7.22144 50.8798 7.22144 40.6189C7.22144 30.3545 10.3292 49.721 31.6437 49.721C52.9586 49.7205 56.0659 30.3545 56.0659 40.6189Z" fill="#DDD2B1"/>
<path d="M31.6437 59.9453C17.7668 59.9453 6.47705 51.2755 6.47705 40.6191C6.47705 30.0628 17.7028 17.3135 31.6437 17.3135C38.1159 17.3135 44.4343 20.0292 49.4355 24.9594C54.0535 29.5124 56.8104 35.3668 56.8104 40.6191C56.8104 51.2755 45.5207 59.9453 31.6437 59.9453ZM31.6437 18.8024C18.5276 18.8024 7.96594 30.7373 7.96594 40.6191C7.96594 50.4547 18.5877 58.4564 31.6437 58.4564C44.6998 58.4564 55.3215 50.4547 55.3215 40.6191C55.3215 30.7368 44.7599 18.8024 31.6437 18.8024Z" fill="#33363A"/>
<path d="M23.6225 39.5479C23.6225 41.756 21.8333 43.5436 19.6258 43.5436C17.4198 43.5436 15.6301 41.756 15.6301 39.5479C15.6301 37.3409 17.4193 35.5522 19.6258 35.5522C21.8328 35.5527 23.6225 37.3409 23.6225 39.5479Z" fill="#A35616"/>
<path d="M23.6225 39.5479C23.6225 41.756 21.8333 40.3738 19.6258 40.3738C17.4198 40.3738 15.6301 41.756 15.6301 39.5479C15.6301 37.3409 17.4193 35.5522 19.6258 35.5522C21.8328 35.5527 23.6225 37.3409 23.6225 39.5479Z" fill="#33363A"/>
<path d="M19.6259 44.2879C17.0119 44.2879 14.8857 42.1617 14.8857 39.5477C14.8857 36.9338 17.0119 34.8076 19.6259 34.8076C22.2404 34.8076 24.367 36.9338 24.367 39.5477C24.367 42.1617 22.2404 44.2879 19.6259 44.2879ZM19.6259 36.297C17.8332 36.297 16.3746 37.7551 16.3746 39.5482C16.3746 41.3414 17.8327 42.7995 19.6259 42.7995C21.419 42.7995 22.8781 41.3414 22.8781 39.5482C22.8781 37.7551 21.419 36.297 19.6259 36.297Z" fill="#33363A"/>
<path d="M17.6391 39.8768C18.5381 39.8768 19.2669 39.148 19.2669 38.2489C19.2669 37.3499 18.5381 36.6211 17.6391 36.6211C16.74 36.6211 16.0112 37.3499 16.0112 38.2489C16.0112 39.148 16.74 39.8768 17.6391 39.8768Z" fill="white"/>
<path d="M17.6386 40.6215C16.3304 40.6215 15.2668 39.557 15.2668 38.2488C15.2668 36.9405 16.3309 35.877 17.6386 35.877C18.9474 35.877 20.0114 36.941 20.0114 38.2488C20.0114 39.5575 18.9474 40.6215 17.6386 40.6215ZM17.6386 37.3658C17.1518 37.3658 16.7557 37.7619 16.7557 38.2488C16.7557 38.7361 17.1518 39.1327 17.6386 39.1327C18.126 39.1327 18.5226 38.7361 18.5226 38.2488C18.5226 37.7619 18.1265 37.3658 17.6386 37.3658Z" fill="#33363A"/>
<path d="M47.6567 39.5479C47.6567 41.756 45.868 43.5436 43.661 43.5436C41.4539 43.5436 39.6648 41.756 39.6648 39.5479C39.6648 37.3409 41.4534 35.5522 43.661 35.5522C45.8675 35.5527 47.6567 37.3409 47.6567 39.5479Z" fill="#A35616"/>
<path d="M47.6567 39.5479C47.6567 41.756 45.868 40.3738 43.661 40.3738C41.4539 40.3738 39.6648 41.756 39.6648 39.5479C39.6648 37.3409 41.4534 35.5522 43.661 35.5522C45.8675 35.5527 47.6567 37.3409 47.6567 39.5479Z" fill="#33363A"/>
<path d="M43.661 44.2879C41.047 44.2879 38.9204 42.1617 38.9204 39.5477C38.9204 36.9338 41.047 34.8076 43.661 34.8076C46.275 34.8076 48.4012 36.9338 48.4012 39.5477C48.4012 42.1617 46.2745 44.2879 43.661 44.2879ZM43.661 36.297C41.8684 36.297 40.4093 37.7551 40.4093 39.5482C40.4093 41.3414 41.8679 42.7995 43.661 42.7995C45.4541 42.7995 46.9123 41.3414 46.9123 39.5482C46.9123 37.7551 45.4537 36.297 43.661 36.297Z" fill="#33363A"/>
<path d="M41.6733 39.8768C42.5723 39.8768 43.3011 39.148 43.3011 38.2489C43.3011 37.3499 42.5723 36.6211 41.6733 36.6211C40.7742 36.6211 40.0454 37.3499 40.0454 38.2489C40.0454 39.148 40.7742 39.8768 41.6733 39.8768Z" fill="white"/>
<path d="M41.6738 40.6215C40.3651 40.6215 39.301 39.557 39.301 38.2488C39.301 36.9405 40.3656 35.877 41.6738 35.877C42.9821 35.877 44.0456 36.941 44.0456 38.2488C44.0456 39.5575 42.9821 40.6215 41.6738 40.6215ZM41.6738 37.3658C41.1865 37.3658 40.7899 37.7619 40.7899 38.2488C40.7899 38.7361 41.1865 39.1327 41.6738 39.1327C42.1607 39.1327 42.5567 38.7361 42.5567 38.2488C42.5567 37.7619 42.1607 37.3658 41.6738 37.3658Z" fill="#33363A"/>
<path d="M39.6982 44.3846C39.6982 45.0749 36.0921 45.199 31.6438 45.199C27.195 45.199 23.5884 45.0749 23.5884 44.3846C23.5884 43.6932 27.1955 41.8877 31.6438 41.8877C36.0926 41.8877 39.6982 43.6937 39.6982 44.3846Z" fill="#FBFCF2"/>
<path d="M52.2422 44.6169L62.1329 36.9834L50.7305 40.2475" fill="#EAE4C5"/>
<path d="M52.2426 45.3615C52.0198 45.3615 51.7995 45.2622 51.653 45.0717C51.4019 44.7466 51.462 44.2786 51.7875 44.0275L58.6012 38.7682L50.9354 40.9628C50.5369 41.0745 50.1274 40.8472 50.0148 40.4521C49.9016 40.0566 50.1304 39.6447 50.5255 39.5315L61.9279 36.2679C62.2743 36.1701 62.6361 36.3294 62.7974 36.648C62.9582 36.9671 62.8703 37.3552 62.5874 37.5731L52.6968 45.2067C52.5613 45.3114 52.4015 45.3615 52.2426 45.3615Z" fill="#33363A"/>
<path d="M11.0455 44.6169L1.15479 36.9834L12.5572 40.2475" fill="#EAE4C5"/>
<path d="M11.045 45.3615C10.8862 45.3615 10.7259 45.3109 10.5909 45.2067L0.700241 37.5731C0.417352 37.3552 0.329507 36.9666 0.490307 36.648C0.651604 36.3294 1.0144 36.1701 1.35982 36.2679L12.7622 39.5315C13.1573 39.6452 13.3861 40.0571 13.2729 40.4521C13.1593 40.8472 12.7488 41.075 12.3523 40.9628L4.68649 38.7682L11.5001 44.0275C11.8257 44.2786 11.8858 44.7461 11.6346 45.0717C11.4882 45.2622 11.2679 45.3615 11.045 45.3615Z" fill="#33363A"/>
<path d="M52.5196 44.6455L62.5438 52.3818L50.988 49.0735" fill="#DDD2B1"/>
<path d="M62.5438 53.126C62.4758 53.126 62.4073 53.1166 62.3388 53.0972L50.783 49.7889C50.388 49.6752 50.1592 49.2633 50.2723 48.8683C50.3855 48.4732 50.7959 48.2459 51.193 48.3576L59.0121 50.5964L52.0655 45.2349C51.7399 44.9837 51.6798 44.5162 51.931 44.1907C52.1821 43.8646 52.6496 43.805 52.9752 44.0562L62.9989 51.7924C63.2818 52.0103 63.3696 52.3989 63.2088 52.7175C63.0788 52.9726 62.8187 53.126 62.5438 53.126Z" fill="#33363A"/>
<path d="M10.7686 44.645L0.744385 52.3813L12.2997 49.073" fill="#DDD2B1"/>
<path d="M0.744448 53.1258C0.469003 53.1258 0.20944 52.9725 0.0799069 52.7174C-0.0808931 52.3983 0.00695131 52.0102 0.28984 51.7923L10.3135 44.056C10.6386 43.8049 11.1061 43.8649 11.3577 44.1905C11.6089 44.5156 11.5488 44.9836 11.2232 45.2347L4.27708 50.5962L12.0952 48.3574C12.4883 48.2453 12.9027 48.4731 13.0159 48.8681C13.129 49.2637 12.9002 49.6756 12.5052 49.7887L0.949914 53.097C0.881425 53.1164 0.81244 53.1258 0.744448 53.1258Z" fill="#33363A"/>
<path d="M43.8675 24.3023L44.1837 11.8135L39.5229 22.7191" fill="#EAE4C5"/>
<path d="M43.868 25.0468C43.8616 25.0468 43.8551 25.0468 43.8487 25.0468C43.4378 25.0363 43.1132 24.6944 43.1231 24.2835L43.341 15.6797L40.2074 23.012C40.0461 23.3896 39.6098 23.5673 39.2302 23.4035C38.852 23.2422 38.6768 22.8045 38.8386 22.4263L43.4993 11.5202C43.6393 11.1922 43.9976 11.0095 44.342 11.0855C44.6909 11.1614 44.9366 11.4746 44.9281 11.8319L44.612 24.3212C44.6011 24.7257 44.27 25.0468 43.868 25.0468Z" fill="#33363A"/>
<path d="M19.4194 24.3023L19.1033 11.8135L23.764 22.7191" fill="#EAE4C5"/>
<path d="M19.419 25.0464C19.0165 25.0464 18.6854 24.7258 18.675 24.3209L18.3589 11.8321C18.3499 11.4747 18.5961 11.1616 18.945 11.0856C19.2904 11.0092 19.6478 11.1923 19.7877 11.5204L24.4484 22.4265C24.6102 22.8047 24.435 23.2424 24.0569 23.4037C23.6772 23.5675 23.2409 23.3898 23.0796 23.0121L19.946 15.6793L20.1639 24.2831C20.1743 24.6941 19.8493 25.036 19.4383 25.0464C19.4324 25.0464 19.4254 25.0464 19.419 25.0464Z" fill="#33363A"/>
<path d="M42.0046 50.1832H21.2828C19.9145 50.1832 18.8013 49.07 18.8013 47.7017C18.8013 46.3334 19.9145 45.2202 21.2828 45.2202C21.6937 45.2202 22.0272 45.5537 22.0272 45.9647C22.0272 46.3756 21.6937 46.7091 21.2828 46.7091C20.7353 46.7091 20.2902 47.1543 20.2902 47.7017C20.2902 48.2491 20.7353 48.6943 21.2828 48.6943H42.0046C42.552 48.6943 42.9972 48.2491 42.9972 47.7017C42.9972 47.1543 42.552 46.7091 42.0046 46.7091C41.5937 46.7091 41.2602 46.3756 41.2602 45.9647C41.2602 45.5537 41.5937 45.2202 42.0046 45.2202C43.3729 45.2202 44.4861 46.3334 44.4861 47.7017C44.4861 49.07 43.3729 50.1832 42.0046 50.1832Z" fill="#33363A"/>
<path d="M39.3533 26.6847C39.3533 30.2869 36.4316 33.2076 32.8294 33.2076H30.4581C26.855 33.2076 23.9343 30.2869 23.9343 26.6847V15.2689C23.9343 11.6658 26.855 8.74463 30.4581 8.74463H32.8294C36.4316 8.74463 39.3533 11.6663 39.3533 15.2689V26.6847Z" fill="#FFD039"/>
<path d="M32.8299 12.521H30.4586C26.8555 12.521 23.9348 15.4427 23.9348 19.0453V26.6848C23.9348 30.2869 26.8555 33.2076 30.4586 33.2076H32.8299C36.4321 33.2076 39.3537 30.2869 39.3537 26.6848V19.0458C39.3533 15.4427 36.4316 12.521 32.8299 12.521Z" fill="#FFB000"/>
<path d="M38.7622 15.5156C38.7622 15.9673 38.3964 16.3335 37.9453 16.3335H24.7786C24.3274 16.3335 23.9617 15.9673 23.9617 15.5156C23.9617 15.065 24.3274 14.6987 24.7786 14.6987H37.9453C38.396 14.6982 38.7622 15.0645 38.7622 15.5156Z" fill="#EA7B1F"/>
<path d="M38.7622 19.8325C38.7622 20.2842 38.3964 20.6504 37.9453 20.6504H24.7786C24.3274 20.6504 23.9617 20.2842 23.9617 19.8325C23.9617 19.3819 24.3274 19.0156 24.7786 19.0156H37.9453C38.396 19.0151 38.7622 19.3819 38.7622 19.8325Z" fill="#EA7B1F"/>
<path d="M38.7622 24.561C38.7622 25.0127 38.3964 25.3789 37.9453 25.3789H24.7786C24.3274 25.3789 23.9617 25.0127 23.9617 24.561C23.9617 24.1104 24.3274 23.7441 24.7786 23.7441H37.9453C38.396 23.7441 38.7622 24.1104 38.7622 24.561Z" fill="#EA7B1F"/>
<path d="M38.7622 29.2891C38.7622 29.7407 38.3964 30.107 37.9453 30.107H24.7786C24.3274 30.107 23.9617 29.7407 23.9617 29.2891C23.9617 28.8384 24.3274 28.4722 24.7786 28.4722H37.9453C38.396 28.4722 38.7622 28.8384 38.7622 29.2891Z" fill="#EA7B1F"/>
<path d="M32.83 33.9518H30.4587C26.4511 33.9518 23.1904 30.6922 23.1904 26.6846V15.2688C23.1904 11.2607 26.4506 8 30.4587 8H32.83C36.8376 8 40.0983 11.2607 40.0983 15.2688V26.6846C40.0978 30.6922 36.8376 33.9518 32.83 33.9518ZM30.4582 9.48889C27.2715 9.48889 24.6788 12.082 24.6788 15.2688V26.6846C24.6788 29.8708 27.2715 32.4629 30.4582 32.4629H32.8295C36.0162 32.4629 38.6089 29.8708 38.6089 26.6846V15.2688C38.6089 12.0815 36.0162 9.48889 32.8295 9.48889H30.4582Z" fill="#33363A"/>
<path d="M27.2704 15.0314H26.7974C26.3865 15.0314 26.053 14.6979 26.053 14.2869C26.053 13.876 26.3865 13.5425 26.7974 13.5425H27.2704C27.6813 13.5425 28.0148 13.876 28.0148 14.2869C28.0148 14.6979 27.6813 15.0314 27.2704 15.0314Z" fill="#33363A"/>
<path d="M36.4906 15.0314H36.0181C35.6072 15.0314 35.2737 14.6979 35.2737 14.2869C35.2737 13.876 35.6072 13.5425 36.0181 13.5425H36.4906C36.9015 13.5425 37.235 13.876 37.235 14.2869C37.235 14.6979 36.9015 15.0314 36.4906 15.0314Z" fill="#33363A"/>
<path d="M33.7129 15.0314H29.5753C29.1643 15.0314 28.8308 14.6979 28.8308 14.2869C28.8308 13.876 29.1643 13.5425 29.5753 13.5425H33.7129C34.1238 13.5425 34.4573 13.876 34.4573 14.2869C34.4573 14.6979 34.1238 15.0314 33.7129 15.0314Z" fill="#33363A"/>
<path d="M27.2704 19.7594H26.7974C26.3865 19.7594 26.053 19.4259 26.053 19.015C26.053 18.604 26.3865 18.2705 26.7974 18.2705H27.2704C27.6813 18.2705 28.0148 18.604 28.0148 19.015C28.0148 19.4259 27.6813 19.7594 27.2704 19.7594Z" fill="#33363A"/>
<path d="M36.4906 19.7594H36.0181C35.6072 19.7594 35.2737 19.4259 35.2737 19.015C35.2737 18.604 35.6072 18.2705 36.0181 18.2705H36.4906C36.9015 18.2705 37.235 18.604 37.235 19.015C37.235 19.4259 36.9015 19.7594 36.4906 19.7594Z" fill="#33363A"/>
<path d="M33.7129 19.7594H29.5753C29.1643 19.7594 28.8308 19.4259 28.8308 19.015C28.8308 18.604 29.1643 18.2705 29.5753 18.2705H33.7129C34.1238 18.2705 34.4573 18.604 34.4573 19.015C34.4573 19.4259 34.1238 19.7594 33.7129 19.7594Z" fill="#33363A"/>
<path d="M27.2704 24.4884H26.7974C26.3865 24.4884 26.053 24.1549 26.053 23.744C26.053 23.333 26.3865 22.9995 26.7974 22.9995H27.2704C27.6813 22.9995 28.0148 23.333 28.0148 23.744C28.0148 24.1549 27.6813 24.4884 27.2704 24.4884Z" fill="#33363A"/>
<path d="M36.4906 24.4884H36.0181C35.6072 24.4884 35.2737 24.1549 35.2737 23.744C35.2737 23.333 35.6072 22.9995 36.0181 22.9995H36.4906C36.9015 22.9995 37.235 23.333 37.235 23.744C37.235 24.1549 36.9015 24.4884 36.4906 24.4884Z" fill="#33363A"/>
<path d="M33.7129 24.4884H29.5753C29.1643 24.4884 28.8308 24.1549 28.8308 23.744C28.8308 23.333 29.1643 22.9995 29.5753 22.9995H33.7129C34.1238 22.9995 34.4573 23.333 34.4573 23.744C34.4573 24.1549 34.1238 24.4884 33.7129 24.4884Z" fill="#33363A"/>
<path d="M27.2704 29.2164H26.7974C26.3865 29.2164 26.053 28.8829 26.053 28.472C26.053 28.0611 26.3865 27.7275 26.7974 27.7275H27.2704C27.6813 27.7275 28.0148 28.0611 28.0148 28.472C28.0148 28.8829 27.6813 29.2164 27.2704 29.2164Z" fill="#33363A"/>
<path d="M36.4906 29.2164H36.0181C35.6072 29.2164 35.2737 28.8829 35.2737 28.472C35.2737 28.0611 35.6072 27.7275 36.0181 27.7275H36.4906C36.9015 27.7275 37.235 28.0611 37.235 28.472C37.235 28.8829 36.9015 29.2164 36.4906 29.2164Z" fill="#33363A"/>
<path d="M33.7129 29.2164H29.5753C29.1643 29.2164 28.8308 28.8829 28.8308 28.472C28.8308 28.0611 29.1643 27.7275 29.5753 27.7275H33.7129C34.1238 27.7275 34.4573 28.0611 34.4573 28.472C34.4573 28.8829 34.1238 29.2164 33.7129 29.2164Z" fill="#33363A"/>
<path d="M22.5865 51.7564C22.1756 51.7564 21.842 51.4229 21.842 51.0119V50.0193C21.842 49.6084 22.1756 49.2749 22.5865 49.2749C22.9974 49.2749 23.3309 49.6084 23.3309 50.0193V51.0119C23.3309 51.4229 22.9974 51.7564 22.5865 51.7564Z" fill="#33363A"/>
<path d="M40.7012 51.7564C40.2903 51.7564 39.9568 51.4229 39.9568 51.0119V50.0193C39.9568 49.6084 40.2903 49.2749 40.7012 49.2749C41.1122 49.2749 41.4457 49.6084 41.4457 50.0193V51.0119C41.4457 51.4229 41.1122 51.7564 40.7012 51.7564Z" fill="#33363A"/>
</svg>