<svg xmlns="http://www.w3.org/2000/svg" fill="none" viewBox="1.75 1.75 63.5 63.49">
<path d="M58.6627 27.6608H51.2242C50.9324 26.7764 50.5711 25.9247 50.1552 25.1034L55.4224 19.8372C57.7028 17.5562 57.7028 13.8588 55.4224 11.5773C53.1409 9.29731 49.4435 9.29731 47.1625 11.5773L41.8973 16.8445C41.0754 16.4296 40.2243 16.0678 39.3394 15.775V8.33748C39.3394 5.11155 36.7249 2.49756 33.5 2.49756C30.274 2.49756 27.6595 5.11155 27.6595 8.33748V15.7745C26.7756 16.0673 25.9245 16.4291 25.1036 16.844L19.8374 11.5773C17.5559 9.29731 13.858 9.29731 11.5776 11.5773C9.29708 13.8588 9.29708 17.5562 11.5776 19.8372L16.8448 25.1034C16.4289 25.9232 16.068 26.7754 15.7747 27.6608H8.33625C5.11181 27.6608 2.49683 30.2743 2.49683 33.5007C2.49683 36.7251 5.11181 39.3396 8.33724 39.3396H15.7747C16.0671 40.2245 16.4279 41.0757 16.8438 41.8955L11.5776 47.1632C9.29708 49.4452 9.29708 53.1431 11.5776 55.4221C12.7185 56.5631 14.2134 57.1333 15.7077 57.1333C17.2016 57.1333 18.6959 56.5631 19.8369 55.4221L25.1021 50.1559C25.923 50.5723 26.7751 50.9311 27.659 51.2259V58.6634C27.659 61.8879 30.2735 64.5028 33.4995 64.5028C36.7244 64.5028 39.3389 61.8879 39.3389 58.6634V51.2259C40.2238 50.9311 41.0749 50.5723 41.8968 50.1559L47.163 55.4221C48.304 56.5631 49.7978 57.1333 51.2922 57.1333C52.7865 57.1333 54.2814 56.5631 55.4214 55.4221C57.7028 53.1411 57.7018 49.4427 55.4214 47.1632L50.1552 41.8975C50.5711 41.0757 50.9324 40.2245 51.2242 39.3396L58.6637 39.3386C61.8881 39.3386 64.5031 36.7231 64.5031 33.4997C64.5021 30.2743 61.8871 27.6598 58.6627 27.6608ZM40.4928 33.5002C40.4928 37.3559 37.3562 40.4935 33.5 40.4935C29.6437 40.4935 26.5062 37.3554 26.5062 33.5002C26.5062 29.6435 29.6437 26.5064 33.5 26.5064C37.3562 26.5064 40.4928 29.6435 40.4928 33.5002Z" fill="white"/>
<path d="M41.8974 50.1554L47.1636 55.4216C48.3046 56.5626 49.7984 57.1328 51.2928 57.1328C52.7871 57.1328 54.2819 56.5626 55.4219 55.4216C55.8567 54.9874 56.2066 54.5015 56.4756 53.9833C56.2066 53.4667 55.8567 52.9793 55.4219 52.5446L50.1547 47.2794C50.5706 46.458 50.9319 45.6064 51.2238 44.722H52.9792L50.1547 41.8985C50.5706 41.0767 50.9319 40.2255 51.2238 39.3406L58.6633 39.3396C60.9159 39.3396 62.8684 38.0612 63.8421 36.1921C62.8684 34.3206 60.9159 33.0421 58.6623 33.0421H51.2238C50.9319 32.1577 50.5706 31.3066 50.1547 30.4847L52.9792 27.6618H51.2238C50.9319 26.7774 50.5706 25.9257 50.1547 25.1044L55.4219 19.8382C55.8562 19.4039 56.2066 18.9175 56.4756 18.3994C56.2066 17.8823 55.8562 17.3964 55.4219 16.9616C53.1405 14.6797 49.4431 14.6797 47.1621 16.9616L41.8974 22.2253C41.0755 21.8104 40.2244 21.4501 39.3395 21.1568V15.775V13.7183C39.3395 10.4934 36.725 7.87891 33.5 7.87891C30.2741 7.87891 27.6596 10.4934 27.6596 13.7183V15.775V21.1568C26.7757 21.4501 25.9246 21.8104 25.1037 22.2253L19.8375 16.9596C17.556 14.6777 13.8581 14.6777 11.5776 16.9596C11.1434 17.3944 10.793 17.8803 10.524 18.3974C10.793 18.9155 11.1434 19.4019 11.5776 19.8362L16.8448 25.1024C16.4289 25.9223 16.0681 26.7744 15.7748 27.6598H14.0199L16.8448 30.4827C16.4289 31.3036 16.0681 32.1547 15.7748 33.0401H8.33633C6.08265 33.0401 4.13022 34.3201 3.15698 36.1901C4.13022 38.0592 6.08314 39.3386 8.33732 39.3386H15.7748C16.0671 40.2235 16.4279 41.0747 16.8438 41.8946L14.0189 44.72H15.7748C16.0671 45.6044 16.4279 46.456 16.8438 47.2764L11.5776 52.5426C11.1434 52.9774 10.793 53.4647 10.524 53.9814C10.793 54.4995 11.1434 54.9854 11.5776 55.4196C12.7186 56.5606 14.2135 57.1309 15.7078 57.1309C17.2017 57.1309 18.696 56.5606 19.837 55.4196L25.1022 50.1534C25.9231 50.5698 26.7752 50.9286 27.6591 51.2234V56.6043V58.6614C27.6591 61.8859 30.2736 64.5009 33.4995 64.5009C36.7245 64.5009 39.339 61.8859 39.339 58.6614V56.6043V51.2234C40.2244 50.9311 41.0755 50.5718 41.8974 50.1554ZM33.5 44.384C29.6438 44.384 26.5062 42.7373 26.5062 38.881C26.5062 37.9277 26.6993 37.0199 27.0462 36.1911C26.6993 35.3623 26.5062 34.4531 26.5062 33.4997C26.5062 29.643 29.6438 26.5059 33.5 26.5059C37.3563 26.5059 40.4928 29.6435 40.4928 33.5002C40.4928 34.4536 40.2998 35.3628 39.9529 36.1916C40.2998 37.0204 40.4928 37.9282 40.4928 38.8815C40.4928 42.7373 37.3563 44.384 33.5 44.384Z" fill="#D8E5EA"/>
<path d="M33.5 65.2466C29.8696 65.2466 26.9152 62.2931 26.9152 58.6627V51.7538C26.3548 51.5488 25.799 51.3165 25.2526 51.058L20.3631 55.948C19.1188 57.1922 17.4652 57.8776 15.7073 57.8776C13.9484 57.8776 12.2948 57.1922 11.0506 55.948C8.48322 53.3826 8.48322 49.2053 11.0506 46.6365L15.9411 41.7455C15.68 41.1946 15.4468 40.6387 15.2453 40.0839H8.33681C4.70641 40.0839 1.75195 37.1304 1.75195 33.5005C1.75195 29.8696 4.70541 26.9156 8.33582 26.9156H15.2453C15.4482 26.3593 15.681 25.8029 15.9416 25.2526L11.0511 20.3621C8.48421 17.7952 8.48421 13.6174 11.0511 11.0496C12.2948 9.80633 13.9479 9.12144 15.7068 9.12144C17.4657 9.12144 19.1193 9.80583 20.3636 11.0491L25.2541 15.9406C25.8069 15.679 26.3623 15.4457 26.9152 15.2442V8.33729C26.9152 4.70689 29.8691 1.75293 33.5 1.75293C37.1299 1.75293 40.0839 4.70639 40.0839 8.33729V15.2452C40.6358 15.4467 41.1921 15.6795 41.747 15.942L46.637 11.0505C47.8807 9.80732 49.5344 9.12243 51.2932 9.12243C53.0516 9.12243 54.7053 9.80683 55.9495 11.05C58.5163 13.6179 58.5163 17.7957 55.9495 20.3625L51.0585 25.2531C51.32 25.8059 51.5533 26.3623 51.7548 26.9161H58.6637C62.2941 26.9161 65.2476 29.8696 65.2486 33.4995C65.2486 37.1294 62.2951 40.0829 58.6647 40.0829L51.7548 40.0839C51.5533 40.6372 51.3205 41.1936 51.0585 41.747L55.9495 46.6365C57.1932 47.8797 57.8781 49.5329 57.8786 51.2917C57.8786 53.0506 57.1937 54.7043 55.9495 55.948C54.7063 57.1922 53.0531 57.8776 51.2937 57.8776C49.5359 57.8776 47.8822 57.1922 46.638 55.948L41.7475 51.0575C41.1996 51.3165 40.6432 51.5493 40.0839 51.7538V58.6627C40.0839 62.2931 37.1299 65.2466 33.5 65.2466ZM25.1027 49.4108C25.2168 49.4108 25.3325 49.4371 25.4397 49.4912C26.2387 49.8961 27.0646 50.2421 27.8954 50.519C28.1991 50.6202 28.4041 50.9046 28.4041 51.2252V58.6627C28.4041 61.4723 30.69 63.7577 33.5 63.7577C36.3091 63.7577 38.595 61.4723 38.595 58.6627V51.2252C38.595 50.9046 38.8 50.6202 39.1042 50.519C39.9315 50.2436 40.7584 49.8976 41.5609 49.4912C41.8477 49.3463 42.1961 49.4013 42.4234 49.6291L47.6896 54.8953C48.6524 55.8582 49.9324 56.3887 51.2927 56.3887C52.6541 56.3887 53.9335 55.8587 54.8954 54.8958C55.8582 53.933 56.3887 52.6531 56.3887 51.2922C56.3882 49.9309 55.8587 48.6519 54.8959 47.6901L49.6287 42.4239C49.4014 42.1966 49.3458 41.8482 49.4907 41.5613C49.9041 40.7444 50.2495 39.9181 50.517 39.1062C50.6178 38.8009 50.9027 38.595 51.2243 38.595L58.6637 38.594C61.4728 38.594 63.7587 36.309 63.7587 33.4995C63.7577 30.6905 61.4728 28.4045 58.6647 28.4045H51.2243C50.9031 28.4045 50.6178 28.1981 50.517 27.8933C50.249 27.0804 49.9036 26.2546 49.4912 25.4387C49.3458 25.1518 49.4009 24.8034 49.6287 24.5761L54.8959 19.3099C56.882 17.3232 56.882 14.0899 54.8959 12.1032C53.9335 11.1414 52.6531 10.6113 51.2922 10.6113C49.9309 10.6113 48.6515 11.1414 47.6886 12.1032L42.4234 17.3704C42.1961 17.5982 41.8487 17.6533 41.5619 17.5084C40.742 17.0949 39.9156 16.749 39.1057 16.481C38.801 16.3798 38.595 16.0954 38.595 15.7743V8.33729C38.595 5.52776 36.3096 3.24182 33.5 3.24182C30.6905 3.24182 28.4041 5.52726 28.4041 8.33729V15.7743C28.4041 16.0954 28.1986 16.3803 27.8939 16.481C27.0829 16.7495 26.2571 17.0954 25.4397 17.5084C25.1538 17.6538 24.8049 17.5987 24.5771 17.3704L19.3109 12.1032C18.3486 11.1414 17.0682 10.6113 15.7068 10.6113C14.346 10.6113 13.066 11.1409 12.1037 12.1032C10.1175 14.0904 10.1175 17.3237 12.1037 19.3099L17.3714 24.5766C17.5992 24.8039 17.6543 25.1523 17.5089 25.4397C17.0989 26.2486 16.753 27.0745 16.4815 27.8948C16.3808 28.1996 16.0959 28.405 15.7748 28.405H8.33632C5.52728 28.405 3.24134 30.691 3.24134 33.501C3.24134 36.31 5.52728 38.5955 8.33731 38.5955H15.7748C16.0959 38.5955 16.3813 38.8014 16.482 39.1067C16.7515 39.9231 17.0964 40.7484 17.5079 41.5594C17.6533 41.8467 17.5982 42.1946 17.3704 42.4224L12.1042 47.6891C10.1175 49.6768 10.1175 52.9097 12.1042 54.8948C13.067 55.8582 14.3475 56.3882 15.7083 56.3882C17.0686 56.3882 18.3481 55.8582 19.3114 54.8948L24.5766 49.6291C24.7196 49.4857 24.9096 49.4108 25.1027 49.4108ZM33.5 41.2373C29.2329 41.2373 25.7618 37.7662 25.7618 33.4995C25.7618 29.2329 29.2329 25.7613 33.5 25.7613C37.7667 25.7613 41.2373 29.2329 41.2373 33.4995C41.2373 37.7662 37.7667 41.2373 33.5 41.2373ZM33.5 27.2506C30.0542 27.2506 27.2507 30.0537 27.2507 33.5C27.2507 36.9453 30.0537 39.7489 33.5 39.7489C36.9453 39.7489 39.7484 36.9458 39.7484 33.5C39.7484 30.0537 36.9453 27.2506 33.5 27.2506Z" fill="#33363A"/>
<path d="M33.5 44.3838C39.5112 44.3838 44.3843 39.5107 44.3843 33.4995C44.3843 27.4883 39.5112 22.6152 33.5 22.6152C27.4888 22.6152 22.6157 27.4883 22.6157 33.4995C22.6157 39.5107 27.4888 44.3838 33.5 44.3838Z" fill="#95A2A5"/>
<path d="M33.5 41.8367C39.5112 41.8367 44.3843 38.1039 44.3843 33.4994C44.3843 28.8948 39.5112 25.1621 33.5 25.1621C27.4888 25.1621 22.6157 28.8948 22.6157 33.4994C22.6157 38.1039 27.4888 41.8367 33.5 41.8367Z" fill="#808E93"/>
<path d="M22.6157 33.4995C22.6157 39.5111 27.4889 44.3843 33.5 44.3843C39.5111 44.3843 44.3843 39.5116 44.3843 33.4995H22.6157Z" fill="white"/>
<path d="M33.5 41.8363C39.5106 41.8363 44.3843 38.1037 44.3843 33.499H22.6157C22.6157 38.1037 27.4894 41.8363 33.5 41.8363Z" fill="#D8E5EA"/>
<path d="M33.5001 45.128C27.0879 45.128 21.8713 39.9115 21.8713 33.4988C21.8713 27.0872 27.0879 21.8706 33.5001 21.8706C39.9122 21.8706 45.1288 27.0872 45.1288 33.4988C45.1288 39.9115 39.9122 45.128 33.5001 45.128ZM33.5001 23.36C27.9088 23.36 23.3602 27.9085 23.3602 33.4993C23.3602 39.0906 27.9088 43.6397 33.5001 43.6397C39.0913 43.6397 43.6399 39.0906 43.6399 33.4993C43.6399 27.9081 39.0913 23.36 33.5001 23.36Z" fill="#33363A"/>
<path d="M44.3843 34.2438H22.6158C22.2048 34.2438 21.8713 33.9108 21.8713 33.4993C21.8713 33.0879 22.2048 32.7549 22.6158 32.7549H44.3838C44.7948 32.7549 45.1283 33.0879 45.1283 33.4993C45.1283 33.9108 44.7953 34.2438 44.3843 34.2438Z" fill="#33363A"/>
<path d="M33.5 38.3448C35.4875 38.3448 37.0987 36.7336 37.0987 34.7461C37.0987 32.7586 35.4875 31.1475 33.5 31.1475C31.5125 31.1475 29.9014 32.7586 29.9014 34.7461C29.9014 36.7336 31.5125 38.3448 33.5 38.3448Z" fill="#A7BBC1"/>
<path d="M33.5 37.1216C35.4875 37.1216 37.0987 35.5104 37.0987 33.523C37.0987 31.5355 35.4875 29.9243 33.5 29.9243C31.5125 29.9243 29.9014 31.5355 29.9014 33.523C29.9014 35.5104 31.5125 37.1216 33.5 37.1216Z" fill="white"/>
<path d="M30.9555 36.068C29.55 34.6625 29.55 32.3835 30.9555 30.978C32.361 29.5725 34.6395 29.5725 36.0445 30.978" fill="#D8E5EA"/>
<path d="M33.5 37.8659C32.3402 37.8659 31.2498 37.4142 30.429 36.5944C28.7356 34.9005 28.7356 32.1451 30.429 30.4517C31.2493 29.6313 32.3402 29.1797 33.5 29.1797C34.6604 29.1797 35.7507 29.6318 36.5711 30.4517C38.2645 32.1451 38.2645 34.901 36.5711 36.5944C35.7507 37.4142 34.6604 37.8659 33.5 37.8659ZM33.5 30.6681C32.7377 30.6681 32.0216 30.9649 31.4821 31.5043C30.3694 32.6175 30.3694 34.4285 31.4821 35.5417C32.0211 36.0802 32.7377 36.377 33.5 36.377C34.2624 36.377 34.979 36.0802 35.518 35.5412C36.6307 34.4285 36.6307 32.617 35.518 31.5043C34.979 30.9654 34.2624 30.6681 33.5 30.6681Z" fill="#33363A"/>
</svg>