<svg xmlns="http://www.w3.org/2000/svg" fill="none" viewBox="2.45 1.43 54.33 55.14">
<path d="M24.5146 1.46196C23.8983 1.57313 23.5334 1.89696 23.3763 2.4673C23.3352 2.61471 23.3328 3.08596 23.3328 11.8077V20.991L23.4222 21.1747C23.5431 21.4164 23.7533 21.6242 23.995 21.745L24.1762 21.8345H24.5049H24.8336L25.0148 21.745C25.2565 21.6242 25.4667 21.4164 25.5876 21.1747L25.677 20.991L25.6842 12.4046L25.6891 3.81821L36.4626 3.82063C45.3897 3.82063 47.2191 3.82788 47.1491 3.85446C47.1031 3.87138 46.1123 4.2218 44.9451 4.63505C43.7802 5.0483 42.7725 5.41321 42.7024 5.44946C42.4583 5.57271 42.265 5.79988 42.1441 6.10196L42.0861 6.24696L42.0789 26.663L42.0741 47.0765L33.8864 47.0717L25.7011 47.0645L25.6891 38.5699C25.677 30.4934 25.6746 30.0705 25.6335 29.9665C25.5368 29.7225 25.3507 29.4953 25.1356 29.36C24.7852 29.1352 24.2246 29.1352 23.8741 29.3575C23.6373 29.5098 23.4464 29.7563 23.3666 30.0149C23.3207 30.1695 23.3207 30.2735 23.3256 39.2224C23.3328 47.8015 23.3352 48.28 23.3763 48.4178C23.4971 48.831 23.7243 49.109 24.0747 49.2757C24.4638 49.4594 23.6518 49.4449 33.333 49.4449H42.0209L42.0378 49.5101C42.0475 49.5488 42.0644 50.936 42.0716 52.5986C42.091 55.9723 42.0765 55.721 42.2626 56.0085C42.4704 56.3275 42.7652 56.5136 43.1301 56.5595C43.3766 56.5885 43.5821 56.5595 43.7681 56.4653C43.8406 56.4315 46.6488 54.7905 50.008 52.8234C53.8046 50.6 56.1608 49.2056 56.2333 49.1404C56.4387 48.9543 56.6683 48.5435 56.7311 48.2438C56.7843 47.9925 56.7843 2.87571 56.7311 2.62196C56.6707 2.3368 56.5475 2.1193 56.3106 1.88246C56.0907 1.66255 55.9264 1.56346 55.6436 1.4813C55.5059 1.44021 54.7591 1.4378 40.0924 1.43296C27.5523 1.43055 24.6547 1.43538 24.5146 1.46196Z" fill="#FFBA01"/>
<path d="M8.33739 20.5755C5.10148 23.3716 2.45039 25.6699 2.44556 25.6844C2.44314 25.6964 5.09181 27.7047 8.33498 30.1455C13.4317 33.9808 14.2413 34.5825 14.3114 34.5825C14.4395 34.5801 14.5821 34.5028 14.6473 34.3989L14.7053 34.3046L14.7126 30.5056L14.7174 26.7042L22.3734 26.6994L30.0294 26.6921L30.2227 26.5979C30.5901 26.4142 30.8269 26.0904 30.8873 25.6844C30.9743 25.0995 30.5949 24.5195 30.027 24.3697C29.9279 24.3431 28.5746 24.3359 22.313 24.3359H14.7174V20.0753V15.8147L14.6642 15.7083C14.599 15.5803 14.4999 15.5174 14.338 15.5029L14.222 15.4908L8.33739 20.5755Z" fill="#33363A"/>
</svg>