<svg xmlns="http://www.w3.org/2000/svg" fill="none" viewBox="7.5 2.5 45 57.5">
<path d="M45 18.75C45 10.4657 38.2843 3.75 30 3.75C21.7157 3.75 15 10.4657 15 18.75V33.75C15 42.0343 21.7157 48.75 30 48.75C38.2843 48.75 45 42.0343 45 33.75V18.75Z" stroke="#33363A" stroke-width="2.5" stroke-linecap="round" stroke-linejoin="round"/>
<path d="M48.75 22.5H11.25C9.17893 22.5 7.5 24.1789 7.5 26.25V56.25C7.5 58.3211 9.17893 60 11.25 60H48.75C50.8211 60 52.5 58.3211 52.5 56.25V26.25C52.5 24.1789 50.8211 22.5 48.75 22.5Z" fill="#FFBA01"/>
<path d="M33.9082 51.3416H26.0918L30 32.7163L33.9082 51.3416Z" fill="#33363A" stroke="#33363A" stroke-width="1.06908" stroke-linecap="round" stroke-linejoin="round"/>
<path d="M29.9999 39.6883C32.7095 39.6883 34.9061 37.4918 34.9061 34.7821C34.9061 32.0725 32.7095 29.876 29.9999 29.876C27.2903 29.876 25.0938 32.0725 25.0938 34.7821C25.0938 37.4918 27.2903 39.6883 29.9999 39.6883Z" fill="#33363A" stroke="#33363A" stroke-width="0.732643" stroke-linecap="round" stroke-linejoin="round"/>
</svg>