<svg xmlns="http://www.w3.org/2000/svg" fill="none" viewBox="0 0 59 59">
<path d="M29.4999 58.307C45.4093 58.307 58.3065 45.4098 58.3065 29.5004C58.3065 13.591 45.4093 0.693848 29.4999 0.693848C13.5905 0.693848 0.693359 13.591 0.693359 29.5004C0.693359 45.4098 13.5905 58.307 29.4999 58.307Z" fill="white"/>
<path d="M29.4995 0.693848C45.4101 0.693848 58.3065 13.5908 58.3065 29.5004C58.3065 45.4096 45.4101 58.3074 29.4995 58.3074" fill="#D8E5EA"/>
<path d="M29.4993 59C13.2334 59 0 45.7662 0 29.4998C0 13.2334 13.2334 0 29.4993 0C45.7657 0 58.9995 13.2334 58.9995 29.4998C58.9995 45.7666 45.7657 59 29.4993 59ZM29.4993 1.38688C13.9978 1.38688 1.38642 13.9987 1.38642 29.5002C1.38642 45.0023 13.9978 57.614 29.4993 57.614C45.0013 57.614 57.6131 45.0023 57.6131 29.5002C57.6131 13.9982 45.0013 1.38688 29.4993 1.38688Z" fill="#33363A"/>
<path d="M27.2829 51.5057C27.2593 51.5057 27.2353 51.5048 27.2113 51.502C25.6747 51.3439 24.1528 51.0237 22.6874 50.55C22.3228 50.4321 22.1231 50.0412 22.241 49.677C22.3588 49.3124 22.7512 49.1132 23.1139 49.2306C24.487 49.6742 25.9131 49.9746 27.3527 50.1225C27.7335 50.1618 28.0103 50.5019 27.9715 50.8832C27.935 51.24 27.6337 51.5057 27.2829 51.5057ZM31.7578 51.5011C31.4075 51.5011 31.1067 51.2363 31.0692 50.88C31.0295 50.4991 31.3054 50.1581 31.6862 50.1183C33.1257 49.9672 34.551 49.6645 35.9226 49.2181C36.2877 49.1003 36.6782 49.299 36.7965 49.6627C36.9148 50.0268 36.7161 50.4178 36.3519 50.5366C34.8883 51.013 33.367 51.3361 31.8308 51.4974C31.8063 51.5001 31.7818 51.5011 31.7578 51.5011ZM18.8082 48.7657C18.6908 48.7657 18.5716 48.7356 18.4625 48.6728C17.1288 47.9033 15.8699 46.9901 14.7215 45.9582C14.4368 45.7026 14.4132 45.264 14.6693 44.9794C14.9253 44.6947 15.3634 44.6716 15.6481 44.9271C16.7249 45.8944 17.9047 46.7503 19.1553 47.4717C19.4871 47.663 19.6008 48.0868 19.4094 48.4186C19.281 48.6409 19.048 48.7657 18.8082 48.7657ZM40.2261 48.7453C39.9867 48.7453 39.7542 48.621 39.6257 48.3992C39.4335 48.0678 39.5467 47.6436 39.8781 47.4518C41.1268 46.7285 42.3048 45.8704 43.3797 44.9012C43.6644 44.6448 44.1025 44.6679 44.3585 44.9516C44.615 45.2358 44.5924 45.6739 44.3081 45.9304C43.1616 46.9642 41.905 47.8797 40.5731 48.6511C40.4636 48.7153 40.3439 48.7453 40.2261 48.7453ZM12.1839 42.8142C11.9704 42.8142 11.7592 42.7158 11.6238 42.53C10.7129 41.2827 9.93233 39.9383 9.30336 38.5334C9.14716 38.184 9.30336 37.7741 9.65274 37.6175C10.0021 37.4617 10.4125 37.6175 10.5687 37.9668C11.1579 39.283 11.8895 40.5433 12.7431 41.712C12.9691 42.0212 12.9011 42.4551 12.5919 42.6807C12.469 42.7708 12.3258 42.8142 12.1839 42.8142ZM46.8388 42.7819C46.6974 42.7819 46.5551 42.7389 46.4317 42.6492C46.122 42.4242 46.0536 41.9907 46.2787 41.6811C47.13 40.5109 47.8592 39.2488 48.4471 37.9303C48.6028 37.5805 49.0127 37.4238 49.3626 37.5796C49.7119 37.7353 49.8695 38.1452 49.7133 38.4951C49.0862 39.9018 48.308 41.2485 47.3999 42.4967C47.264 42.6825 47.0528 42.7819 46.8388 42.7819ZM8.54499 34.688C8.22473 34.688 7.93728 34.4647 7.86795 34.1389C7.54723 32.6374 7.38363 31.0916 7.38086 29.5439C7.3804 29.1612 7.69003 28.8502 8.07314 28.8497H8.07407C8.45626 28.8497 8.76682 29.1594 8.76728 29.542C8.76959 30.9931 8.92348 32.4424 9.22387 33.8501C9.30382 34.2244 9.0649 34.5928 8.69056 34.6727C8.64158 34.6824 8.59305 34.688 8.54499 34.688ZM50.4629 34.6468C50.4153 34.6468 50.3673 34.6417 50.3187 34.6316C49.9439 34.5525 49.7045 34.1847 49.7836 33.8099C50.0812 32.4022 50.2318 30.9525 50.2318 29.5009V29.4182C50.2291 29.0351 50.5369 28.7227 50.9195 28.7194C51.3146 28.6991 51.615 29.0249 51.6183 29.4071V29.506C51.6183 31.0486 51.4574 32.5949 51.1399 34.0964C51.0716 34.4232 50.7836 34.6468 50.4629 34.6468ZM8.52928 25.7834C8.48214 25.7834 8.43454 25.7784 8.38648 25.7687C8.01168 25.6901 7.77137 25.3227 7.84993 24.9484C8.16604 23.4386 8.64296 21.9579 9.26778 20.5479C9.42306 20.1985 9.83205 20.04 10.1824 20.1948C10.5322 20.3501 10.6902 20.7595 10.5354 21.1094C9.94989 22.4306 9.50301 23.8175 9.20677 25.2321C9.13838 25.5588 8.85 25.7834 8.52928 25.7834ZM50.4435 25.6559C50.1242 25.6559 49.8367 25.4336 49.7665 25.1087C49.4619 23.696 49.0063 22.3119 48.4129 20.9948C48.2557 20.6458 48.411 20.235 48.7599 20.0779C49.1088 19.9207 49.5197 20.076 49.6768 20.4249C50.3104 21.8308 50.7961 23.3082 51.1215 24.8157C51.2023 25.1901 50.9643 25.5588 50.59 25.6397C50.541 25.6504 50.492 25.6559 50.4435 25.6559ZM12.134 17.6401C11.993 17.6401 11.8511 17.5971 11.7282 17.5084C11.4181 17.2838 11.3488 16.8503 11.5734 16.5402C12.4773 15.2919 13.5153 14.1343 14.6582 13.0991C14.9419 12.8417 15.3805 12.8639 15.6375 13.1476C15.8944 13.4314 15.8727 13.8695 15.5889 14.1269C14.5172 15.0974 13.544 16.183 12.6964 17.3536C12.5605 17.5407 12.3489 17.6401 12.134 17.6401ZM46.7903 17.537C46.5772 17.537 46.3665 17.4391 46.2311 17.2537C45.3766 16.0887 44.3969 15.0087 43.3192 14.0446C43.034 13.7895 43.0095 13.3514 43.2651 13.0658C43.5207 12.7807 43.9583 12.7562 44.2439 13.0118C45.3928 14.04 46.4377 15.1912 47.349 16.4339C47.5755 16.7426 47.5089 17.1766 47.2002 17.403C47.0759 17.4936 46.9326 17.537 46.7903 17.537ZM18.7366 11.6632C18.4976 11.6632 18.2656 11.5398 18.1367 11.3189C17.944 10.988 18.0563 10.5638 18.3872 10.3711C19.7218 9.59423 21.1406 8.95694 22.6042 8.47724C22.967 8.35847 23.3593 8.5558 23.479 8.91996C23.5983 9.28367 23.4 9.6751 23.0363 9.7948C21.6647 10.2445 20.3356 10.8415 19.085 11.5694C18.975 11.6327 18.8553 11.6632 18.7366 11.6632ZM40.1512 11.599C40.0343 11.599 39.9155 11.5694 39.8064 11.5066C38.5513 10.7861 37.2185 10.1969 35.8445 9.75551C35.4799 9.63859 35.2793 9.24808 35.3962 8.88346C35.5132 8.51883 35.9055 8.31918 36.2683 8.43518C37.7347 8.9061 39.1576 9.53461 40.4969 10.3036C40.8287 10.4945 40.9433 10.9178 40.7529 11.2501C40.6249 11.4742 40.3915 11.599 40.1512 11.599ZM27.196 8.88946C26.8462 8.88946 26.5458 8.62558 26.5074 8.26973C26.4668 7.88893 26.7427 7.54787 27.1235 7.50674C28.6476 7.34407 30.2161 7.33991 31.7426 7.49288C32.1234 7.53124 32.4011 7.87137 32.3627 8.25217C32.3244 8.63298 31.9861 8.90749 31.6035 8.87237C30.1717 8.72772 28.6998 8.73234 27.2704 8.8853C27.2455 8.88808 27.2205 8.88946 27.196 8.88946Z" fill="#33363A"/>
<path d="M27.3128 45.525C27.2804 45.525 27.2476 45.5227 27.2148 45.5181C25.6856 45.3018 24.1984 44.8678 22.7949 44.2278C22.4469 44.0688 22.293 43.658 22.452 43.3095C22.611 42.9615 23.0218 42.8072 23.3702 42.9666C24.6527 43.5512 26.0114 43.9482 27.4089 44.1455C27.7878 44.1991 28.0517 44.5499 27.9981 44.9288C27.9496 45.275 27.6524 45.525 27.3128 45.525ZM31.7165 45.5208C31.3773 45.5208 31.0811 45.2717 31.0311 44.9261C30.9766 44.5471 31.24 44.1959 31.619 44.1414C33.0156 43.9408 34.3733 43.5415 35.6548 42.9546C36.0024 42.7951 36.4141 42.9481 36.5736 43.2961C36.733 43.6441 36.5801 44.0554 36.2321 44.2148C34.8299 44.8572 33.3437 45.2939 31.8154 45.5134C31.7826 45.5185 31.7493 45.5208 31.7165 45.5208ZM19.375 41.9106C19.2142 41.9106 19.0529 41.8551 18.9222 41.7419C17.7543 40.7321 16.7381 39.5639 15.9016 38.2694C15.6936 37.9478 15.7861 37.5189 16.1077 37.3109C16.4284 37.103 16.8578 37.1949 17.0662 37.517C17.831 38.701 18.7609 39.7695 19.8289 40.6933C20.1186 40.9438 20.1501 41.3815 19.9 41.6712C19.7623 41.8297 19.5691 41.9106 19.375 41.9106ZM39.6473 41.8912C39.4536 41.8912 39.2605 41.8103 39.1237 41.6523C38.8727 41.363 38.9037 40.9253 39.1925 40.6744C40.2591 39.7487 41.1862 38.6784 41.9492 37.493C42.1562 37.1709 42.5851 37.0785 42.9072 37.285C43.2293 37.4921 43.3222 37.921 43.1152 38.2431C42.281 39.5394 41.2671 40.7095 40.1016 41.7216C39.9698 41.8353 39.8081 41.8912 39.6473 41.8912ZM14.6446 34.5834C14.3451 34.5834 14.0688 34.3879 13.98 34.0861C13.5452 32.6128 13.3233 31.0808 13.3206 29.5317C13.3201 29.1491 13.6297 28.8381 14.0128 28.8376H14.0138C14.396 28.8376 14.7065 29.1472 14.707 29.5299C14.7093 30.9468 14.9122 32.348 15.3096 33.6947C15.4182 34.0616 15.2084 34.447 14.841 34.5557C14.7754 34.5737 14.7097 34.5834 14.6446 34.5834ZM44.3634 34.5543C44.2987 34.5543 44.2335 34.545 44.1684 34.5261C43.801 34.4184 43.5902 34.0334 43.6979 33.666C44.0926 32.3189 44.2922 30.9177 44.2922 29.5003V29.4375C44.2922 29.0543 44.6023 28.7442 44.9855 28.7442C45.3686 28.7442 45.6787 29.0543 45.6787 29.4375V29.4929C45.6787 31.0499 45.4596 32.5823 45.0284 34.0556C44.9397 34.3579 44.6633 34.5543 44.3634 34.5543ZM14.6279 25.8614C14.5637 25.8614 14.499 25.8522 14.4343 25.8337C14.0665 25.7269 13.8553 25.3424 13.962 24.9746C14.3923 23.4948 15.0328 22.0848 15.8669 20.783C16.0735 20.4599 16.5019 20.3666 16.8245 20.5731C17.1471 20.7797 17.2409 21.2086 17.0343 21.5307C16.2722 22.7207 15.6862 24.0092 15.2934 25.3614C15.2056 25.6645 14.9288 25.8614 14.6279 25.8614ZM44.3454 25.7727C44.0464 25.7727 43.7705 25.5781 43.6808 25.2768C43.2797 23.9274 42.6863 22.6421 41.9168 21.4568C41.7084 21.1356 41.7999 20.7062 42.1211 20.4978C42.4418 20.2899 42.8716 20.3809 43.08 20.7021C43.9216 21.9989 44.5709 23.4047 45.0099 24.8817C45.119 25.2486 44.9101 25.6345 44.5427 25.7436C44.4771 25.763 44.4105 25.7727 44.3454 25.7727ZM19.3293 18.5143C19.1361 18.5143 18.9439 18.4339 18.8066 18.2768C18.5552 17.9879 18.5853 17.5503 18.8736 17.2984C20.0387 16.2826 21.3387 15.4411 22.7371 14.7969C23.0842 14.6365 23.4964 14.7885 23.6568 15.1365C23.8171 15.4841 23.6651 15.8958 23.3171 16.0562C22.0384 16.645 20.8502 17.4149 19.7845 18.3438C19.6533 18.4579 19.4906 18.5143 19.3293 18.5143ZM39.5997 18.4538C39.4393 18.4538 39.2785 18.3983 39.1472 18.2856C38.0769 17.3631 36.8837 16.6006 35.6008 16.0192C35.2523 15.8612 35.098 15.4503 35.2556 15.1014C35.4136 14.753 35.824 14.5986 36.1734 14.7562C37.5764 15.3926 38.881 16.2263 40.0521 17.2351C40.3419 17.4851 40.3747 17.9228 40.1247 18.2125C39.9883 18.372 39.7947 18.4538 39.5997 18.4538ZM27.2499 14.868C26.9112 14.868 26.6149 14.6194 26.565 14.2746C26.51 13.8957 26.7725 13.544 27.1515 13.489C28.6641 13.2686 30.2381 13.2644 31.7521 13.4751C32.131 13.5278 32.3958 13.8781 32.3432 14.2575C32.2905 14.6365 31.942 14.8999 31.5607 14.8486C30.1757 14.6554 28.7348 14.6601 27.3511 14.8611C27.3165 14.8657 27.2832 14.868 27.2499 14.868Z" fill="#33363A"/>
<path d="M33.9142 24.5086L13.9914 12.0604C13.4377 11.7147 12.7195 11.797 12.2574 12.2582C11.7967 12.719 11.7139 13.4381 12.0605 13.9917L24.5078 33.9141C24.7643 34.324 25.2135 34.5726 25.6974 34.5726L33.1711 34.5717C33.5574 34.5717 33.9087 34.4155 34.1624 34.1618C34.4161 33.9081 34.5723 33.5569 34.5723 33.1705L34.5732 25.6968C34.5723 25.2134 34.3237 24.7646 33.9142 24.5086Z" fill="#D60909"/>
<path d="M12.061 13.9923L24.5082 33.9147C24.7647 34.3246 25.2139 34.5732 25.6978 34.5732L33.1715 34.5723C33.5578 34.5723 33.9091 34.4161 34.1628 34.1624L12.2574 12.2588C11.7966 12.7195 11.7143 13.4386 12.061 13.9923Z" fill="#ED5564"/>
<path d="M24.8174 34.2709C24.8969 34.3541 24.9861 34.428 25.0854 34.4913L45.0078 46.9395C45.5619 47.2857 46.2796 47.2029 46.7418 46.7417C47.203 46.2805 47.2852 45.5619 46.9386 45.0082L34.4909 25.0854C34.4285 24.9856 34.3546 24.8964 34.2705 24.8169L24.8174 34.2709Z" fill="#AAC8D1"/>
<path d="M29.5437 29.5437L46.7422 46.7413C47.2034 46.2801 47.2857 45.5614 46.9391 45.0078L34.4909 25.0854C34.4285 24.9856 34.3546 24.8964 34.2705 24.8169L29.5437 29.5437Z" fill="#D8E5EA"/>
<path d="M45.7519 47.8476C45.3701 47.8476 44.9852 47.7422 44.6409 47.5273L24.718 35.0791C24.3932 34.8762 24.2947 34.4488 24.4976 34.1239C24.7 33.7995 25.1284 33.7001 25.4528 33.9034L45.3752 46.3516C45.6567 46.5272 46.0171 46.4857 46.2519 46.2514C46.4857 46.0175 46.5269 45.657 46.3508 45.3761L33.9026 25.4532C33.6997 25.1283 33.7982 24.7008 34.123 24.498C34.4475 24.2951 34.8754 24.394 35.0783 24.7184L47.5265 44.6408C48.0469 45.4722 47.9258 46.5379 47.2321 47.2316C46.8254 47.6378 46.2916 47.8476 45.7519 47.8476Z" fill="#33363A"/>
<path d="M24.5088 34.6075C24.2777 34.6075 24.0517 34.4919 23.9205 34.2817L11.4732 14.3593C10.9528 13.5279 11.0739 12.4622 11.7676 11.7685C12.4617 11.0753 13.527 10.9542 14.3588 11.4727L34.2817 23.9209C34.6065 24.1238 34.705 24.5513 34.5021 24.8762C34.2992 25.2006 33.8717 25.3 33.5469 25.0966L13.624 12.6484C13.343 12.4733 12.9826 12.5144 12.7473 12.7487C12.5135 12.9826 12.4724 13.343 12.6484 13.624L25.0957 33.5469C25.2986 33.8717 25.2002 34.2992 24.8753 34.5021C24.7611 34.5737 24.634 34.6075 24.5088 34.6075Z" fill="#33363A"/>
<path d="M24.6063 35.086C24.4288 35.086 24.2514 35.0185 24.116 34.8831C23.8451 34.6123 23.8451 34.1733 24.116 33.9029L33.9031 24.1162C34.174 23.8454 34.6125 23.8454 34.8833 24.1162C35.1542 24.387 35.1542 24.826 34.8833 25.0964L25.0966 34.8831C24.9612 35.0185 24.7837 35.086 24.6063 35.086Z" fill="#33363A"/>
<path d="M29.4994 33.5798C31.7531 33.5798 33.5801 31.7529 33.5801 29.4992C33.5801 27.2454 31.7531 25.4185 29.4994 25.4185C27.2457 25.4185 25.4187 27.2454 25.4187 29.4992C25.4187 31.7529 27.2457 33.5798 29.4994 33.5798Z" fill="white"/>
<path d="M25.4197 29.5001C25.4197 27.2472 27.2465 25.4189 29.4994 25.4189C31.7524 25.4189 33.5792 27.2472 33.5792 29.5001" fill="#D8E5EA"/>
<path d="M29.4995 34.2729C26.8677 34.2729 24.7266 32.1318 24.7266 29.5C24.7266 26.8671 26.8677 24.7256 29.4995 24.7256C32.1314 24.7256 34.2725 26.8671 34.2725 29.5C34.2725 32.1314 32.1314 34.2729 29.4995 34.2729ZM29.4995 26.1115C27.632 26.1115 26.113 27.6315 26.113 29.4995C26.113 31.367 27.6325 32.8861 29.4995 32.8861C31.3666 32.8861 32.8861 31.3665 32.8861 29.4995C32.8861 27.6315 31.367 26.1115 29.4995 26.1115Z" fill="#33363A"/>
</svg>