<svg width="684" height="86" viewBox="0 0 684 86" fill="none" xmlns="http://www.w3.org/2000/svg">
<g filter="url(#filter0_d_129_127)">
<mask id="path-1-outside-1_129_127" maskUnits="userSpaceOnUse" x="3.59204" y="-0.42395" width="677" height="78" fill="black">
<rect fill="white" x="3.59204" y="-0.42395" width="677" height="78"/>
<path d="M20.912 57.8641C18.656 57.8641 16.592 57.6481 14.72 57.2161C12.848 56.8321 11.288 56.4001 10.04 55.9201C8.79204 55.4401 8.16804 55.1761 8.16804 55.1281L7.59204 54.1201C7.64004 53.7841 7.73604 53.0641 7.88004 51.9601C8.07204 50.8081 8.26404 49.2721 8.45604 47.3521C8.64804 45.4321 8.74404 43.6081 8.74404 41.8801L14.792 41.3761C14.792 44.0641 15.032 46.1281 15.512 47.5681C15.992 49.0081 16.784 50.0161 17.888 50.5921C19.04 51.1681 20.648 51.4561 22.712 51.4561C24.968 51.4561 26.768 50.9521 28.112 49.9441C29.504 48.9361 30.2 47.5921 30.2 45.9121C30.2 44.8081 29.816 43.8241 29.048 42.9601C28.28 42.0961 27.344 41.3521 26.24 40.7281C25.136 40.0561 23.528 39.1921 21.416 38.1361L19.544 37.2721C15.992 35.5441 13.208 33.7201 11.192 31.8001C9.17604 29.8801 8.16804 27.3841 8.16804 24.3121C8.16804 21.5281 8.98404 19.0561 10.616 16.896C12.248 14.688 14.528 12.9841 17.456 11.7841C20.384 10.5361 23.72 9.91205 27.464 9.91205C29.576 9.91205 31.544 10.0561 33.368 10.3441C35.192 10.6321 36.632 10.9441 37.688 11.28C38.792 11.5681 39.488 11.7601 39.776 11.8561L40.28 12.7921C40.136 13.4641 39.848 15.0241 39.416 17.4721C39.032 19.8721 38.744 22.4401 38.552 25.1761L33.08 25.6081L32.432 25.1041C32.432 24.9601 32.432 24.6721 32.432 24.2401C32.48 23.7601 32.504 23.2081 32.504 22.5841C32.504 20.4721 31.976 18.9841 30.92 18.1201C29.864 17.2081 28.088 16.7521 25.592 16.7521C23.576 16.7521 21.92 17.2321 20.624 18.1921C19.328 19.1521 18.68 20.376 18.68 21.864C18.68 23.4961 19.448 24.8881 20.984 26.0401C22.52 27.1441 24.896 28.4401 28.112 29.9281C30.8 31.2241 33.008 32.4001 34.736 33.4561C36.464 34.5121 37.928 35.8801 39.128 37.5601C40.328 39.1921 40.928 41.1121 40.928 43.3201C40.928 46.2001 40.088 48.7441 38.408 50.9521C36.776 53.1601 34.448 54.8641 31.424 56.0641C28.4 57.2641 24.896 57.8641 20.912 57.8641Z"/>
<path d="M66.0757 53.0401C67.2277 52.7521 68.0437 52.3201 68.5237 51.7441C69.0517 51.1201 69.3397 50.2081 69.3877 49.0081L69.6037 36.6961C69.6037 32.5201 68.0677 30.4321 64.9957 30.4321C63.3637 30.4321 61.2997 31.3201 58.8037 33.0961C58.3237 41.8321 58.0837 47.2081 58.0837 49.2241C58.0837 50.4721 58.2277 51.3361 58.5157 51.8161C58.8517 52.2481 59.4277 52.4641 60.2437 52.4641C60.5797 52.4641 60.9397 52.4401 61.3237 52.3921C61.7077 52.3441 61.9717 52.3201 62.1157 52.3201L62.2597 52.6801L61.5397 57.2161C61.0117 57.1681 60.0037 57.1201 58.5157 57.0721C57.0277 57.0241 55.4917 57.0001 53.9077 57.0001C52.3717 57.0001 50.6677 57.0481 48.7957 57.1441C46.9717 57.2881 45.7957 57.3841 45.2677 57.4321L45.9157 52.8241C47.3077 52.6801 48.2677 52.3201 48.7957 51.7441C49.3717 51.1681 49.6597 50.2081 49.6597 48.8641V33.7441C49.6597 32.0641 49.3957 30.9361 48.8677 30.3601C48.3877 29.7361 47.4757 29.4241 46.1317 29.4241H45.1957L44.9077 29.0641L45.2677 25.2481C48.0517 24.8161 50.7877 24.3601 53.4757 23.8801C56.2117 23.3521 57.9637 23.0161 58.7317 22.8721L59.3077 23.5921C59.2117 23.8801 59.0677 24.5281 58.8757 25.5361C58.6837 26.5441 58.5637 27.5521 58.5157 28.5601L58.8037 28.8481C60.3877 27.4561 62.1157 26.1121 63.9877 24.8161C65.8597 23.5201 67.2277 22.8721 68.0917 22.8721C71.4997 22.8721 74.1637 23.7121 76.0837 25.3921C78.0037 27.0241 78.9637 29.3041 78.9637 32.2321C78.9637 33.0001 78.7717 35.5441 78.3877 39.8641C77.9077 44.6641 77.6677 47.7601 77.6677 49.1521C77.6677 50.4001 77.8357 51.2881 78.1717 51.8161C78.5077 52.2961 79.0837 52.5361 79.8997 52.5361L82.0597 52.4641L82.2037 52.7521L81.5557 57.2161C80.9797 57.1681 79.9237 57.1201 78.3877 57.0721C76.8517 57.0241 75.2917 57.0001 73.7077 57.0001C72.5557 57.0001 71.0677 57.0721 69.2437 57.2161C67.4197 57.4081 66.2197 57.5281 65.6437 57.5761L66.0757 53.0401Z"/>
<path d="M104.33 36.1921C104.33 34.1281 103.778 32.5441 102.674 31.4401C101.618 30.2881 100.13 29.7121 98.2102 29.7121C97.0102 29.7121 95.5942 30.0481 93.9622 30.7201C92.3782 31.3441 90.9622 32.1361 89.7142 33.0961L89.1382 32.7361L87.7702 28.4161C90.6022 26.8321 93.2902 25.5121 95.8342 24.4561C98.3782 23.4001 100.13 22.8721 101.09 22.8721C104.882 22.8721 107.834 23.736 109.946 25.4641C112.106 27.1921 113.186 29.6161 113.186 32.7361C113.186 33.7441 112.97 35.9281 112.538 39.2881C112.01 43.9441 111.746 46.6801 111.746 47.4961C111.746 48.4081 111.962 49.1281 112.394 49.6561C112.874 50.1361 113.498 50.3761 114.266 50.3761C115.274 50.3761 116.426 49.9681 117.722 49.1521L118.802 50.6641C117.842 52.4401 116.69 54.0241 115.346 55.4161C114.05 56.7601 112.874 57.5761 111.818 57.8641C109.658 57.8641 107.954 57.4081 106.706 56.4961C105.506 55.5361 104.786 54.1441 104.546 52.3201L104.042 52.1041C102.362 53.7841 100.802 55.1281 99.3622 56.1361C97.9222 57.0961 96.8182 57.5761 96.0502 57.5761C94.2262 57.5761 92.5462 57.1201 91.0102 56.2081C89.5222 55.2961 88.3462 54.0481 87.4822 52.4641C86.6182 50.8321 86.1862 49.0321 86.1862 47.0641C86.1862 45.5281 86.5702 44.2321 87.3382 43.1761C88.1062 42.0721 89.1142 41.3761 90.3622 41.0881L104.258 37.8481L104.33 36.1921ZM96.5542 43.8961C95.4022 44.2321 94.8262 45.0001 94.8262 46.2001C94.8262 47.5921 95.1862 48.6721 95.9062 49.4401C96.6742 50.2081 97.7302 50.5921 99.0742 50.5921C99.7462 50.5921 100.514 50.4241 101.378 50.0881C102.242 49.7041 103.082 49.2001 103.898 48.5761L104.042 41.8081L96.5542 43.8961Z"/>
<path d="M121.359 69.5281C122.703 69.3841 123.591 69.0241 124.023 68.4481C124.455 67.8721 124.671 66.7441 124.671 65.0641L125.031 54.0481V33.7441C125.031 32.0641 124.767 30.9361 124.239 30.3601C123.759 29.7361 122.847 29.4241 121.503 29.4241H120.567L120.279 29.0641L120.639 25.2481C123.375 24.8161 126.087 24.3601 128.775 23.8801C131.463 23.3521 133.191 23.0161 133.959 22.8721L134.607 23.5921C134.559 23.8801 134.439 24.504 134.247 25.4641C134.055 26.376 133.911 27.2641 133.815 28.1281L134.103 28.4881C135.927 26.8081 137.463 25.5121 138.711 24.6001C140.007 23.6401 140.871 23.1601 141.303 23.1601C144.135 23.1601 146.631 23.8321 148.791 25.1761C150.951 26.4721 152.607 28.3201 153.759 30.7201C154.959 33.1201 155.559 35.8801 155.559 39.0001C155.559 42.6961 154.743 45.9601 153.111 48.7921C151.479 51.6241 149.223 53.8321 146.343 55.4161C143.463 56.9521 140.175 57.7201 136.479 57.7201C135.855 57.7201 135.231 57.6961 134.607 57.6481C134.031 57.6001 133.647 57.5521 133.455 57.5041V64.1281C133.455 66.0961 133.599 67.4161 133.887 68.0881C134.223 68.7601 134.943 69.0961 136.047 69.0961C136.767 69.0961 137.367 69.0721 137.847 69.0241C138.375 68.9761 138.759 68.9521 138.999 68.9521L139.143 69.2401L138.351 73.7041C137.343 73.7041 136.431 73.68 135.615 73.632L129.567 73.5601C127.887 73.5601 126.135 73.6081 124.311 73.7041C122.487 73.8481 121.311 73.9441 120.783 73.9921L121.359 69.5281ZM133.671 50.7361C135.543 51.4081 137.319 51.7441 138.999 51.7441C141.255 51.7441 143.007 50.8801 144.255 49.1521C145.551 47.3761 146.199 44.9041 146.199 41.7361C146.199 38.2321 145.551 35.4721 144.255 33.4561C143.007 31.3921 141.303 30.3601 139.143 30.3601C138.471 30.3601 137.679 30.5521 136.767 30.9361C135.855 31.3201 134.967 31.8241 134.103 32.4481C133.815 39.9361 133.671 46.0321 133.671 50.7361Z"/>
<path d="M158.292 49.2241C160.452 47.5921 162.348 46.7761 163.98 46.7761C165.42 46.7761 166.572 47.3521 167.436 48.5041C168.348 49.6561 168.804 51.2161 168.804 53.1841C168.804 55.6801 167.748 58.1761 165.636 60.6721C163.524 63.1681 160.908 65.3041 157.788 67.0801L155.124 64.9201V63.6961C156.66 62.6401 157.908 61.3681 158.868 59.8801C159.828 58.3921 160.308 56.9281 160.308 55.4881C160.308 54.5761 160.092 53.6401 159.66 52.6801C159.228 51.7201 158.7 50.9041 158.076 50.2321L158.292 49.2241Z"/>
<path d="M196.131 57.8641C193.875 57.8641 191.811 57.6481 189.939 57.2161C188.067 56.8321 186.507 56.4001 185.259 55.9201C184.011 55.4401 183.387 55.1761 183.387 55.1281L182.811 54.1201C182.859 53.7841 182.955 53.0641 183.099 51.9601C183.291 50.8081 183.483 49.2721 183.675 47.3521C183.867 45.4321 183.963 43.6081 183.963 41.8801L190.011 41.3761C190.011 44.0641 190.251 46.1281 190.731 47.5681C191.211 49.0081 192.003 50.0161 193.107 50.5921C194.259 51.1681 195.867 51.4561 197.931 51.4561C200.187 51.4561 201.987 50.9521 203.331 49.9441C204.723 48.9361 205.419 47.5921 205.419 45.9121C205.419 44.8081 205.035 43.8241 204.267 42.9601C203.499 42.0961 202.563 41.3521 201.459 40.7281C200.355 40.0561 198.747 39.1921 196.635 38.1361L194.763 37.2721C191.211 35.5441 188.427 33.7201 186.411 31.8001C184.395 29.8801 183.387 27.3841 183.387 24.3121C183.387 21.5281 184.203 19.0561 185.835 16.896C187.467 14.688 189.747 12.9841 192.675 11.7841C195.603 10.5361 198.939 9.91205 202.683 9.91205C204.795 9.91205 206.763 10.0561 208.587 10.3441C210.411 10.6321 211.851 10.9441 212.907 11.28C214.011 11.5681 214.707 11.7601 214.995 11.8561L215.499 12.7921C215.355 13.4641 215.067 15.0241 214.635 17.4721C214.251 19.8721 213.963 22.4401 213.771 25.1761L208.299 25.6081L207.651 25.1041C207.651 24.9601 207.651 24.6721 207.651 24.2401C207.699 23.7601 207.723 23.2081 207.723 22.5841C207.723 20.4721 207.195 18.9841 206.139 18.1201C205.083 17.2081 203.307 16.7521 200.811 16.7521C198.795 16.7521 197.139 17.2321 195.843 18.1921C194.547 19.1521 193.899 20.376 193.899 21.864C193.899 23.4961 194.667 24.8881 196.203 26.0401C197.739 27.1441 200.115 28.4401 203.331 29.9281C206.019 31.2241 208.227 32.4001 209.955 33.4561C211.683 34.5121 213.147 35.8801 214.347 37.5601C215.547 39.1921 216.147 41.1121 216.147 43.3201C216.147 46.2001 215.307 48.7441 213.627 50.9521C211.995 53.1601 209.667 54.8641 206.643 56.0641C203.619 57.2641 200.115 57.8641 196.131 57.8641Z"/>
<path d="M220.83 52.7521C222.126 52.6081 223.014 52.2721 223.494 51.7441C224.022 51.1681 224.286 50.2081 224.286 48.8641V14.0161C224.286 12.5281 224.07 11.4961 223.638 10.92C223.206 10.3441 222.39 10.0561 221.19 10.0561H219.534L219.246 9.69605L219.678 5.88005C222.414 5.54405 225.342 5.11205 228.462 4.58405C231.582 4.05605 233.598 3.72005 234.51 3.57605L235.014 4.94405C234.534 5.52005 234.126 7.94405 233.79 12.2161C233.454 16.488 233.19 22.128 232.998 29.1361C234.438 27.7921 236.142 26.4241 238.11 25.0321C240.126 23.5921 241.59 22.8721 242.502 22.8721C246.006 22.8721 248.694 23.6881 250.566 25.3201C252.438 26.9041 253.374 29.2081 253.374 32.2321C253.374 33.4321 253.158 35.9761 252.726 39.8641C252.246 44.6641 252.006 47.7601 252.006 49.1521C252.006 50.3521 252.174 51.2161 252.51 51.7441C252.894 52.2721 253.494 52.5361 254.31 52.5361L256.47 52.4641L256.614 52.7521L255.894 57.2161C255.318 57.1681 254.262 57.1201 252.726 57.0721C251.238 57.0241 249.702 57.0001 248.118 57.0001C246.966 57.0001 245.478 57.0721 243.654 57.2161C241.83 57.4081 240.63 57.5281 240.054 57.5761L240.414 53.0401C241.614 52.7521 242.454 52.3201 242.934 51.7441C243.462 51.1201 243.726 50.2081 243.726 49.0081L244.014 36.6961C244.062 32.5201 242.55 30.4321 239.478 30.4321C237.606 30.4321 235.422 31.4161 232.926 33.3841C232.83 36.6961 232.782 42.0001 232.782 49.2961C232.782 50.4961 232.926 51.3361 233.214 51.8161C233.55 52.2961 234.102 52.5361 234.87 52.5361C235.254 52.5361 235.614 52.5121 235.95 52.4641C236.334 52.4161 236.574 52.3921 236.67 52.3921L236.886 52.8241L236.166 57.2161C235.638 57.1681 234.606 57.1201 233.07 57.0721C231.534 57.0241 229.95 57.0001 228.318 57.0001C226.446 57.0001 224.742 57.0241 223.206 57.0721C221.718 57.1201 220.734 57.1681 220.254 57.2161L220.83 52.7521Z"/>
<path d="M278.354 36.1921C278.354 34.1281 277.802 32.5441 276.698 31.4401C275.642 30.2881 274.154 29.7121 272.234 29.7121C271.034 29.7121 269.618 30.0481 267.986 30.7201C266.402 31.3441 264.986 32.1361 263.738 33.0961L263.162 32.7361L261.794 28.4161C264.626 26.8321 267.314 25.5121 269.858 24.4561C272.402 23.4001 274.154 22.8721 275.114 22.8721C278.906 22.8721 281.858 23.736 283.97 25.4641C286.13 27.1921 287.21 29.6161 287.21 32.7361C287.21 33.7441 286.994 35.9281 286.562 39.2881C286.034 43.9441 285.77 46.6801 285.77 47.4961C285.77 48.4081 285.986 49.1281 286.418 49.6561C286.898 50.1361 287.522 50.3761 288.29 50.3761C289.298 50.3761 290.45 49.9681 291.746 49.1521L292.826 50.6641C291.866 52.4401 290.714 54.0241 289.37 55.4161C288.074 56.7601 286.898 57.5761 285.842 57.8641C283.682 57.8641 281.978 57.4081 280.73 56.4961C279.53 55.5361 278.81 54.1441 278.57 52.3201L278.066 52.1041C276.386 53.7841 274.826 55.1281 273.386 56.1361C271.946 57.0961 270.842 57.5761 270.074 57.5761C268.25 57.5761 266.57 57.1201 265.034 56.2081C263.546 55.2961 262.37 54.0481 261.506 52.4641C260.642 50.8321 260.21 49.0321 260.21 47.0641C260.21 45.5281 260.594 44.2321 261.362 43.1761C262.13 42.0721 263.138 41.3761 264.386 41.0881L278.282 37.8481L278.354 36.1921ZM270.578 43.8961C269.426 44.2321 268.85 45.0001 268.85 46.2001C268.85 47.5921 269.21 48.6721 269.93 49.4401C270.698 50.2081 271.754 50.5921 273.098 50.5921C273.77 50.5921 274.538 50.4241 275.402 50.0881C276.266 49.7041 277.106 49.2001 277.922 48.5761L278.066 41.8081L270.578 43.8961Z"/>
<path d="M295.815 52.8241C297.207 52.7281 298.143 52.3441 298.623 51.6721C299.151 51.0001 299.415 49.7521 299.415 47.9281V33.6721C299.415 31.9921 299.199 30.8641 298.767 30.2881C298.383 29.7121 297.591 29.4241 296.391 29.4241L295.023 29.4961L294.663 28.9921L295.023 25.2481C297.663 24.8641 300.327 24.4081 303.015 23.8801C305.751 23.3521 307.503 23.0161 308.271 22.8721L308.919 23.5201C308.823 23.9041 308.679 24.7921 308.487 26.1841C308.343 27.5761 308.247 28.9201 308.199 30.2161L308.631 30.5041C310.119 28.2961 311.751 26.5681 313.527 25.3201C315.351 24.0241 317.079 23.3761 318.711 23.3761C319.287 23.3761 319.815 23.4241 320.295 23.5201C320.775 23.5681 321.087 23.6161 321.231 23.6641L321.519 24.2401C321.375 25.0561 321.135 26.8561 320.799 29.6401C320.463 32.3761 320.223 34.9681 320.079 37.4161L315.327 37.7041C315.327 35.4001 315.183 33.8881 314.895 33.1681C314.655 32.4001 314.127 32.0161 313.311 32.0161C312.543 32.0161 311.727 32.3041 310.863 32.8801C310.047 33.4081 309.279 34.1521 308.559 35.1121C308.463 36.4081 308.319 38.5921 308.127 41.6641C307.983 44.6881 307.887 47.1121 307.839 48.9361C307.839 50.1841 308.031 51.0481 308.415 51.5281C308.847 52.0081 309.591 52.2481 310.647 52.2481C311.415 52.2481 312.159 52.2241 312.879 52.1761C313.599 52.0801 314.079 52.0081 314.319 51.9601L314.535 52.3921L313.743 57.2881C313.071 57.2401 311.799 57.1681 309.927 57.0721C308.103 57.0241 306.231 57.0001 304.311 57.0001C302.487 57.0001 300.639 57.0241 298.767 57.0721C296.943 57.1681 295.767 57.2401 295.239 57.2881L295.815 52.8241Z"/>
<path d="M332.918 40.8001C333.062 43.9681 333.902 46.4401 335.438 48.2161C337.022 49.9441 339.158 50.8081 341.846 50.8081C343.19 50.8081 344.51 50.6641 345.806 50.3761C347.102 50.0401 348.158 49.7041 348.974 49.3681C349.79 48.9841 350.318 48.7441 350.558 48.6481L351.062 48.8641L352.286 52.5361C352.286 52.5841 351.518 53.0881 349.982 54.0481C348.494 55.0081 346.814 55.8961 344.942 56.7121C343.118 57.4801 341.438 57.8641 339.902 57.8641C334.814 57.8641 330.806 56.3761 327.878 53.4001C324.998 50.4241 323.558 46.3681 323.558 41.2321C323.558 37.7761 324.302 34.6561 325.79 31.8721C327.278 29.0881 329.318 26.9041 331.91 25.3201C334.502 23.6881 337.406 22.8721 340.622 22.8721C348.734 22.8721 352.79 27.0001 352.79 35.2561C352.79 36.1201 352.718 36.9601 352.574 37.7761C352.43 38.5921 352.334 39.1201 352.286 39.3601L351.422 40.1521H332.918V40.8001ZM342.566 35.6161C343.094 35.5201 343.454 35.3761 343.646 35.1841C343.838 34.9921 343.934 34.5841 343.934 33.9601C343.934 30.4081 342.422 28.6321 339.398 28.6321C337.526 28.6321 336.014 29.2801 334.862 30.5761C333.758 31.8241 333.11 33.6721 332.918 36.1201L342.566 35.6161Z"/>
<path d="M356.995 49.2241C359.155 47.5921 361.051 46.7761 362.683 46.7761C364.123 46.7761 365.275 47.3521 366.139 48.5041C367.051 49.6561 367.507 51.2161 367.507 53.1841C367.507 55.6801 366.451 58.1761 364.339 60.6721C362.227 63.1681 359.611 65.3041 356.491 67.0801L353.827 64.9201V63.6961C355.363 62.6401 356.611 61.3681 357.571 59.8801C358.531 58.3921 359.011 56.9281 359.011 55.4881C359.011 54.5761 358.795 53.6401 358.363 52.6801C357.931 51.7201 357.403 50.9041 356.779 50.2321L356.995 49.2241Z"/>
<path d="M399.01 36.1921C399.01 34.1281 398.458 32.5441 397.354 31.4401C396.298 30.2881 394.81 29.7121 392.89 29.7121C391.69 29.7121 390.274 30.0481 388.642 30.7201C387.058 31.3441 385.642 32.1361 384.394 33.0961L383.818 32.7361L382.45 28.4161C385.282 26.8321 387.97 25.5121 390.514 24.4561C393.058 23.4001 394.81 22.8721 395.77 22.8721C399.562 22.8721 402.514 23.736 404.626 25.4641C406.786 27.1921 407.866 29.6161 407.866 32.7361C407.866 33.7441 407.65 35.9281 407.218 39.2881C406.69 43.9441 406.426 46.6801 406.426 47.4961C406.426 48.4081 406.642 49.1281 407.074 49.6561C407.554 50.1361 408.178 50.3761 408.946 50.3761C409.954 50.3761 411.106 49.9681 412.402 49.1521L413.482 50.6641C412.522 52.4401 411.37 54.0241 410.026 55.4161C408.73 56.7601 407.554 57.5761 406.498 57.8641C404.338 57.8641 402.634 57.4081 401.386 56.4961C400.186 55.5361 399.466 54.1441 399.226 52.3201L398.722 52.1041C397.042 53.7841 395.482 55.1281 394.042 56.1361C392.602 57.0961 391.498 57.5761 390.73 57.5761C388.906 57.5761 387.226 57.1201 385.69 56.2081C384.202 55.2961 383.026 54.0481 382.162 52.4641C381.298 50.8321 380.866 49.0321 380.866 47.0641C380.866 45.5281 381.25 44.2321 382.018 43.1761C382.786 42.0721 383.794 41.3761 385.042 41.0881L398.938 37.8481L399.01 36.1921ZM391.234 43.8961C390.082 44.2321 389.506 45.0001 389.506 46.2001C389.506 47.5921 389.866 48.6721 390.586 49.4401C391.354 50.2081 392.41 50.5921 393.754 50.5921C394.426 50.5921 395.194 50.4241 396.058 50.0881C396.922 49.7041 397.762 49.2001 398.578 48.5761L398.722 41.8081L391.234 43.8961Z"/>
<path d="M436.271 53.0401C437.423 52.7521 438.239 52.3201 438.719 51.7441C439.247 51.1201 439.535 50.2081 439.583 49.0081L439.799 36.6961C439.799 32.5201 438.263 30.4321 435.191 30.4321C433.559 30.4321 431.495 31.3201 428.999 33.0961C428.519 41.8321 428.279 47.2081 428.279 49.2241C428.279 50.4721 428.423 51.3361 428.711 51.8161C429.047 52.2481 429.623 52.4641 430.439 52.4641C430.775 52.4641 431.135 52.4401 431.519 52.3921C431.903 52.3441 432.167 52.3201 432.311 52.3201L432.455 52.6801L431.735 57.2161C431.207 57.1681 430.199 57.1201 428.711 57.0721C427.223 57.0241 425.687 57.0001 424.103 57.0001C422.567 57.0001 420.863 57.0481 418.991 57.1441C417.167 57.2881 415.991 57.3841 415.463 57.4321L416.111 52.8241C417.503 52.6801 418.463 52.3201 418.991 51.7441C419.567 51.1681 419.855 50.2081 419.855 48.8641V33.7441C419.855 32.0641 419.591 30.9361 419.063 30.3601C418.583 29.7361 417.671 29.4241 416.327 29.4241H415.391L415.103 29.0641L415.463 25.2481C418.247 24.8161 420.983 24.3601 423.671 23.8801C426.407 23.3521 428.159 23.0161 428.927 22.8721L429.503 23.5921C429.407 23.8801 429.263 24.5281 429.071 25.5361C428.879 26.5441 428.759 27.5521 428.711 28.5601L428.999 28.8481C430.583 27.4561 432.311 26.1121 434.183 24.8161C436.055 23.5201 437.423 22.8721 438.287 22.8721C441.695 22.8721 444.359 23.7121 446.279 25.3921C448.199 27.0241 449.159 29.3041 449.159 32.2321C449.159 33.0001 448.967 35.5441 448.583 39.8641C448.103 44.6641 447.863 47.7601 447.863 49.1521C447.863 50.4001 448.031 51.2881 448.367 51.8161C448.703 52.2961 449.279 52.5361 450.095 52.5361L452.255 52.4641L452.399 52.7521L451.751 57.2161C451.175 57.1681 450.119 57.1201 448.583 57.0721C447.047 57.0241 445.487 57.0001 443.903 57.0001C442.751 57.0001 441.263 57.0721 439.439 57.2161C437.615 57.4081 436.415 57.5281 435.839 57.5761L436.271 53.0401Z"/>
<path d="M478.27 52.5361C473.614 55.8961 470.83 57.5761 469.918 57.5761C465.694 57.5761 462.358 56.1601 459.91 53.3281C457.462 50.4961 456.238 46.6561 456.238 41.8081C456.238 38.2081 457.006 34.9921 458.542 32.1601C460.126 29.3281 462.286 27.1201 465.022 25.5361C467.758 23.9041 470.878 23.0881 474.382 23.0881C475.966 23.0881 477.19 23.1361 478.054 23.2321V14.1601C478.054 12.6721 477.814 11.6401 477.334 11.0641C476.902 10.4401 476.11 10.1281 474.958 10.1281C474.574 10.1281 474.214 10.1521 473.878 10.2001C473.542 10.248 473.326 10.2961 473.23 10.3441L473.734 5.95205C476.566 5.56805 479.446 5.13605 482.374 4.65605C485.35 4.12805 487.27 3.76805 488.134 3.57605L488.782 4.80005C488.158 5.71205 487.63 10.3681 487.198 18.7681C486.766 27.1681 486.55 36.7201 486.55 47.4241C486.55 48.3361 486.742 49.0561 487.126 49.5841C487.558 50.1121 488.11 50.3761 488.782 50.3761C489.31 50.3761 489.814 50.2801 490.294 50.0881C490.774 49.8961 491.158 49.7041 491.446 49.5121C491.782 49.3201 491.998 49.2001 492.094 49.1521L493.174 50.6641C493.03 50.9521 492.622 51.6001 491.95 52.6081C491.278 53.5681 490.414 54.6001 489.358 55.7041C488.302 56.7601 487.174 57.4801 485.974 57.8641C481.702 57.8641 479.302 56.1361 478.774 52.6801L478.27 52.5361ZM478.054 30.3601C477.958 30.3121 477.67 30.1921 477.19 30.0001C476.758 29.8081 476.158 29.6161 475.39 29.4241C474.622 29.2321 473.782 29.1361 472.87 29.1361C470.614 29.1361 468.838 30.0241 467.542 31.8001C466.294 33.5281 465.67 35.9761 465.67 39.1441C465.67 42.6961 466.294 45.5281 467.542 47.6401C468.838 49.7521 470.542 50.8081 472.654 50.8081C473.422 50.8081 474.214 50.6401 475.03 50.3041C475.846 49.9201 476.518 49.5601 477.046 49.2241C477.574 48.8401 477.91 48.5761 478.054 48.4321V30.3601Z"/>
<path d="M521.537 57.8641C519.281 57.8641 517.217 57.6481 515.345 57.2161C513.473 56.8321 511.913 56.4001 510.665 55.9201C509.417 55.4401 508.793 55.1761 508.793 55.1281L508.217 54.1201C508.265 53.7841 508.361 53.0641 508.505 51.9601C508.697 50.8081 508.889 49.2721 509.081 47.3521C509.273 45.4321 509.369 43.6081 509.369 41.8801L515.417 41.3761C515.417 44.0641 515.657 46.1281 516.137 47.5681C516.617 49.0081 517.409 50.0161 518.513 50.5921C519.665 51.1681 521.273 51.4561 523.337 51.4561C525.593 51.4561 527.393 50.9521 528.737 49.9441C530.129 48.9361 530.825 47.5921 530.825 45.9121C530.825 44.8081 530.441 43.8241 529.673 42.9601C528.905 42.0961 527.969 41.3521 526.865 40.7281C525.761 40.0561 524.153 39.1921 522.041 38.1361L520.169 37.2721C516.617 35.5441 513.833 33.7201 511.817 31.8001C509.801 29.8801 508.793 27.3841 508.793 24.3121C508.793 21.5281 509.609 19.0561 511.241 16.896C512.873 14.688 515.153 12.9841 518.081 11.7841C521.009 10.5361 524.345 9.91205 528.089 9.91205C530.201 9.91205 532.169 10.0561 533.993 10.3441C535.817 10.6321 537.257 10.9441 538.313 11.28C539.417 11.5681 540.113 11.7601 540.401 11.8561L540.905 12.7921C540.761 13.4641 540.473 15.0241 540.041 17.4721C539.657 19.8721 539.369 22.4401 539.177 25.1761L533.705 25.6081L533.057 25.1041C533.057 24.9601 533.057 24.6721 533.057 24.2401C533.105 23.7601 533.129 23.2081 533.129 22.5841C533.129 20.4721 532.601 18.9841 531.545 18.1201C530.489 17.2081 528.713 16.7521 526.217 16.7521C524.201 16.7521 522.545 17.2321 521.249 18.1921C519.953 19.1521 519.305 20.376 519.305 21.864C519.305 23.4961 520.073 24.8881 521.609 26.0401C523.145 27.1441 525.521 28.4401 528.737 29.9281C531.425 31.2241 533.633 32.4001 535.361 33.4561C537.089 34.5121 538.553 35.8801 539.753 37.5601C540.953 39.1921 541.553 41.1121 541.553 43.3201C541.553 46.2001 540.713 48.7441 539.033 50.9521C537.401 53.1601 535.073 54.8641 532.049 56.0641C529.025 57.2641 525.521 57.8641 521.537 57.8641Z"/>
<path d="M546.236 52.7521C547.532 52.6081 548.42 52.2721 548.9 51.7441C549.428 51.1681 549.692 50.2081 549.692 48.8641V14.0161C549.692 12.5281 549.476 11.4961 549.044 10.92C548.612 10.3441 547.796 10.0561 546.596 10.0561H544.94L544.652 9.69605L545.084 5.88005C547.82 5.54405 550.748 5.11205 553.868 4.58405C556.988 4.05605 559.004 3.72005 559.916 3.57605L560.42 4.94405C559.94 5.52005 559.532 7.94405 559.196 12.2161C558.86 16.488 558.596 22.128 558.404 29.1361C559.844 27.7921 561.548 26.4241 563.516 25.0321C565.532 23.5921 566.996 22.8721 567.908 22.8721C571.412 22.8721 574.1 23.6881 575.972 25.3201C577.844 26.9041 578.78 29.2081 578.78 32.2321C578.78 33.4321 578.564 35.9761 578.132 39.8641C577.652 44.6641 577.412 47.7601 577.412 49.1521C577.412 50.3521 577.58 51.2161 577.916 51.7441C578.3 52.2721 578.9 52.5361 579.716 52.5361L581.876 52.4641L582.02 52.7521L581.3 57.2161C580.724 57.1681 579.668 57.1201 578.132 57.0721C576.644 57.0241 575.108 57.0001 573.524 57.0001C572.372 57.0001 570.884 57.0721 569.06 57.2161C567.236 57.4081 566.036 57.5281 565.46 57.5761L565.82 53.0401C567.02 52.7521 567.86 52.3201 568.34 51.7441C568.868 51.1201 569.132 50.2081 569.132 49.0081L569.42 36.6961C569.468 32.5201 567.956 30.4321 564.884 30.4321C563.012 30.4321 560.828 31.4161 558.332 33.3841C558.236 36.6961 558.188 42.0001 558.188 49.2961C558.188 50.4961 558.332 51.3361 558.62 51.8161C558.956 52.2961 559.508 52.5361 560.276 52.5361C560.66 52.5361 561.02 52.5121 561.356 52.4641C561.74 52.4161 561.98 52.3921 562.076 52.3921L562.292 52.8241L561.572 57.2161C561.044 57.1681 560.012 57.1201 558.476 57.0721C556.94 57.0241 555.356 57.0001 553.724 57.0001C551.852 57.0001 550.148 57.0241 548.612 57.0721C547.124 57.1201 546.14 57.1681 545.66 57.2161L546.236 52.7521Z"/>
<path d="M594.4 15.6721C592.768 15.6721 591.496 15.2161 590.584 14.304C589.72 13.392 589.288 12.12 589.288 10.4881C589.288 8.76005 589.816 7.36805 590.872 6.31205C591.928 5.25605 593.32 4.72805 595.048 4.72805C596.584 4.72805 597.808 5.18405 598.72 6.09605C599.632 7.00805 600.088 8.28005 600.088 9.91205C600.088 11.6401 599.56 13.0321 598.504 14.0881C597.448 15.1441 596.08 15.6721 594.4 15.6721ZM586.12 53.1841C587.56 52.9441 588.592 52.4641 589.216 51.7441C589.888 51.0241 590.224 50.0161 590.224 48.7201V33.3121C590.224 31.8241 589.984 30.7921 589.504 30.2161C589.072 29.5921 588.304 29.2801 587.2 29.2801C586.816 29.2801 586.456 29.3041 586.12 29.3521C585.784 29.4001 585.568 29.4481 585.472 29.4961L585.904 25.2481C588.688 24.9121 591.472 24.4801 594.256 23.9521C597.088 23.4241 598.912 23.0641 599.728 22.8721L600.376 24.0961C599.896 25.1521 599.488 28.0081 599.152 32.6641C598.864 37.3201 598.72 42.8881 598.72 49.3681C598.72 50.5201 598.888 51.3361 599.224 51.8161C599.56 52.2961 600.112 52.5361 600.88 52.5361C601.312 52.5361 601.72 52.5121 602.104 52.4641C602.536 52.4161 602.824 52.3921 602.968 52.3921L603.184 52.6801L602.464 57.2161C601.888 57.1681 600.832 57.1201 599.296 57.0721C597.76 57.0241 596.152 57.0001 594.472 57.0001C592.984 57.0001 591.28 57.0961 589.36 57.2881C587.44 57.5281 586.192 57.6961 585.616 57.7921L586.12 53.1841Z"/>
<path d="M627.662 53.0401C628.814 52.7521 629.63 52.3201 630.11 51.7441C630.638 51.1201 630.926 50.2081 630.974 49.0081L631.19 36.6961C631.19 32.5201 629.654 30.4321 626.582 30.4321C624.95 30.4321 622.886 31.3201 620.39 33.0961C619.91 41.8321 619.67 47.2081 619.67 49.2241C619.67 50.4721 619.814 51.3361 620.102 51.8161C620.438 52.2481 621.014 52.4641 621.83 52.4641C622.166 52.4641 622.526 52.4401 622.91 52.3921C623.294 52.3441 623.558 52.3201 623.702 52.3201L623.846 52.6801L623.126 57.2161C622.598 57.1681 621.59 57.1201 620.102 57.0721C618.614 57.0241 617.078 57.0001 615.494 57.0001C613.958 57.0001 612.254 57.0481 610.382 57.1441C608.558 57.2881 607.382 57.3841 606.854 57.4321L607.502 52.8241C608.894 52.6801 609.854 52.3201 610.382 51.7441C610.958 51.1681 611.246 50.2081 611.246 48.8641V33.7441C611.246 32.0641 610.982 30.9361 610.454 30.3601C609.974 29.7361 609.062 29.4241 607.718 29.4241H606.782L606.494 29.0641L606.854 25.2481C609.638 24.8161 612.374 24.3601 615.062 23.8801C617.798 23.3521 619.55 23.0161 620.318 22.8721L620.894 23.5921C620.798 23.8801 620.654 24.5281 620.462 25.5361C620.27 26.5441 620.15 27.5521 620.102 28.5601L620.39 28.8481C621.974 27.4561 623.702 26.1121 625.574 24.8161C627.446 23.5201 628.814 22.8721 629.678 22.8721C633.086 22.8721 635.75 23.7121 637.67 25.3921C639.59 27.0241 640.55 29.3041 640.55 32.2321C640.55 33.0001 640.358 35.5441 639.974 39.8641C639.494 44.6641 639.254 47.7601 639.254 49.1521C639.254 50.4001 639.422 51.2881 639.758 51.8161C640.094 52.2961 640.67 52.5361 641.486 52.5361L643.646 52.4641L643.79 52.7521L643.142 57.2161C642.566 57.1681 641.51 57.1201 639.974 57.0721C638.438 57.0241 636.878 57.0001 635.294 57.0001C634.142 57.0001 632.654 57.0721 630.83 57.2161C629.006 57.4081 627.806 57.5281 627.23 57.5761L627.662 53.0401Z"/>
<path d="M656.988 40.8001C657.132 43.9681 657.972 46.4401 659.508 48.2161C661.092 49.9441 663.228 50.8081 665.916 50.8081C667.26 50.8081 668.58 50.6641 669.876 50.3761C671.172 50.0401 672.228 49.7041 673.044 49.3681C673.86 48.9841 674.388 48.7441 674.628 48.6481L675.132 48.8641L676.356 52.5361C676.356 52.5841 675.588 53.0881 674.052 54.0481C672.564 55.0081 670.884 55.8961 669.012 56.7121C667.188 57.4801 665.508 57.8641 663.972 57.8641C658.884 57.8641 654.876 56.3761 651.948 53.4001C649.068 50.4241 647.628 46.3681 647.628 41.2321C647.628 37.7761 648.372 34.6561 649.86 31.8721C651.348 29.0881 653.388 26.9041 655.98 25.3201C658.572 23.6881 661.476 22.8721 664.692 22.8721C672.804 22.8721 676.86 27.0001 676.86 35.2561C676.86 36.1201 676.788 36.9601 676.644 37.7761C676.5 38.5921 676.404 39.1201 676.356 39.3601L675.492 40.1521H656.988V40.8001ZM666.636 35.6161C667.164 35.5201 667.524 35.3761 667.716 35.1841C667.908 34.9921 668.004 34.5841 668.004 33.9601C668.004 30.4081 666.492 28.6321 663.468 28.6321C661.596 28.6321 660.084 29.2801 658.932 30.5761C657.828 31.8241 657.18 33.6721 656.988 36.1201L666.636 35.6161Z"/>
</mask>
<path d="M20.912 57.8641C18.656 57.8641 16.592 57.6481 14.72 57.2161C12.848 56.8321 11.288 56.4001 10.04 55.9201C8.79204 55.4401 8.16804 55.1761 8.16804 55.1281L7.59204 54.1201C7.64004 53.7841 7.73604 53.0641 7.88004 51.9601C8.07204 50.8081 8.26404 49.2721 8.45604 47.3521C8.64804 45.4321 8.74404 43.6081 8.74404 41.8801L14.792 41.3761C14.792 44.0641 15.032 46.1281 15.512 47.5681C15.992 49.0081 16.784 50.0161 17.888 50.5921C19.04 51.1681 20.648 51.4561 22.712 51.4561C24.968 51.4561 26.768 50.9521 28.112 49.9441C29.504 48.9361 30.2 47.5921 30.2 45.9121C30.2 44.8081 29.816 43.8241 29.048 42.9601C28.28 42.0961 27.344 41.3521 26.24 40.7281C25.136 40.0561 23.528 39.1921 21.416 38.1361L19.544 37.2721C15.992 35.5441 13.208 33.7201 11.192 31.8001C9.17604 29.8801 8.16804 27.3841 8.16804 24.3121C8.16804 21.5281 8.98404 19.0561 10.616 16.896C12.248 14.688 14.528 12.9841 17.456 11.7841C20.384 10.5361 23.72 9.91205 27.464 9.91205C29.576 9.91205 31.544 10.0561 33.368 10.3441C35.192 10.6321 36.632 10.9441 37.688 11.28C38.792 11.5681 39.488 11.7601 39.776 11.8561L40.28 12.7921C40.136 13.4641 39.848 15.0241 39.416 17.4721C39.032 19.8721 38.744 22.4401 38.552 25.1761L33.08 25.6081L32.432 25.1041C32.432 24.9601 32.432 24.6721 32.432 24.2401C32.48 23.7601 32.504 23.2081 32.504 22.5841C32.504 20.4721 31.976 18.9841 30.92 18.1201C29.864 17.2081 28.088 16.7521 25.592 16.7521C23.576 16.7521 21.92 17.2321 20.624 18.1921C19.328 19.1521 18.68 20.376 18.68 21.864C18.68 23.4961 19.448 24.8881 20.984 26.0401C22.52 27.1441 24.896 28.4401 28.112 29.9281C30.8 31.2241 33.008 32.4001 34.736 33.4561C36.464 34.5121 37.928 35.8801 39.128 37.5601C40.328 39.1921 40.928 41.1121 40.928 43.3201C40.928 46.2001 40.088 48.7441 38.408 50.9521C36.776 53.1601 34.448 54.8641 31.424 56.0641C28.4 57.2641 24.896 57.8641 20.912 57.8641Z" fill="#FFBA01"/>
<path d="M66.0757 53.0401C67.2277 52.7521 68.0437 52.3201 68.5237 51.7441C69.0517 51.1201 69.3397 50.2081 69.3877 49.0081L69.6037 36.6961C69.6037 32.5201 68.0677 30.4321 64.9957 30.4321C63.3637 30.4321 61.2997 31.3201 58.8037 33.0961C58.3237 41.8321 58.0837 47.2081 58.0837 49.2241C58.0837 50.4721 58.2277 51.3361 58.5157 51.8161C58.8517 52.2481 59.4277 52.4641 60.2437 52.4641C60.5797 52.4641 60.9397 52.4401 61.3237 52.3921C61.7077 52.3441 61.9717 52.3201 62.1157 52.3201L62.2597 52.6801L61.5397 57.2161C61.0117 57.1681 60.0037 57.1201 58.5157 57.0721C57.0277 57.0241 55.4917 57.0001 53.9077 57.0001C52.3717 57.0001 50.6677 57.0481 48.7957 57.1441C46.9717 57.2881 45.7957 57.3841 45.2677 57.4321L45.9157 52.8241C47.3077 52.6801 48.2677 52.3201 48.7957 51.7441C49.3717 51.1681 49.6597 50.2081 49.6597 48.8641V33.7441C49.6597 32.0641 49.3957 30.9361 48.8677 30.3601C48.3877 29.7361 47.4757 29.4241 46.1317 29.4241H45.1957L44.9077 29.0641L45.2677 25.2481C48.0517 24.8161 50.7877 24.3601 53.4757 23.8801C56.2117 23.3521 57.9637 23.0161 58.7317 22.8721L59.3077 23.5921C59.2117 23.8801 59.0677 24.5281 58.8757 25.5361C58.6837 26.5441 58.5637 27.5521 58.5157 28.5601L58.8037 28.8481C60.3877 27.4561 62.1157 26.1121 63.9877 24.8161C65.8597 23.5201 67.2277 22.8721 68.0917 22.8721C71.4997 22.8721 74.1637 23.7121 76.0837 25.3921C78.0037 27.0241 78.9637 29.3041 78.9637 32.2321C78.9637 33.0001 78.7717 35.5441 78.3877 39.8641C77.9077 44.6641 77.6677 47.7601 77.6677 49.1521C77.6677 50.4001 77.8357 51.2881 78.1717 51.8161C78.5077 52.2961 79.0837 52.5361 79.8997 52.5361L82.0597 52.4641L82.2037 52.7521L81.5557 57.2161C80.9797 57.1681 79.9237 57.1201 78.3877 57.0721C76.8517 57.0241 75.2917 57.0001 73.7077 57.0001C72.5557 57.0001 71.0677 57.0721 69.2437 57.2161C67.4197 57.4081 66.2197 57.5281 65.6437 57.5761L66.0757 53.0401Z" fill="#FFBA01"/>
<path d="M104.33 36.1921C104.33 34.1281 103.778 32.5441 102.674 31.4401C101.618 30.2881 100.13 29.7121 98.2102 29.7121C97.0102 29.7121 95.5942 30.0481 93.9622 30.7201C92.3782 31.3441 90.9622 32.1361 89.7142 33.0961L89.1382 32.7361L87.7702 28.4161C90.6022 26.8321 93.2902 25.5121 95.8342 24.4561C98.3782 23.4001 100.13 22.8721 101.09 22.8721C104.882 22.8721 107.834 23.736 109.946 25.4641C112.106 27.1921 113.186 29.6161 113.186 32.7361C113.186 33.7441 112.97 35.9281 112.538 39.2881C112.01 43.9441 111.746 46.6801 111.746 47.4961C111.746 48.4081 111.962 49.1281 112.394 49.6561C112.874 50.1361 113.498 50.3761 114.266 50.3761C115.274 50.3761 116.426 49.9681 117.722 49.1521L118.802 50.6641C117.842 52.4401 116.69 54.0241 115.346 55.4161C114.05 56.7601 112.874 57.5761 111.818 57.8641C109.658 57.8641 107.954 57.4081 106.706 56.4961C105.506 55.5361 104.786 54.1441 104.546 52.3201L104.042 52.1041C102.362 53.7841 100.802 55.1281 99.3622 56.1361C97.9222 57.0961 96.8182 57.5761 96.0502 57.5761C94.2262 57.5761 92.5462 57.1201 91.0102 56.2081C89.5222 55.2961 88.3462 54.0481 87.4822 52.4641C86.6182 50.8321 86.1862 49.0321 86.1862 47.0641C86.1862 45.5281 86.5702 44.2321 87.3382 43.1761C88.1062 42.0721 89.1142 41.3761 90.3622 41.0881L104.258 37.8481L104.33 36.1921ZM96.5542 43.8961C95.4022 44.2321 94.8262 45.0001 94.8262 46.2001C94.8262 47.5921 95.1862 48.6721 95.9062 49.4401C96.6742 50.2081 97.7302 50.5921 99.0742 50.5921C99.7462 50.5921 100.514 50.4241 101.378 50.0881C102.242 49.7041 103.082 49.2001 103.898 48.5761L104.042 41.8081L96.5542 43.8961Z" fill="#FFBA01"/>
<path d="M121.359 69.5281C122.703 69.3841 123.591 69.0241 124.023 68.4481C124.455 67.8721 124.671 66.7441 124.671 65.0641L125.031 54.0481V33.7441C125.031 32.0641 124.767 30.9361 124.239 30.3601C123.759 29.7361 122.847 29.4241 121.503 29.4241H120.567L120.279 29.0641L120.639 25.2481C123.375 24.8161 126.087 24.3601 128.775 23.8801C131.463 23.3521 133.191 23.0161 133.959 22.8721L134.607 23.5921C134.559 23.8801 134.439 24.504 134.247 25.4641C134.055 26.376 133.911 27.2641 133.815 28.1281L134.103 28.4881C135.927 26.8081 137.463 25.5121 138.711 24.6001C140.007 23.6401 140.871 23.1601 141.303 23.1601C144.135 23.1601 146.631 23.8321 148.791 25.1761C150.951 26.4721 152.607 28.3201 153.759 30.7201C154.959 33.1201 155.559 35.8801 155.559 39.0001C155.559 42.6961 154.743 45.9601 153.111 48.7921C151.479 51.6241 149.223 53.8321 146.343 55.4161C143.463 56.9521 140.175 57.7201 136.479 57.7201C135.855 57.7201 135.231 57.6961 134.607 57.6481C134.031 57.6001 133.647 57.5521 133.455 57.5041V64.1281C133.455 66.0961 133.599 67.4161 133.887 68.0881C134.223 68.7601 134.943 69.0961 136.047 69.0961C136.767 69.0961 137.367 69.0721 137.847 69.0241C138.375 68.9761 138.759 68.9521 138.999 68.9521L139.143 69.2401L138.351 73.7041C137.343 73.7041 136.431 73.68 135.615 73.632L129.567 73.5601C127.887 73.5601 126.135 73.6081 124.311 73.7041C122.487 73.8481 121.311 73.9441 120.783 73.9921L121.359 69.5281ZM133.671 50.7361C135.543 51.4081 137.319 51.7441 138.999 51.7441C141.255 51.7441 143.007 50.8801 144.255 49.1521C145.551 47.3761 146.199 44.9041 146.199 41.7361C146.199 38.2321 145.551 35.4721 144.255 33.4561C143.007 31.3921 141.303 30.3601 139.143 30.3601C138.471 30.3601 137.679 30.5521 136.767 30.9361C135.855 31.3201 134.967 31.8241 134.103 32.4481C133.815 39.9361 133.671 46.0321 133.671 50.7361Z" fill="#FFBA01"/>
<path d="M158.292 49.2241C160.452 47.5921 162.348 46.7761 163.98 46.7761C165.42 46.7761 166.572 47.3521 167.436 48.5041C168.348 49.6561 168.804 51.2161 168.804 53.1841C168.804 55.6801 167.748 58.1761 165.636 60.6721C163.524 63.1681 160.908 65.3041 157.788 67.0801L155.124 64.9201V63.6961C156.66 62.6401 157.908 61.3681 158.868 59.8801C159.828 58.3921 160.308 56.9281 160.308 55.4881C160.308 54.5761 160.092 53.6401 159.66 52.6801C159.228 51.7201 158.7 50.9041 158.076 50.2321L158.292 49.2241Z" fill="#FFBA01"/>
<path d="M196.131 57.8641C193.875 57.8641 191.811 57.6481 189.939 57.2161C188.067 56.8321 186.507 56.4001 185.259 55.9201C184.011 55.4401 183.387 55.1761 183.387 55.1281L182.811 54.1201C182.859 53.7841 182.955 53.0641 183.099 51.9601C183.291 50.8081 183.483 49.2721 183.675 47.3521C183.867 45.4321 183.963 43.6081 183.963 41.8801L190.011 41.3761C190.011 44.0641 190.251 46.1281 190.731 47.5681C191.211 49.0081 192.003 50.0161 193.107 50.5921C194.259 51.1681 195.867 51.4561 197.931 51.4561C200.187 51.4561 201.987 50.9521 203.331 49.9441C204.723 48.9361 205.419 47.5921 205.419 45.9121C205.419 44.8081 205.035 43.8241 204.267 42.9601C203.499 42.0961 202.563 41.3521 201.459 40.7281C200.355 40.0561 198.747 39.1921 196.635 38.1361L194.763 37.2721C191.211 35.5441 188.427 33.7201 186.411 31.8001C184.395 29.8801 183.387 27.3841 183.387 24.3121C183.387 21.5281 184.203 19.0561 185.835 16.896C187.467 14.688 189.747 12.9841 192.675 11.7841C195.603 10.5361 198.939 9.91205 202.683 9.91205C204.795 9.91205 206.763 10.0561 208.587 10.3441C210.411 10.6321 211.851 10.9441 212.907 11.28C214.011 11.5681 214.707 11.7601 214.995 11.8561L215.499 12.7921C215.355 13.4641 215.067 15.0241 214.635 17.4721C214.251 19.8721 213.963 22.4401 213.771 25.1761L208.299 25.6081L207.651 25.1041C207.651 24.9601 207.651 24.6721 207.651 24.2401C207.699 23.7601 207.723 23.2081 207.723 22.5841C207.723 20.4721 207.195 18.9841 206.139 18.1201C205.083 17.2081 203.307 16.7521 200.811 16.7521C198.795 16.7521 197.139 17.2321 195.843 18.1921C194.547 19.1521 193.899 20.376 193.899 21.864C193.899 23.4961 194.667 24.8881 196.203 26.0401C197.739 27.1441 200.115 28.4401 203.331 29.9281C206.019 31.2241 208.227 32.4001 209.955 33.4561C211.683 34.5121 213.147 35.8801 214.347 37.5601C215.547 39.1921 216.147 41.1121 216.147 43.3201C216.147 46.2001 215.307 48.7441 213.627 50.9521C211.995 53.1601 209.667 54.8641 206.643 56.0641C203.619 57.2641 200.115 57.8641 196.131 57.8641Z" fill="#FFBA01"/>
<path d="M220.83 52.7521C222.126 52.6081 223.014 52.2721 223.494 51.7441C224.022 51.1681 224.286 50.2081 224.286 48.8641V14.0161C224.286 12.5281 224.07 11.4961 223.638 10.92C223.206 10.3441 222.39 10.0561 221.19 10.0561H219.534L219.246 9.69605L219.678 5.88005C222.414 5.54405 225.342 5.11205 228.462 4.58405C231.582 4.05605 233.598 3.72005 234.51 3.57605L235.014 4.94405C234.534 5.52005 234.126 7.94405 233.79 12.2161C233.454 16.488 233.19 22.128 232.998 29.1361C234.438 27.7921 236.142 26.4241 238.11 25.0321C240.126 23.5921 241.59 22.8721 242.502 22.8721C246.006 22.8721 248.694 23.6881 250.566 25.3201C252.438 26.9041 253.374 29.2081 253.374 32.2321C253.374 33.4321 253.158 35.9761 252.726 39.8641C252.246 44.6641 252.006 47.7601 252.006 49.1521C252.006 50.3521 252.174 51.2161 252.51 51.7441C252.894 52.2721 253.494 52.5361 254.31 52.5361L256.47 52.4641L256.614 52.7521L255.894 57.2161C255.318 57.1681 254.262 57.1201 252.726 57.0721C251.238 57.0241 249.702 57.0001 248.118 57.0001C246.966 57.0001 245.478 57.0721 243.654 57.2161C241.83 57.4081 240.63 57.5281 240.054 57.5761L240.414 53.0401C241.614 52.7521 242.454 52.3201 242.934 51.7441C243.462 51.1201 243.726 50.2081 243.726 49.0081L244.014 36.6961C244.062 32.5201 242.55 30.4321 239.478 30.4321C237.606 30.4321 235.422 31.4161 232.926 33.3841C232.83 36.6961 232.782 42.0001 232.782 49.2961C232.782 50.4961 232.926 51.3361 233.214 51.8161C233.55 52.2961 234.102 52.5361 234.87 52.5361C235.254 52.5361 235.614 52.5121 235.95 52.4641C236.334 52.4161 236.574 52.3921 236.67 52.3921L236.886 52.8241L236.166 57.2161C235.638 57.1681 234.606 57.1201 233.07 57.0721C231.534 57.0241 229.95 57.0001 228.318 57.0001C226.446 57.0001 224.742 57.0241 223.206 57.0721C221.718 57.1201 220.734 57.1681 220.254 57.2161L220.83 52.7521Z" fill="#FFBA01"/>
<path d="M278.354 36.1921C278.354 34.1281 277.802 32.5441 276.698 31.4401C275.642 30.2881 274.154 29.7121 272.234 29.7121C271.034 29.7121 269.618 30.0481 267.986 30.7201C266.402 31.3441 264.986 32.1361 263.738 33.0961L263.162 32.7361L261.794 28.4161C264.626 26.8321 267.314 25.5121 269.858 24.4561C272.402 23.4001 274.154 22.8721 275.114 22.8721C278.906 22.8721 281.858 23.736 283.97 25.4641C286.13 27.1921 287.21 29.6161 287.21 32.7361C287.21 33.7441 286.994 35.9281 286.562 39.2881C286.034 43.9441 285.77 46.6801 285.77 47.4961C285.77 48.4081 285.986 49.1281 286.418 49.6561C286.898 50.1361 287.522 50.3761 288.29 50.3761C289.298 50.3761 290.45 49.9681 291.746 49.1521L292.826 50.6641C291.866 52.4401 290.714 54.0241 289.37 55.4161C288.074 56.7601 286.898 57.5761 285.842 57.8641C283.682 57.8641 281.978 57.4081 280.73 56.4961C279.53 55.5361 278.81 54.1441 278.57 52.3201L278.066 52.1041C276.386 53.7841 274.826 55.1281 273.386 56.1361C271.946 57.0961 270.842 57.5761 270.074 57.5761C268.25 57.5761 266.57 57.1201 265.034 56.2081C263.546 55.2961 262.37 54.0481 261.506 52.4641C260.642 50.8321 260.21 49.0321 260.21 47.0641C260.21 45.5281 260.594 44.2321 261.362 43.1761C262.13 42.0721 263.138 41.3761 264.386 41.0881L278.282 37.8481L278.354 36.1921ZM270.578 43.8961C269.426 44.2321 268.85 45.0001 268.85 46.2001C268.85 47.5921 269.21 48.6721 269.93 49.4401C270.698 50.2081 271.754 50.5921 273.098 50.5921C273.77 50.5921 274.538 50.4241 275.402 50.0881C276.266 49.7041 277.106 49.2001 277.922 48.5761L278.066 41.8081L270.578 43.8961Z" fill="#FFBA01"/>
<path d="M295.815 52.8241C297.207 52.7281 298.143 52.3441 298.623 51.6721C299.151 51.0001 299.415 49.7521 299.415 47.9281V33.6721C299.415 31.9921 299.199 30.8641 298.767 30.2881C298.383 29.7121 297.591 29.4241 296.391 29.4241L295.023 29.4961L294.663 28.9921L295.023 25.2481C297.663 24.8641 300.327 24.4081 303.015 23.8801C305.751 23.3521 307.503 23.0161 308.271 22.8721L308.919 23.5201C308.823 23.9041 308.679 24.7921 308.487 26.1841C308.343 27.5761 308.247 28.9201 308.199 30.2161L308.631 30.5041C310.119 28.2961 311.751 26.5681 313.527 25.3201C315.351 24.0241 317.079 23.3761 318.711 23.3761C319.287 23.3761 319.815 23.4241 320.295 23.5201C320.775 23.5681 321.087 23.6161 321.231 23.6641L321.519 24.2401C321.375 25.0561 321.135 26.8561 320.799 29.6401C320.463 32.3761 320.223 34.9681 320.079 37.4161L315.327 37.7041C315.327 35.4001 315.183 33.8881 314.895 33.1681C314.655 32.4001 314.127 32.0161 313.311 32.0161C312.543 32.0161 311.727 32.3041 310.863 32.8801C310.047 33.4081 309.279 34.1521 308.559 35.1121C308.463 36.4081 308.319 38.5921 308.127 41.6641C307.983 44.6881 307.887 47.1121 307.839 48.9361C307.839 50.1841 308.031 51.0481 308.415 51.5281C308.847 52.0081 309.591 52.2481 310.647 52.2481C311.415 52.2481 312.159 52.2241 312.879 52.1761C313.599 52.0801 314.079 52.0081 314.319 51.9601L314.535 52.3921L313.743 57.2881C313.071 57.2401 311.799 57.1681 309.927 57.0721C308.103 57.0241 306.231 57.0001 304.311 57.0001C302.487 57.0001 300.639 57.0241 298.767 57.0721C296.943 57.1681 295.767 57.2401 295.239 57.2881L295.815 52.8241Z" fill="#FFBA01"/>
<path d="M332.918 40.8001C333.062 43.9681 333.902 46.4401 335.438 48.2161C337.022 49.9441 339.158 50.8081 341.846 50.8081C343.19 50.8081 344.51 50.6641 345.806 50.3761C347.102 50.0401 348.158 49.7041 348.974 49.3681C349.79 48.9841 350.318 48.7441 350.558 48.6481L351.062 48.8641L352.286 52.5361C352.286 52.5841 351.518 53.0881 349.982 54.0481C348.494 55.0081 346.814 55.8961 344.942 56.7121C343.118 57.4801 341.438 57.8641 339.902 57.8641C334.814 57.8641 330.806 56.3761 327.878 53.4001C324.998 50.4241 323.558 46.3681 323.558 41.2321C323.558 37.7761 324.302 34.6561 325.79 31.8721C327.278 29.0881 329.318 26.9041 331.91 25.3201C334.502 23.6881 337.406 22.8721 340.622 22.8721C348.734 22.8721 352.79 27.0001 352.79 35.2561C352.79 36.1201 352.718 36.9601 352.574 37.7761C352.43 38.5921 352.334 39.1201 352.286 39.3601L351.422 40.1521H332.918V40.8001ZM342.566 35.6161C343.094 35.5201 343.454 35.3761 343.646 35.1841C343.838 34.9921 343.934 34.5841 343.934 33.9601C343.934 30.4081 342.422 28.6321 339.398 28.6321C337.526 28.6321 336.014 29.2801 334.862 30.5761C333.758 31.8241 333.11 33.6721 332.918 36.1201L342.566 35.6161Z" fill="#FFBA01"/>
<path d="M356.995 49.2241C359.155 47.5921 361.051 46.7761 362.683 46.7761C364.123 46.7761 365.275 47.3521 366.139 48.5041C367.051 49.6561 367.507 51.2161 367.507 53.1841C367.507 55.6801 366.451 58.1761 364.339 60.6721C362.227 63.1681 359.611 65.3041 356.491 67.0801L353.827 64.9201V63.6961C355.363 62.6401 356.611 61.3681 357.571 59.8801C358.531 58.3921 359.011 56.9281 359.011 55.4881C359.011 54.5761 358.795 53.6401 358.363 52.6801C357.931 51.7201 357.403 50.9041 356.779 50.2321L356.995 49.2241Z" fill="#FFBA01"/>
<path d="M399.01 36.1921C399.01 34.1281 398.458 32.5441 397.354 31.4401C396.298 30.2881 394.81 29.7121 392.89 29.7121C391.69 29.7121 390.274 30.0481 388.642 30.7201C387.058 31.3441 385.642 32.1361 384.394 33.0961L383.818 32.7361L382.45 28.4161C385.282 26.8321 387.97 25.5121 390.514 24.4561C393.058 23.4001 394.81 22.8721 395.77 22.8721C399.562 22.8721 402.514 23.736 404.626 25.4641C406.786 27.1921 407.866 29.6161 407.866 32.7361C407.866 33.7441 407.65 35.9281 407.218 39.2881C406.69 43.9441 406.426 46.6801 406.426 47.4961C406.426 48.4081 406.642 49.1281 407.074 49.6561C407.554 50.1361 408.178 50.3761 408.946 50.3761C409.954 50.3761 411.106 49.9681 412.402 49.1521L413.482 50.6641C412.522 52.4401 411.37 54.0241 410.026 55.4161C408.73 56.7601 407.554 57.5761 406.498 57.8641C404.338 57.8641 402.634 57.4081 401.386 56.4961C400.186 55.5361 399.466 54.1441 399.226 52.3201L398.722 52.1041C397.042 53.7841 395.482 55.1281 394.042 56.1361C392.602 57.0961 391.498 57.5761 390.73 57.5761C388.906 57.5761 387.226 57.1201 385.69 56.2081C384.202 55.2961 383.026 54.0481 382.162 52.4641C381.298 50.8321 380.866 49.0321 380.866 47.0641C380.866 45.5281 381.25 44.2321 382.018 43.1761C382.786 42.0721 383.794 41.3761 385.042 41.0881L398.938 37.8481L399.01 36.1921ZM391.234 43.8961C390.082 44.2321 389.506 45.0001 389.506 46.2001C389.506 47.5921 389.866 48.6721 390.586 49.4401C391.354 50.2081 392.41 50.5921 393.754 50.5921C394.426 50.5921 395.194 50.4241 396.058 50.0881C396.922 49.7041 397.762 49.2001 398.578 48.5761L398.722 41.8081L391.234 43.8961Z" fill="#FFBA01"/>
<path d="M436.271 53.0401C437.423 52.7521 438.239 52.3201 438.719 51.7441C439.247 51.1201 439.535 50.2081 439.583 49.0081L439.799 36.6961C439.799 32.5201 438.263 30.4321 435.191 30.4321C433.559 30.4321 431.495 31.3201 428.999 33.0961C428.519 41.8321 428.279 47.2081 428.279 49.2241C428.279 50.4721 428.423 51.3361 428.711 51.8161C429.047 52.2481 429.623 52.4641 430.439 52.4641C430.775 52.4641 431.135 52.4401 431.519 52.3921C431.903 52.3441 432.167 52.3201 432.311 52.3201L432.455 52.6801L431.735 57.2161C431.207 57.1681 430.199 57.1201 428.711 57.0721C427.223 57.0241 425.687 57.0001 424.103 57.0001C422.567 57.0001 420.863 57.0481 418.991 57.1441C417.167 57.2881 415.991 57.3841 415.463 57.4321L416.111 52.8241C417.503 52.6801 418.463 52.3201 418.991 51.7441C419.567 51.1681 419.855 50.2081 419.855 48.8641V33.7441C419.855 32.0641 419.591 30.9361 419.063 30.3601C418.583 29.7361 417.671 29.4241 416.327 29.4241H415.391L415.103 29.0641L415.463 25.2481C418.247 24.8161 420.983 24.3601 423.671 23.8801C426.407 23.3521 428.159 23.0161 428.927 22.8721L429.503 23.5921C429.407 23.8801 429.263 24.5281 429.071 25.5361C428.879 26.5441 428.759 27.5521 428.711 28.5601L428.999 28.8481C430.583 27.4561 432.311 26.1121 434.183 24.8161C436.055 23.5201 437.423 22.8721 438.287 22.8721C441.695 22.8721 444.359 23.7121 446.279 25.3921C448.199 27.0241 449.159 29.3041 449.159 32.2321C449.159 33.0001 448.967 35.5441 448.583 39.8641C448.103 44.6641 447.863 47.7601 447.863 49.1521C447.863 50.4001 448.031 51.2881 448.367 51.8161C448.703 52.2961 449.279 52.5361 450.095 52.5361L452.255 52.4641L452.399 52.7521L451.751 57.2161C451.175 57.1681 450.119 57.1201 448.583 57.0721C447.047 57.0241 445.487 57.0001 443.903 57.0001C442.751 57.0001 441.263 57.0721 439.439 57.2161C437.615 57.4081 436.415 57.5281 435.839 57.5761L436.271 53.0401Z" fill="#FFBA01"/>
<path d="M478.27 52.5361C473.614 55.8961 470.83 57.5761 469.918 57.5761C465.694 57.5761 462.358 56.1601 459.91 53.3281C457.462 50.4961 456.238 46.6561 456.238 41.8081C456.238 38.2081 457.006 34.9921 458.542 32.1601C460.126 29.3281 462.286 27.1201 465.022 25.5361C467.758 23.9041 470.878 23.0881 474.382 23.0881C475.966 23.0881 477.19 23.1361 478.054 23.2321V14.1601C478.054 12.6721 477.814 11.6401 477.334 11.0641C476.902 10.4401 476.11 10.1281 474.958 10.1281C474.574 10.1281 474.214 10.1521 473.878 10.2001C473.542 10.248 473.326 10.2961 473.23 10.3441L473.734 5.95205C476.566 5.56805 479.446 5.13605 482.374 4.65605C485.35 4.12805 487.27 3.76805 488.134 3.57605L488.782 4.80005C488.158 5.71205 487.63 10.3681 487.198 18.7681C486.766 27.1681 486.55 36.7201 486.55 47.4241C486.55 48.3361 486.742 49.0561 487.126 49.5841C487.558 50.1121 488.11 50.3761 488.782 50.3761C489.31 50.3761 489.814 50.2801 490.294 50.0881C490.774 49.8961 491.158 49.7041 491.446 49.5121C491.782 49.3201 491.998 49.2001 492.094 49.1521L493.174 50.6641C493.03 50.9521 492.622 51.6001 491.95 52.6081C491.278 53.5681 490.414 54.6001 489.358 55.7041C488.302 56.7601 487.174 57.4801 485.974 57.8641C481.702 57.8641 479.302 56.1361 478.774 52.6801L478.27 52.5361ZM478.054 30.3601C477.958 30.3121 477.67 30.1921 477.19 30.0001C476.758 29.8081 476.158 29.6161 475.39 29.4241C474.622 29.2321 473.782 29.1361 472.87 29.1361C470.614 29.1361 468.838 30.0241 467.542 31.8001C466.294 33.5281 465.67 35.9761 465.67 39.1441C465.67 42.6961 466.294 45.5281 467.542 47.6401C468.838 49.7521 470.542 50.8081 472.654 50.8081C473.422 50.8081 474.214 50.6401 475.03 50.3041C475.846 49.9201 476.518 49.5601 477.046 49.2241C477.574 48.8401 477.91 48.5761 478.054 48.4321V30.3601Z" fill="#FFBA01"/>
<path d="M521.537 57.8641C519.281 57.8641 517.217 57.6481 515.345 57.2161C513.473 56.8321 511.913 56.4001 510.665 55.9201C509.417 55.4401 508.793 55.1761 508.793 55.1281L508.217 54.1201C508.265 53.7841 508.361 53.0641 508.505 51.9601C508.697 50.8081 508.889 49.2721 509.081 47.3521C509.273 45.4321 509.369 43.6081 509.369 41.8801L515.417 41.3761C515.417 44.0641 515.657 46.1281 516.137 47.5681C516.617 49.0081 517.409 50.0161 518.513 50.5921C519.665 51.1681 521.273 51.4561 523.337 51.4561C525.593 51.4561 527.393 50.9521 528.737 49.9441C530.129 48.9361 530.825 47.5921 530.825 45.9121C530.825 44.8081 530.441 43.8241 529.673 42.9601C528.905 42.0961 527.969 41.3521 526.865 40.7281C525.761 40.0561 524.153 39.1921 522.041 38.1361L520.169 37.2721C516.617 35.5441 513.833 33.7201 511.817 31.8001C509.801 29.8801 508.793 27.3841 508.793 24.3121C508.793 21.5281 509.609 19.0561 511.241 16.896C512.873 14.688 515.153 12.9841 518.081 11.7841C521.009 10.5361 524.345 9.91205 528.089 9.91205C530.201 9.91205 532.169 10.0561 533.993 10.3441C535.817 10.6321 537.257 10.9441 538.313 11.28C539.417 11.5681 540.113 11.7601 540.401 11.8561L540.905 12.7921C540.761 13.4641 540.473 15.0241 540.041 17.4721C539.657 19.8721 539.369 22.4401 539.177 25.1761L533.705 25.6081L533.057 25.1041C533.057 24.9601 533.057 24.6721 533.057 24.2401C533.105 23.7601 533.129 23.2081 533.129 22.5841C533.129 20.4721 532.601 18.9841 531.545 18.1201C530.489 17.2081 528.713 16.7521 526.217 16.7521C524.201 16.7521 522.545 17.2321 521.249 18.1921C519.953 19.1521 519.305 20.376 519.305 21.864C519.305 23.4961 520.073 24.8881 521.609 26.0401C523.145 27.1441 525.521 28.4401 528.737 29.9281C531.425 31.2241 533.633 32.4001 535.361 33.4561C537.089 34.5121 538.553 35.8801 539.753 37.5601C540.953 39.1921 541.553 41.1121 541.553 43.3201C541.553 46.2001 540.713 48.7441 539.033 50.9521C537.401 53.1601 535.073 54.8641 532.049 56.0641C529.025 57.2641 525.521 57.8641 521.537 57.8641Z" fill="#FFBA01"/>
<path d="M546.236 52.7521C547.532 52.6081 548.42 52.2721 548.9 51.7441C549.428 51.1681 549.692 50.2081 549.692 48.8641V14.0161C549.692 12.5281 549.476 11.4961 549.044 10.92C548.612 10.3441 547.796 10.0561 546.596 10.0561H544.94L544.652 9.69605L545.084 5.88005C547.82 5.54405 550.748 5.11205 553.868 4.58405C556.988 4.05605 559.004 3.72005 559.916 3.57605L560.42 4.94405C559.94 5.52005 559.532 7.94405 559.196 12.2161C558.86 16.488 558.596 22.128 558.404 29.1361C559.844 27.7921 561.548 26.4241 563.516 25.0321C565.532 23.5921 566.996 22.8721 567.908 22.8721C571.412 22.8721 574.1 23.6881 575.972 25.3201C577.844 26.9041 578.78 29.2081 578.78 32.2321C578.78 33.4321 578.564 35.9761 578.132 39.8641C577.652 44.6641 577.412 47.7601 577.412 49.1521C577.412 50.3521 577.58 51.2161 577.916 51.7441C578.3 52.2721 578.9 52.5361 579.716 52.5361L581.876 52.4641L582.02 52.7521L581.3 57.2161C580.724 57.1681 579.668 57.1201 578.132 57.0721C576.644 57.0241 575.108 57.0001 573.524 57.0001C572.372 57.0001 570.884 57.0721 569.06 57.2161C567.236 57.4081 566.036 57.5281 565.46 57.5761L565.82 53.0401C567.02 52.7521 567.86 52.3201 568.34 51.7441C568.868 51.1201 569.132 50.2081 569.132 49.0081L569.42 36.6961C569.468 32.5201 567.956 30.4321 564.884 30.4321C563.012 30.4321 560.828 31.4161 558.332 33.3841C558.236 36.6961 558.188 42.0001 558.188 49.2961C558.188 50.4961 558.332 51.3361 558.62 51.8161C558.956 52.2961 559.508 52.5361 560.276 52.5361C560.66 52.5361 561.02 52.5121 561.356 52.4641C561.74 52.4161 561.98 52.3921 562.076 52.3921L562.292 52.8241L561.572 57.2161C561.044 57.1681 560.012 57.1201 558.476 57.0721C556.94 57.0241 555.356 57.0001 553.724 57.0001C551.852 57.0001 550.148 57.0241 548.612 57.0721C547.124 57.1201 546.14 57.1681 545.66 57.2161L546.236 52.7521Z" fill="#FFBA01"/>
<path d="M594.4 15.6721C592.768 15.6721 591.496 15.2161 590.584 14.304C589.72 13.392 589.288 12.12 589.288 10.4881C589.288 8.76005 589.816 7.36805 590.872 6.31205C591.928 5.25605 593.32 4.72805 595.048 4.72805C596.584 4.72805 597.808 5.18405 598.72 6.09605C599.632 7.00805 600.088 8.28005 600.088 9.91205C600.088 11.6401 599.56 13.0321 598.504 14.0881C597.448 15.1441 596.08 15.6721 594.4 15.6721ZM586.12 53.1841C587.56 52.9441 588.592 52.4641 589.216 51.7441C589.888 51.0241 590.224 50.0161 590.224 48.7201V33.3121C590.224 31.8241 589.984 30.7921 589.504 30.2161C589.072 29.5921 588.304 29.2801 587.2 29.2801C586.816 29.2801 586.456 29.3041 586.12 29.3521C585.784 29.4001 585.568 29.4481 585.472 29.4961L585.904 25.2481C588.688 24.9121 591.472 24.4801 594.256 23.9521C597.088 23.4241 598.912 23.0641 599.728 22.8721L600.376 24.0961C599.896 25.1521 599.488 28.0081 599.152 32.6641C598.864 37.3201 598.72 42.8881 598.72 49.3681C598.72 50.5201 598.888 51.3361 599.224 51.8161C599.56 52.2961 600.112 52.5361 600.88 52.5361C601.312 52.5361 601.72 52.5121 602.104 52.4641C602.536 52.4161 602.824 52.3921 602.968 52.3921L603.184 52.6801L602.464 57.2161C601.888 57.1681 600.832 57.1201 599.296 57.0721C597.76 57.0241 596.152 57.0001 594.472 57.0001C592.984 57.0001 591.28 57.0961 589.36 57.2881C587.44 57.5281 586.192 57.6961 585.616 57.7921L586.12 53.1841Z" fill="#FFBA01"/>
<path d="M627.662 53.0401C628.814 52.7521 629.63 52.3201 630.11 51.7441C630.638 51.1201 630.926 50.2081 630.974 49.0081L631.19 36.6961C631.19 32.5201 629.654 30.4321 626.582 30.4321C624.95 30.4321 622.886 31.3201 620.39 33.0961C619.91 41.8321 619.67 47.2081 619.67 49.2241C619.67 50.4721 619.814 51.3361 620.102 51.8161C620.438 52.2481 621.014 52.4641 621.83 52.4641C622.166 52.4641 622.526 52.4401 622.91 52.3921C623.294 52.3441 623.558 52.3201 623.702 52.3201L623.846 52.6801L623.126 57.2161C622.598 57.1681 621.59 57.1201 620.102 57.0721C618.614 57.0241 617.078 57.0001 615.494 57.0001C613.958 57.0001 612.254 57.0481 610.382 57.1441C608.558 57.2881 607.382 57.3841 606.854 57.4321L607.502 52.8241C608.894 52.6801 609.854 52.3201 610.382 51.7441C610.958 51.1681 611.246 50.2081 611.246 48.8641V33.7441C611.246 32.0641 610.982 30.9361 610.454 30.3601C609.974 29.7361 609.062 29.4241 607.718 29.4241H606.782L606.494 29.0641L606.854 25.2481C609.638 24.8161 612.374 24.3601 615.062 23.8801C617.798 23.3521 619.55 23.0161 620.318 22.8721L620.894 23.5921C620.798 23.8801 620.654 24.5281 620.462 25.5361C620.27 26.5441 620.15 27.5521 620.102 28.5601L620.39 28.8481C621.974 27.4561 623.702 26.1121 625.574 24.8161C627.446 23.5201 628.814 22.8721 629.678 22.8721C633.086 22.8721 635.75 23.7121 637.67 25.3921C639.59 27.0241 640.55 29.3041 640.55 32.2321C640.55 33.0001 640.358 35.5441 639.974 39.8641C639.494 44.6641 639.254 47.7601 639.254 49.1521C639.254 50.4001 639.422 51.2881 639.758 51.8161C640.094 52.2961 640.67 52.5361 641.486 52.5361L643.646 52.4641L643.79 52.7521L643.142 57.2161C642.566 57.1681 641.51 57.1201 639.974 57.0721C638.438 57.0241 636.878 57.0001 635.294 57.0001C634.142 57.0001 632.654 57.0721 630.83 57.2161C629.006 57.4081 627.806 57.5281 627.23 57.5761L627.662 53.0401Z" fill="#FFBA01"/>
<path d="M656.988 40.8001C657.132 43.9681 657.972 46.4401 659.508 48.2161C661.092 49.9441 663.228 50.8081 665.916 50.8081C667.26 50.8081 668.58 50.6641 669.876 50.3761C671.172 50.0401 672.228 49.7041 673.044 49.3681C673.86 48.9841 674.388 48.7441 674.628 48.6481L675.132 48.8641L676.356 52.5361C676.356 52.5841 675.588 53.0881 674.052 54.0481C672.564 55.0081 670.884 55.8961 669.012 56.7121C667.188 57.4801 665.508 57.8641 663.972 57.8641C658.884 57.8641 654.876 56.3761 651.948 53.4001C649.068 50.4241 647.628 46.3681 647.628 41.2321C647.628 37.7761 648.372 34.6561 649.86 31.8721C651.348 29.0881 653.388 26.9041 655.98 25.3201C658.572 23.6881 661.476 22.8721 664.692 22.8721C672.804 22.8721 676.86 27.0001 676.86 35.2561C676.86 36.1201 676.788 36.9601 676.644 37.7761C676.5 38.5921 676.404 39.1201 676.356 39.3601L675.492 40.1521H656.988V40.8001ZM666.636 35.6161C667.164 35.5201 667.524 35.3761 667.716 35.1841C667.908 34.9921 668.004 34.5841 668.004 33.9601C668.004 30.4081 666.492 28.6321 663.468 28.6321C661.596 28.6321 660.084 29.2801 658.932 30.5761C657.828 31.8241 657.18 33.6721 656.988 36.1201L666.636 35.6161Z" fill="#FFBA01"/>
<path d="M20.912 57.8641C18.656 57.8641 16.592 57.6481 14.72 57.2161C12.848 56.8321 11.288 56.4001 10.04 55.9201C8.79204 55.4401 8.16804 55.1761 8.16804 55.1281L7.59204 54.1201C7.64004 53.7841 7.73604 53.0641 7.88004 51.9601C8.07204 50.8081 8.26404 49.2721 8.45604 47.3521C8.64804 45.4321 8.74404 43.6081 8.74404 41.8801L14.792 41.3761C14.792 44.0641 15.032 46.1281 15.512 47.5681C15.992 49.0081 16.784 50.0161 17.888 50.5921C19.04 51.1681 20.648 51.4561 22.712 51.4561C24.968 51.4561 26.768 50.9521 28.112 49.9441C29.504 48.9361 30.2 47.5921 30.2 45.9121C30.2 44.8081 29.816 43.8241 29.048 42.9601C28.28 42.0961 27.344 41.3521 26.24 40.7281C25.136 40.0561 23.528 39.1921 21.416 38.1361L19.544 37.2721C15.992 35.5441 13.208 33.7201 11.192 31.8001C9.17604 29.8801 8.16804 27.3841 8.16804 24.3121C8.16804 21.5281 8.98404 19.0561 10.616 16.896C12.248 14.688 14.528 12.9841 17.456 11.7841C20.384 10.5361 23.72 9.91205 27.464 9.91205C29.576 9.91205 31.544 10.0561 33.368 10.3441C35.192 10.6321 36.632 10.9441 37.688 11.28C38.792 11.5681 39.488 11.7601 39.776 11.8561L40.28 12.7921C40.136 13.4641 39.848 15.0241 39.416 17.4721C39.032 19.8721 38.744 22.4401 38.552 25.1761L33.08 25.6081L32.432 25.1041C32.432 24.9601 32.432 24.6721 32.432 24.2401C32.48 23.7601 32.504 23.2081 32.504 22.5841C32.504 20.4721 31.976 18.9841 30.92 18.1201C29.864 17.2081 28.088 16.7521 25.592 16.7521C23.576 16.7521 21.92 17.2321 20.624 18.1921C19.328 19.1521 18.68 20.376 18.68 21.864C18.68 23.4961 19.448 24.8881 20.984 26.0401C22.52 27.1441 24.896 28.4401 28.112 29.9281C30.8 31.2241 33.008 32.4001 34.736 33.4561C36.464 34.5121 37.928 35.8801 39.128 37.5601C40.328 39.1921 40.928 41.1121 40.928 43.3201C40.928 46.2001 40.088 48.7441 38.408 50.9521C36.776 53.1601 34.448 54.8641 31.424 56.0641C28.4 57.2641 24.896 57.8641 20.912 57.8641Z" stroke="#365FAB" stroke-width="6" mask="url(#path-1-outside-1_129_127)"/>
<path d="M66.0757 53.0401C67.2277 52.7521 68.0437 52.3201 68.5237 51.7441C69.0517 51.1201 69.3397 50.2081 69.3877 49.0081L69.6037 36.6961C69.6037 32.5201 68.0677 30.4321 64.9957 30.4321C63.3637 30.4321 61.2997 31.3201 58.8037 33.0961C58.3237 41.8321 58.0837 47.2081 58.0837 49.2241C58.0837 50.4721 58.2277 51.3361 58.5157 51.8161C58.8517 52.2481 59.4277 52.4641 60.2437 52.4641C60.5797 52.4641 60.9397 52.4401 61.3237 52.3921C61.7077 52.3441 61.9717 52.3201 62.1157 52.3201L62.2597 52.6801L61.5397 57.2161C61.0117 57.1681 60.0037 57.1201 58.5157 57.0721C57.0277 57.0241 55.4917 57.0001 53.9077 57.0001C52.3717 57.0001 50.6677 57.0481 48.7957 57.1441C46.9717 57.2881 45.7957 57.3841 45.2677 57.4321L45.9157 52.8241C47.3077 52.6801 48.2677 52.3201 48.7957 51.7441C49.3717 51.1681 49.6597 50.2081 49.6597 48.8641V33.7441C49.6597 32.0641 49.3957 30.9361 48.8677 30.3601C48.3877 29.7361 47.4757 29.4241 46.1317 29.4241H45.1957L44.9077 29.0641L45.2677 25.2481C48.0517 24.8161 50.7877 24.3601 53.4757 23.8801C56.2117 23.3521 57.9637 23.0161 58.7317 22.8721L59.3077 23.5921C59.2117 23.8801 59.0677 24.5281 58.8757 25.5361C58.6837 26.5441 58.5637 27.5521 58.5157 28.5601L58.8037 28.8481C60.3877 27.4561 62.1157 26.1121 63.9877 24.8161C65.8597 23.5201 67.2277 22.8721 68.0917 22.8721C71.4997 22.8721 74.1637 23.7121 76.0837 25.3921C78.0037 27.0241 78.9637 29.3041 78.9637 32.2321C78.9637 33.0001 78.7717 35.5441 78.3877 39.8641C77.9077 44.6641 77.6677 47.7601 77.6677 49.1521C77.6677 50.4001 77.8357 51.2881 78.1717 51.8161C78.5077 52.2961 79.0837 52.5361 79.8997 52.5361L82.0597 52.4641L82.2037 52.7521L81.5557 57.2161C80.9797 57.1681 79.9237 57.1201 78.3877 57.0721C76.8517 57.0241 75.2917 57.0001 73.7077 57.0001C72.5557 57.0001 71.0677 57.0721 69.2437 57.2161C67.4197 57.4081 66.2197 57.5281 65.6437 57.5761L66.0757 53.0401Z" stroke="#365FAB" stroke-width="6" mask="url(#path-1-outside-1_129_127)"/>
<path d="M104.33 36.1921C104.33 34.1281 103.778 32.5441 102.674 31.4401C101.618 30.2881 100.13 29.7121 98.2102 29.7121C97.0102 29.7121 95.5942 30.0481 93.9622 30.7201C92.3782 31.3441 90.9622 32.1361 89.7142 33.0961L89.1382 32.7361L87.7702 28.4161C90.6022 26.8321 93.2902 25.5121 95.8342 24.4561C98.3782 23.4001 100.13 22.8721 101.09 22.8721C104.882 22.8721 107.834 23.736 109.946 25.4641C112.106 27.1921 113.186 29.6161 113.186 32.7361C113.186 33.7441 112.97 35.9281 112.538 39.2881C112.01 43.9441 111.746 46.6801 111.746 47.4961C111.746 48.4081 111.962 49.1281 112.394 49.6561C112.874 50.1361 113.498 50.3761 114.266 50.3761C115.274 50.3761 116.426 49.9681 117.722 49.1521L118.802 50.6641C117.842 52.4401 116.69 54.0241 115.346 55.4161C114.05 56.7601 112.874 57.5761 111.818 57.8641C109.658 57.8641 107.954 57.4081 106.706 56.4961C105.506 55.5361 104.786 54.1441 104.546 52.3201L104.042 52.1041C102.362 53.7841 100.802 55.1281 99.3622 56.1361C97.9222 57.0961 96.8182 57.5761 96.0502 57.5761C94.2262 57.5761 92.5462 57.1201 91.0102 56.2081C89.5222 55.2961 88.3462 54.0481 87.4822 52.4641C86.6182 50.8321 86.1862 49.0321 86.1862 47.0641C86.1862 45.5281 86.5702 44.2321 87.3382 43.1761C88.1062 42.0721 89.1142 41.3761 90.3622 41.0881L104.258 37.8481L104.33 36.1921ZM96.5542 43.8961C95.4022 44.2321 94.8262 45.0001 94.8262 46.2001C94.8262 47.5921 95.1862 48.6721 95.9062 49.4401C96.6742 50.2081 97.7302 50.5921 99.0742 50.5921C99.7462 50.5921 100.514 50.4241 101.378 50.0881C102.242 49.7041 103.082 49.2001 103.898 48.5761L104.042 41.8081L96.5542 43.8961Z" stroke="#365FAB" stroke-width="6" mask="url(#path-1-outside-1_129_127)"/>
<path d="M121.359 69.5281C122.703 69.3841 123.591 69.0241 124.023 68.4481C124.455 67.8721 124.671 66.7441 124.671 65.0641L125.031 54.0481V33.7441C125.031 32.0641 124.767 30.9361 124.239 30.3601C123.759 29.7361 122.847 29.4241 121.503 29.4241H120.567L120.279 29.0641L120.639 25.2481C123.375 24.8161 126.087 24.3601 128.775 23.8801C131.463 23.3521 133.191 23.0161 133.959 22.8721L134.607 23.5921C134.559 23.8801 134.439 24.504 134.247 25.4641C134.055 26.376 133.911 27.2641 133.815 28.1281L134.103 28.4881C135.927 26.8081 137.463 25.5121 138.711 24.6001C140.007 23.6401 140.871 23.1601 141.303 23.1601C144.135 23.1601 146.631 23.8321 148.791 25.1761C150.951 26.4721 152.607 28.3201 153.759 30.7201C154.959 33.1201 155.559 35.8801 155.559 39.0001C155.559 42.6961 154.743 45.9601 153.111 48.7921C151.479 51.6241 149.223 53.8321 146.343 55.4161C143.463 56.9521 140.175 57.7201 136.479 57.7201C135.855 57.7201 135.231 57.6961 134.607 57.6481C134.031 57.6001 133.647 57.5521 133.455 57.5041V64.1281C133.455 66.0961 133.599 67.4161 133.887 68.0881C134.223 68.7601 134.943 69.0961 136.047 69.0961C136.767 69.0961 137.367 69.0721 137.847 69.0241C138.375 68.9761 138.759 68.9521 138.999 68.9521L139.143 69.2401L138.351 73.7041C137.343 73.7041 136.431 73.68 135.615 73.632L129.567 73.5601C127.887 73.5601 126.135 73.6081 124.311 73.7041C122.487 73.8481 121.311 73.9441 120.783 73.9921L121.359 69.5281ZM133.671 50.7361C135.543 51.4081 137.319 51.7441 138.999 51.7441C141.255 51.7441 143.007 50.8801 144.255 49.1521C145.551 47.3761 146.199 44.9041 146.199 41.7361C146.199 38.2321 145.551 35.4721 144.255 33.4561C143.007 31.3921 141.303 30.3601 139.143 30.3601C138.471 30.3601 137.679 30.5521 136.767 30.9361C135.855 31.3201 134.967 31.8241 134.103 32.4481C133.815 39.9361 133.671 46.0321 133.671 50.7361Z" stroke="#365FAB" stroke-width="6" mask="url(#path-1-outside-1_129_127)"/>
<path d="M158.292 49.2241C160.452 47.5921 162.348 46.7761 163.98 46.7761C165.42 46.7761 166.572 47.3521 167.436 48.5041C168.348 49.6561 168.804 51.2161 168.804 53.1841C168.804 55.6801 167.748 58.1761 165.636 60.6721C163.524 63.1681 160.908 65.3041 157.788 67.0801L155.124 64.9201V63.6961C156.66 62.6401 157.908 61.3681 158.868 59.8801C159.828 58.3921 160.308 56.9281 160.308 55.4881C160.308 54.5761 160.092 53.6401 159.66 52.6801C159.228 51.7201 158.7 50.9041 158.076 50.2321L158.292 49.2241Z" stroke="#365FAB" stroke-width="6" mask="url(#path-1-outside-1_129_127)"/>
<path d="M196.131 57.8641C193.875 57.8641 191.811 57.6481 189.939 57.2161C188.067 56.8321 186.507 56.4001 185.259 55.9201C184.011 55.4401 183.387 55.1761 183.387 55.1281L182.811 54.1201C182.859 53.7841 182.955 53.0641 183.099 51.9601C183.291 50.8081 183.483 49.2721 183.675 47.3521C183.867 45.4321 183.963 43.6081 183.963 41.8801L190.011 41.3761C190.011 44.0641 190.251 46.1281 190.731 47.5681C191.211 49.0081 192.003 50.0161 193.107 50.5921C194.259 51.1681 195.867 51.4561 197.931 51.4561C200.187 51.4561 201.987 50.9521 203.331 49.9441C204.723 48.9361 205.419 47.5921 205.419 45.9121C205.419 44.8081 205.035 43.8241 204.267 42.9601C203.499 42.0961 202.563 41.3521 201.459 40.7281C200.355 40.0561 198.747 39.1921 196.635 38.1361L194.763 37.2721C191.211 35.5441 188.427 33.7201 186.411 31.8001C184.395 29.8801 183.387 27.3841 183.387 24.3121C183.387 21.5281 184.203 19.0561 185.835 16.896C187.467 14.688 189.747 12.9841 192.675 11.7841C195.603 10.5361 198.939 9.91205 202.683 9.91205C204.795 9.91205 206.763 10.0561 208.587 10.3441C210.411 10.6321 211.851 10.9441 212.907 11.28C214.011 11.5681 214.707 11.7601 214.995 11.8561L215.499 12.7921C215.355 13.4641 215.067 15.0241 214.635 17.4721C214.251 19.8721 213.963 22.4401 213.771 25.1761L208.299 25.6081L207.651 25.1041C207.651 24.9601 207.651 24.6721 207.651 24.2401C207.699 23.7601 207.723 23.2081 207.723 22.5841C207.723 20.4721 207.195 18.9841 206.139 18.1201C205.083 17.2081 203.307 16.7521 200.811 16.7521C198.795 16.7521 197.139 17.2321 195.843 18.1921C194.547 19.1521 193.899 20.376 193.899 21.864C193.899 23.4961 194.667 24.8881 196.203 26.0401C197.739 27.1441 200.115 28.4401 203.331 29.9281C206.019 31.2241 208.227 32.4001 209.955 33.4561C211.683 34.5121 213.147 35.8801 214.347 37.5601C215.547 39.1921 216.147 41.1121 216.147 43.3201C216.147 46.2001 215.307 48.7441 213.627 50.9521C211.995 53.1601 209.667 54.8641 206.643 56.0641C203.619 57.2641 200.115 57.8641 196.131 57.8641Z" stroke="#365FAB" stroke-width="6" mask="url(#path-1-outside-1_129_127)"/>
<path d="M220.83 52.7521C222.126 52.6081 223.014 52.2721 223.494 51.7441C224.022 51.1681 224.286 50.2081 224.286 48.8641V14.0161C224.286 12.5281 224.07 11.4961 223.638 10.92C223.206 10.3441 222.39 10.0561 221.19 10.0561H219.534L219.246 9.69605L219.678 5.88005C222.414 5.54405 225.342 5.11205 228.462 4.58405C231.582 4.05605 233.598 3.72005 234.51 3.57605L235.014 4.94405C234.534 5.52005 234.126 7.94405 233.79 12.2161C233.454 16.488 233.19 22.128 232.998 29.1361C234.438 27.7921 236.142 26.4241 238.11 25.0321C240.126 23.5921 241.59 22.8721 242.502 22.8721C246.006 22.8721 248.694 23.6881 250.566 25.3201C252.438 26.9041 253.374 29.2081 253.374 32.2321C253.374 33.4321 253.158 35.9761 252.726 39.8641C252.246 44.6641 252.006 47.7601 252.006 49.1521C252.006 50.3521 252.174 51.2161 252.51 51.7441C252.894 52.2721 253.494 52.5361 254.31 52.5361L256.47 52.4641L256.614 52.7521L255.894 57.2161C255.318 57.1681 254.262 57.1201 252.726 57.0721C251.238 57.0241 249.702 57.0001 248.118 57.0001C246.966 57.0001 245.478 57.0721 243.654 57.2161C241.83 57.4081 240.63 57.5281 240.054 57.5761L240.414 53.0401C241.614 52.7521 242.454 52.3201 242.934 51.7441C243.462 51.1201 243.726 50.2081 243.726 49.0081L244.014 36.6961C244.062 32.5201 242.55 30.4321 239.478 30.4321C237.606 30.4321 235.422 31.4161 232.926 33.3841C232.83 36.6961 232.782 42.0001 232.782 49.2961C232.782 50.4961 232.926 51.3361 233.214 51.8161C233.55 52.2961 234.102 52.5361 234.87 52.5361C235.254 52.5361 235.614 52.5121 235.95 52.4641C236.334 52.4161 236.574 52.3921 236.67 52.3921L236.886 52.8241L236.166 57.2161C235.638 57.1681 234.606 57.1201 233.07 57.0721C231.534 57.0241 229.95 57.0001 228.318 57.0001C226.446 57.0001 224.742 57.0241 223.206 57.0721C221.718 57.1201 220.734 57.1681 220.254 57.2161L220.83 52.7521Z" stroke="#365FAB" stroke-width="6" mask="url(#path-1-outside-1_129_127)"/>
<path d="M278.354 36.1921C278.354 34.1281 277.802 32.5441 276.698 31.4401C275.642 30.2881 274.154 29.7121 272.234 29.7121C271.034 29.7121 269.618 30.0481 267.986 30.7201C266.402 31.3441 264.986 32.1361 263.738 33.0961L263.162 32.7361L261.794 28.4161C264.626 26.8321 267.314 25.5121 269.858 24.4561C272.402 23.4001 274.154 22.8721 275.114 22.8721C278.906 22.8721 281.858 23.736 283.97 25.4641C286.13 27.1921 287.21 29.6161 287.21 32.7361C287.21 33.7441 286.994 35.9281 286.562 39.2881C286.034 43.9441 285.77 46.6801 285.77 47.4961C285.77 48.4081 285.986 49.1281 286.418 49.6561C286.898 50.1361 287.522 50.3761 288.29 50.3761C289.298 50.3761 290.45 49.9681 291.746 49.1521L292.826 50.6641C291.866 52.4401 290.714 54.0241 289.37 55.4161C288.074 56.7601 286.898 57.5761 285.842 57.8641C283.682 57.8641 281.978 57.4081 280.73 56.4961C279.53 55.5361 278.81 54.1441 278.57 52.3201L278.066 52.1041C276.386 53.7841 274.826 55.1281 273.386 56.1361C271.946 57.0961 270.842 57.5761 270.074 57.5761C268.25 57.5761 266.57 57.1201 265.034 56.2081C263.546 55.2961 262.37 54.0481 261.506 52.4641C260.642 50.8321 260.21 49.0321 260.21 47.0641C260.21 45.5281 260.594 44.2321 261.362 43.1761C262.13 42.0721 263.138 41.3761 264.386 41.0881L278.282 37.8481L278.354 36.1921ZM270.578 43.8961C269.426 44.2321 268.85 45.0001 268.85 46.2001C268.85 47.5921 269.21 48.6721 269.93 49.4401C270.698 50.2081 271.754 50.5921 273.098 50.5921C273.77 50.5921 274.538 50.4241 275.402 50.0881C276.266 49.7041 277.106 49.2001 277.922 48.5761L278.066 41.8081L270.578 43.8961Z" stroke="#365FAB" stroke-width="6" mask="url(#path-1-outside-1_129_127)"/>
<path d="M295.815 52.8241C297.207 52.7281 298.143 52.3441 298.623 51.6721C299.151 51.0001 299.415 49.7521 299.415 47.9281V33.6721C299.415 31.9921 299.199 30.8641 298.767 30.2881C298.383 29.7121 297.591 29.4241 296.391 29.4241L295.023 29.4961L294.663 28.9921L295.023 25.2481C297.663 24.8641 300.327 24.4081 303.015 23.8801C305.751 23.3521 307.503 23.0161 308.271 22.8721L308.919 23.5201C308.823 23.9041 308.679 24.7921 308.487 26.1841C308.343 27.5761 308.247 28.9201 308.199 30.2161L308.631 30.5041C310.119 28.2961 311.751 26.5681 313.527 25.3201C315.351 24.0241 317.079 23.3761 318.711 23.3761C319.287 23.3761 319.815 23.4241 320.295 23.5201C320.775 23.5681 321.087 23.6161 321.231 23.6641L321.519 24.2401C321.375 25.0561 321.135 26.8561 320.799 29.6401C320.463 32.3761 320.223 34.9681 320.079 37.4161L315.327 37.7041C315.327 35.4001 315.183 33.8881 314.895 33.1681C314.655 32.4001 314.127 32.0161 313.311 32.0161C312.543 32.0161 311.727 32.3041 310.863 32.8801C310.047 33.4081 309.279 34.1521 308.559 35.1121C308.463 36.4081 308.319 38.5921 308.127 41.6641C307.983 44.6881 307.887 47.1121 307.839 48.9361C307.839 50.1841 308.031 51.0481 308.415 51.5281C308.847 52.0081 309.591 52.2481 310.647 52.2481C311.415 52.2481 312.159 52.2241 312.879 52.1761C313.599 52.0801 314.079 52.0081 314.319 51.9601L314.535 52.3921L313.743 57.2881C313.071 57.2401 311.799 57.1681 309.927 57.0721C308.103 57.0241 306.231 57.0001 304.311 57.0001C302.487 57.0001 300.639 57.0241 298.767 57.0721C296.943 57.1681 295.767 57.2401 295.239 57.2881L295.815 52.8241Z" stroke="#365FAB" stroke-width="6" mask="url(#path-1-outside-1_129_127)"/>
<path d="M332.918 40.8001C333.062 43.9681 333.902 46.4401 335.438 48.2161C337.022 49.9441 339.158 50.8081 341.846 50.8081C343.19 50.8081 344.51 50.6641 345.806 50.3761C347.102 50.0401 348.158 49.7041 348.974 49.3681C349.79 48.9841 350.318 48.7441 350.558 48.6481L351.062 48.8641L352.286 52.5361C352.286 52.5841 351.518 53.0881 349.982 54.0481C348.494 55.0081 346.814 55.8961 344.942 56.7121C343.118 57.4801 341.438 57.8641 339.902 57.8641C334.814 57.8641 330.806 56.3761 327.878 53.4001C324.998 50.4241 323.558 46.3681 323.558 41.2321C323.558 37.7761 324.302 34.6561 325.79 31.8721C327.278 29.0881 329.318 26.9041 331.91 25.3201C334.502 23.6881 337.406 22.8721 340.622 22.8721C348.734 22.8721 352.79 27.0001 352.79 35.2561C352.79 36.1201 352.718 36.9601 352.574 37.7761C352.43 38.5921 352.334 39.1201 352.286 39.3601L351.422 40.1521H332.918V40.8001ZM342.566 35.6161C343.094 35.5201 343.454 35.3761 343.646 35.1841C343.838 34.9921 343.934 34.5841 343.934 33.9601C343.934 30.4081 342.422 28.6321 339.398 28.6321C337.526 28.6321 336.014 29.2801 334.862 30.5761C333.758 31.8241 333.11 33.6721 332.918 36.1201L342.566 35.6161Z" stroke="#365FAB" stroke-width="6" mask="url(#path-1-outside-1_129_127)"/>
<path d="M356.995 49.2241C359.155 47.5921 361.051 46.7761 362.683 46.7761C364.123 46.7761 365.275 47.3521 366.139 48.5041C367.051 49.6561 367.507 51.2161 367.507 53.1841C367.507 55.6801 366.451 58.1761 364.339 60.6721C362.227 63.1681 359.611 65.3041 356.491 67.0801L353.827 64.9201V63.6961C355.363 62.6401 356.611 61.3681 357.571 59.8801C358.531 58.3921 359.011 56.9281 359.011 55.4881C359.011 54.5761 358.795 53.6401 358.363 52.6801C357.931 51.7201 357.403 50.9041 356.779 50.2321L356.995 49.2241Z" stroke="#365FAB" stroke-width="6" mask="url(#path-1-outside-1_129_127)"/>
<path d="M399.01 36.1921C399.01 34.1281 398.458 32.5441 397.354 31.4401C396.298 30.2881 394.81 29.7121 392.89 29.7121C391.69 29.7121 390.274 30.0481 388.642 30.7201C387.058 31.3441 385.642 32.1361 384.394 33.0961L383.818 32.7361L382.45 28.4161C385.282 26.8321 387.97 25.5121 390.514 24.4561C393.058 23.4001 394.81 22.8721 395.77 22.8721C399.562 22.8721 402.514 23.736 404.626 25.4641C406.786 27.1921 407.866 29.6161 407.866 32.7361C407.866 33.7441 407.65 35.9281 407.218 39.2881C406.69 43.9441 406.426 46.6801 406.426 47.4961C406.426 48.4081 406.642 49.1281 407.074 49.6561C407.554 50.1361 408.178 50.3761 408.946 50.3761C409.954 50.3761 411.106 49.9681 412.402 49.1521L413.482 50.6641C412.522 52.4401 411.37 54.0241 410.026 55.4161C408.73 56.7601 407.554 57.5761 406.498 57.8641C404.338 57.8641 402.634 57.4081 401.386 56.4961C400.186 55.5361 399.466 54.1441 399.226 52.3201L398.722 52.1041C397.042 53.7841 395.482 55.1281 394.042 56.1361C392.602 57.0961 391.498 57.5761 390.73 57.5761C388.906 57.5761 387.226 57.1201 385.69 56.2081C384.202 55.2961 383.026 54.0481 382.162 52.4641C381.298 50.8321 380.866 49.0321 380.866 47.0641C380.866 45.5281 381.25 44.2321 382.018 43.1761C382.786 42.0721 383.794 41.3761 385.042 41.0881L398.938 37.8481L399.01 36.1921ZM391.234 43.8961C390.082 44.2321 389.506 45.0001 389.506 46.2001C389.506 47.5921 389.866 48.6721 390.586 49.4401C391.354 50.2081 392.41 50.5921 393.754 50.5921C394.426 50.5921 395.194 50.4241 396.058 50.0881C396.922 49.7041 397.762 49.2001 398.578 48.5761L398.722 41.8081L391.234 43.8961Z" stroke="#365FAB" stroke-width="6" mask="url(#path-1-outside-1_129_127)"/>
<path d="M436.271 53.0401C437.423 52.7521 438.239 52.3201 438.719 51.7441C439.247 51.1201 439.535 50.2081 439.583 49.0081L439.799 36.6961C439.799 32.5201 438.263 30.4321 435.191 30.4321C433.559 30.4321 431.495 31.3201 428.999 33.0961C428.519 41.8321 428.279 47.2081 428.279 49.2241C428.279 50.4721 428.423 51.3361 428.711 51.8161C429.047 52.2481 429.623 52.4641 430.439 52.4641C430.775 52.4641 431.135 52.4401 431.519 52.3921C431.903 52.3441 432.167 52.3201 432.311 52.3201L432.455 52.6801L431.735 57.2161C431.207 57.1681 430.199 57.1201 428.711 57.0721C427.223 57.0241 425.687 57.0001 424.103 57.0001C422.567 57.0001 420.863 57.0481 418.991 57.1441C417.167 57.2881 415.991 57.3841 415.463 57.4321L416.111 52.8241C417.503 52.6801 418.463 52.3201 418.991 51.7441C419.567 51.1681 419.855 50.2081 419.855 48.8641V33.7441C419.855 32.0641 419.591 30.9361 419.063 30.3601C418.583 29.7361 417.671 29.4241 416.327 29.4241H415.391L415.103 29.0641L415.463 25.2481C418.247 24.8161 420.983 24.3601 423.671 23.8801C426.407 23.3521 428.159 23.0161 428.927 22.8721L429.503 23.5921C429.407 23.8801 429.263 24.5281 429.071 25.5361C428.879 26.5441 428.759 27.5521 428.711 28.5601L428.999 28.8481C430.583 27.4561 432.311 26.1121 434.183 24.8161C436.055 23.5201 437.423 22.8721 438.287 22.8721C441.695 22.8721 444.359 23.7121 446.279 25.3921C448.199 27.0241 449.159 29.3041 449.159 32.2321C449.159 33.0001 448.967 35.5441 448.583 39.8641C448.103 44.6641 447.863 47.7601 447.863 49.1521C447.863 50.4001 448.031 51.2881 448.367 51.8161C448.703 52.2961 449.279 52.5361 450.095 52.5361L452.255 52.4641L452.399 52.7521L451.751 57.2161C451.175 57.1681 450.119 57.1201 448.583 57.0721C447.047 57.0241 445.487 57.0001 443.903 57.0001C442.751 57.0001 441.263 57.0721 439.439 57.2161C437.615 57.4081 436.415 57.5281 435.839 57.5761L436.271 53.0401Z" stroke="#365FAB" stroke-width="6" mask="url(#path-1-outside-1_129_127)"/>
<path d="M478.27 52.5361C473.614 55.8961 470.83 57.5761 469.918 57.5761C465.694 57.5761 462.358 56.1601 459.91 53.3281C457.462 50.4961 456.238 46.6561 456.238 41.8081C456.238 38.2081 457.006 34.9921 458.542 32.1601C460.126 29.3281 462.286 27.1201 465.022 25.5361C467.758 23.9041 470.878 23.0881 474.382 23.0881C475.966 23.0881 477.19 23.1361 478.054 23.2321V14.1601C478.054 12.6721 477.814 11.6401 477.334 11.0641C476.902 10.4401 476.11 10.1281 474.958 10.1281C474.574 10.1281 474.214 10.1521 473.878 10.2001C473.542 10.248 473.326 10.2961 473.23 10.3441L473.734 5.95205C476.566 5.56805 479.446 5.13605 482.374 4.65605C485.35 4.12805 487.27 3.76805 488.134 3.57605L488.782 4.80005C488.158 5.71205 487.63 10.3681 487.198 18.7681C486.766 27.1681 486.55 36.7201 486.55 47.4241C486.55 48.3361 486.742 49.0561 487.126 49.5841C487.558 50.1121 488.11 50.3761 488.782 50.3761C489.31 50.3761 489.814 50.2801 490.294 50.0881C490.774 49.8961 491.158 49.7041 491.446 49.5121C491.782 49.3201 491.998 49.2001 492.094 49.1521L493.174 50.6641C493.03 50.9521 492.622 51.6001 491.95 52.6081C491.278 53.5681 490.414 54.6001 489.358 55.7041C488.302 56.7601 487.174 57.4801 485.974 57.8641C481.702 57.8641 479.302 56.1361 478.774 52.6801L478.27 52.5361ZM478.054 30.3601C477.958 30.3121 477.67 30.1921 477.19 30.0001C476.758 29.8081 476.158 29.6161 475.39 29.4241C474.622 29.2321 473.782 29.1361 472.87 29.1361C470.614 29.1361 468.838 30.0241 467.542 31.8001C466.294 33.5281 465.67 35.9761 465.67 39.1441C465.67 42.6961 466.294 45.5281 467.542 47.6401C468.838 49.7521 470.542 50.8081 472.654 50.8081C473.422 50.8081 474.214 50.6401 475.03 50.3041C475.846 49.9201 476.518 49.5601 477.046 49.2241C477.574 48.8401 477.91 48.5761 478.054 48.4321V30.3601Z" stroke="#365FAB" stroke-width="6" mask="url(#path-1-outside-1_129_127)"/>
<path d="M521.537 57.8641C519.281 57.8641 517.217 57.6481 515.345 57.2161C513.473 56.8321 511.913 56.4001 510.665 55.9201C509.417 55.4401 508.793 55.1761 508.793 55.1281L508.217 54.1201C508.265 53.7841 508.361 53.0641 508.505 51.9601C508.697 50.8081 508.889 49.2721 509.081 47.3521C509.273 45.4321 509.369 43.6081 509.369 41.8801L515.417 41.3761C515.417 44.0641 515.657 46.1281 516.137 47.5681C516.617 49.0081 517.409 50.0161 518.513 50.5921C519.665 51.1681 521.273 51.4561 523.337 51.4561C525.593 51.4561 527.393 50.9521 528.737 49.9441C530.129 48.9361 530.825 47.5921 530.825 45.9121C530.825 44.8081 530.441 43.8241 529.673 42.9601C528.905 42.0961 527.969 41.3521 526.865 40.7281C525.761 40.0561 524.153 39.1921 522.041 38.1361L520.169 37.2721C516.617 35.5441 513.833 33.7201 511.817 31.8001C509.801 29.8801 508.793 27.3841 508.793 24.3121C508.793 21.5281 509.609 19.0561 511.241 16.896C512.873 14.688 515.153 12.9841 518.081 11.7841C521.009 10.5361 524.345 9.91205 528.089 9.91205C530.201 9.91205 532.169 10.0561 533.993 10.3441C535.817 10.6321 537.257 10.9441 538.313 11.28C539.417 11.5681 540.113 11.7601 540.401 11.8561L540.905 12.7921C540.761 13.4641 540.473 15.0241 540.041 17.4721C539.657 19.8721 539.369 22.4401 539.177 25.1761L533.705 25.6081L533.057 25.1041C533.057 24.9601 533.057 24.6721 533.057 24.2401C533.105 23.7601 533.129 23.2081 533.129 22.5841C533.129 20.4721 532.601 18.9841 531.545 18.1201C530.489 17.2081 528.713 16.7521 526.217 16.7521C524.201 16.7521 522.545 17.2321 521.249 18.1921C519.953 19.1521 519.305 20.376 519.305 21.864C519.305 23.4961 520.073 24.8881 521.609 26.0401C523.145 27.1441 525.521 28.4401 528.737 29.9281C531.425 31.2241 533.633 32.4001 535.361 33.4561C537.089 34.5121 538.553 35.8801 539.753 37.5601C540.953 39.1921 541.553 41.1121 541.553 43.3201C541.553 46.2001 540.713 48.7441 539.033 50.9521C537.401 53.1601 535.073 54.8641 532.049 56.0641C529.025 57.2641 525.521 57.8641 521.537 57.8641Z" stroke="#365FAB" stroke-width="6" mask="url(#path-1-outside-1_129_127)"/>
<path d="M546.236 52.7521C547.532 52.6081 548.42 52.2721 548.9 51.7441C549.428 51.1681 549.692 50.2081 549.692 48.8641V14.0161C549.692 12.5281 549.476 11.4961 549.044 10.92C548.612 10.3441 547.796 10.0561 546.596 10.0561H544.94L544.652 9.69605L545.084 5.88005C547.82 5.54405 550.748 5.11205 553.868 4.58405C556.988 4.05605 559.004 3.72005 559.916 3.57605L560.42 4.94405C559.94 5.52005 559.532 7.94405 559.196 12.2161C558.86 16.488 558.596 22.128 558.404 29.1361C559.844 27.7921 561.548 26.4241 563.516 25.0321C565.532 23.5921 566.996 22.8721 567.908 22.8721C571.412 22.8721 574.1 23.6881 575.972 25.3201C577.844 26.9041 578.78 29.2081 578.78 32.2321C578.78 33.4321 578.564 35.9761 578.132 39.8641C577.652 44.6641 577.412 47.7601 577.412 49.1521C577.412 50.3521 577.58 51.2161 577.916 51.7441C578.3 52.2721 578.9 52.5361 579.716 52.5361L581.876 52.4641L582.02 52.7521L581.3 57.2161C580.724 57.1681 579.668 57.1201 578.132 57.0721C576.644 57.0241 575.108 57.0001 573.524 57.0001C572.372 57.0001 570.884 57.0721 569.06 57.2161C567.236 57.4081 566.036 57.5281 565.46 57.5761L565.82 53.0401C567.02 52.7521 567.86 52.3201 568.34 51.7441C568.868 51.1201 569.132 50.2081 569.132 49.0081L569.42 36.6961C569.468 32.5201 567.956 30.4321 564.884 30.4321C563.012 30.4321 560.828 31.4161 558.332 33.3841C558.236 36.6961 558.188 42.0001 558.188 49.2961C558.188 50.4961 558.332 51.3361 558.62 51.8161C558.956 52.2961 559.508 52.5361 560.276 52.5361C560.66 52.5361 561.02 52.5121 561.356 52.4641C561.74 52.4161 561.98 52.3921 562.076 52.3921L562.292 52.8241L561.572 57.2161C561.044 57.1681 560.012 57.1201 558.476 57.0721C556.94 57.0241 555.356 57.0001 553.724 57.0001C551.852 57.0001 550.148 57.0241 548.612 57.0721C547.124 57.1201 546.14 57.1681 545.66 57.2161L546.236 52.7521Z" stroke="#365FAB" stroke-width="6" mask="url(#path-1-outside-1_129_127)"/>
<path d="M594.4 15.6721C592.768 15.6721 591.496 15.2161 590.584 14.304C589.72 13.392 589.288 12.12 589.288 10.4881C589.288 8.76005 589.816 7.36805 590.872 6.31205C591.928 5.25605 593.32 4.72805 595.048 4.72805C596.584 4.72805 597.808 5.18405 598.72 6.09605C599.632 7.00805 600.088 8.28005 600.088 9.91205C600.088 11.6401 599.56 13.0321 598.504 14.0881C597.448 15.1441 596.08 15.6721 594.4 15.6721ZM586.12 53.1841C587.56 52.9441 588.592 52.4641 589.216 51.7441C589.888 51.0241 590.224 50.0161 590.224 48.7201V33.3121C590.224 31.8241 589.984 30.7921 589.504 30.2161C589.072 29.5921 588.304 29.2801 587.2 29.2801C586.816 29.2801 586.456 29.3041 586.12 29.3521C585.784 29.4001 585.568 29.4481 585.472 29.4961L585.904 25.2481C588.688 24.9121 591.472 24.4801 594.256 23.9521C597.088 23.4241 598.912 23.0641 599.728 22.8721L600.376 24.0961C599.896 25.1521 599.488 28.0081 599.152 32.6641C598.864 37.3201 598.72 42.8881 598.72 49.3681C598.72 50.5201 598.888 51.3361 599.224 51.8161C599.56 52.2961 600.112 52.5361 600.88 52.5361C601.312 52.5361 601.72 52.5121 602.104 52.4641C602.536 52.4161 602.824 52.3921 602.968 52.3921L603.184 52.6801L602.464 57.2161C601.888 57.1681 600.832 57.1201 599.296 57.0721C597.76 57.0241 596.152 57.0001 594.472 57.0001C592.984 57.0001 591.28 57.0961 589.36 57.2881C587.44 57.5281 586.192 57.6961 585.616 57.7921L586.12 53.1841Z" stroke="#365FAB" stroke-width="6" mask="url(#path-1-outside-1_129_127)"/>
<path d="M627.662 53.0401C628.814 52.7521 629.63 52.3201 630.11 51.7441C630.638 51.1201 630.926 50.2081 630.974 49.0081L631.19 36.6961C631.19 32.5201 629.654 30.4321 626.582 30.4321C624.95 30.4321 622.886 31.3201 620.39 33.0961C619.91 41.8321 619.67 47.2081 619.67 49.2241C619.67 50.4721 619.814 51.3361 620.102 51.8161C620.438 52.2481 621.014 52.4641 621.83 52.4641C622.166 52.4641 622.526 52.4401 622.91 52.3921C623.294 52.3441 623.558 52.3201 623.702 52.3201L623.846 52.6801L623.126 57.2161C622.598 57.1681 621.59 57.1201 620.102 57.0721C618.614 57.0241 617.078 57.0001 615.494 57.0001C613.958 57.0001 612.254 57.0481 610.382 57.1441C608.558 57.2881 607.382 57.3841 606.854 57.4321L607.502 52.8241C608.894 52.6801 609.854 52.3201 610.382 51.7441C610.958 51.1681 611.246 50.2081 611.246 48.8641V33.7441C611.246 32.0641 610.982 30.9361 610.454 30.3601C609.974 29.7361 609.062 29.4241 607.718 29.4241H606.782L606.494 29.0641L606.854 25.2481C609.638 24.8161 612.374 24.3601 615.062 23.8801C617.798 23.3521 619.55 23.0161 620.318 22.8721L620.894 23.5921C620.798 23.8801 620.654 24.5281 620.462 25.5361C620.27 26.5441 620.15 27.5521 620.102 28.5601L620.39 28.8481C621.974 27.4561 623.702 26.1121 625.574 24.8161C627.446 23.5201 628.814 22.8721 629.678 22.8721C633.086 22.8721 635.75 23.7121 637.67 25.3921C639.59 27.0241 640.55 29.3041 640.55 32.2321C640.55 33.0001 640.358 35.5441 639.974 39.8641C639.494 44.6641 639.254 47.7601 639.254 49.1521C639.254 50.4001 639.422 51.2881 639.758 51.8161C640.094 52.2961 640.67 52.5361 641.486 52.5361L643.646 52.4641L643.79 52.7521L643.142 57.2161C642.566 57.1681 641.51 57.1201 639.974 57.0721C638.438 57.0241 636.878 57.0001 635.294 57.0001C634.142 57.0001 632.654 57.0721 630.83 57.2161C629.006 57.4081 627.806 57.5281 627.23 57.5761L627.662 53.0401Z" stroke="#365FAB" stroke-width="6" mask="url(#path-1-outside-1_129_127)"/>
<path d="M656.988 40.8001C657.132 43.9681 657.972 46.4401 659.508 48.2161C661.092 49.9441 663.228 50.8081 665.916 50.8081C667.26 50.8081 668.58 50.6641 669.876 50.3761C671.172 50.0401 672.228 49.7041 673.044 49.3681C673.86 48.9841 674.388 48.7441 674.628 48.6481L675.132 48.8641L676.356 52.5361C676.356 52.5841 675.588 53.0881 674.052 54.0481C672.564 55.0081 670.884 55.8961 669.012 56.7121C667.188 57.4801 665.508 57.8641 663.972 57.8641C658.884 57.8641 654.876 56.3761 651.948 53.4001C649.068 50.4241 647.628 46.3681 647.628 41.2321C647.628 37.7761 648.372 34.6561 649.86 31.8721C651.348 29.0881 653.388 26.9041 655.98 25.3201C658.572 23.6881 661.476 22.8721 664.692 22.8721C672.804 22.8721 676.86 27.0001 676.86 35.2561C676.86 36.1201 676.788 36.9601 676.644 37.7761C676.5 38.5921 676.404 39.1201 676.356 39.3601L675.492 40.1521H656.988V40.8001ZM666.636 35.6161C667.164 35.5201 667.524 35.3761 667.716 35.1841C667.908 34.9921 668.004 34.5841 668.004 33.9601C668.004 30.4081 666.492 28.6321 663.468 28.6321C661.596 28.6321 660.084 29.2801 658.932 30.5761C657.828 31.8241 657.18 33.6721 656.988 36.1201L666.636 35.6161Z" stroke="#365FAB" stroke-width="6" mask="url(#path-1-outside-1_129_127)"/>
</g>
<defs>
<filter id="filter0_d_129_127" x="0.476685" y="0.151489" width="683.383" height="85.167" filterUnits="userSpaceOnUse" color-interpolation-filters="sRGB">
<feFlood flood-opacity="0" result="BackgroundImageFix"/>
<feColorMatrix in="SourceAlpha" type="matrix" values="0 0 0 0 0 0 0 0 0 0 0 0 0 0 0 0 0 0 127 0" result="hardAlpha"/>
<feOffset dy="4"/>
<feGaussianBlur stdDeviation="2"/>
<feComposite in2="hardAlpha" operator="out"/>
<feColorMatrix type="matrix" values="0 0 0 0 0 0 0 0 0 0 0 0 0 0 0 0 0 0 0.25 0"/>
<feBlend mode="normal" in2="BackgroundImageFix" result="effect1_dropShadow_129_127"/>
<feBlend mode="normal" in="SourceGraphic" in2="effect1_dropShadow_129_127" result="shape"/>
</filter>
</defs>
</svg>
