<svg width="375" height="149" viewBox="0 0 375 149" fill="none" xmlns="http://www.w3.org/2000/svg">
<g filter="url(#filter0_d_141_149)">
<mask id="path-1-outside-1_141_149" maskUnits="userSpaceOnUse" x="3.59204" y="-0.424004" width="367" height="141" fill="black">
<rect fill="white" x="3.59204" y="-0.424004" width="367" height="141"/>
<path d="M20.912 57.864C18.656 57.864 16.592 57.648 14.72 57.216C12.848 56.832 11.288 56.4 10.04 55.92C8.79204 55.44 8.16804 55.176 8.16804 55.128L7.59204 54.12C7.64004 53.784 7.73604 53.064 7.88004 51.96C8.07204 50.808 8.26404 49.272 8.45604 47.352C8.64804 45.432 8.74404 43.608 8.74404 41.88L14.792 41.376C14.792 44.064 15.032 46.128 15.512 47.568C15.992 49.008 16.784 50.016 17.888 50.592C19.04 51.168 20.648 51.456 22.712 51.456C24.968 51.456 26.768 50.952 28.112 49.944C29.504 48.936 30.2 47.592 30.2 45.912C30.2 44.808 29.816 43.824 29.048 42.96C28.28 42.096 27.344 41.352 26.24 40.728C25.136 40.056 23.528 39.192 21.416 38.136L19.544 37.272C15.992 35.544 13.208 33.72 11.192 31.8C9.17604 29.88 8.16804 27.384 8.16804 24.312C8.16804 21.528 8.98404 19.056 10.616 16.896C12.248 14.688 14.528 12.984 17.456 11.784C20.384 10.536 23.72 9.912 27.464 9.912C29.576 9.912 31.544 10.056 33.368 10.344C35.192 10.632 36.632 10.944 37.688 11.28C38.792 11.568 39.488 11.76 39.776 11.856L40.28 12.792C40.136 13.464 39.848 15.024 39.416 17.472C39.032 19.872 38.744 22.44 38.552 25.176L33.08 25.608L32.432 25.104C32.432 24.96 32.432 24.672 32.432 24.24C32.48 23.76 32.504 23.208 32.504 22.584C32.504 20.472 31.976 18.984 30.92 18.12C29.864 17.208 28.088 16.752 25.592 16.752C23.576 16.752 21.92 17.232 20.624 18.192C19.328 19.152 18.68 20.376 18.68 21.864C18.68 23.496 19.448 24.888 20.984 26.04C22.52 27.144 24.896 28.44 28.112 29.928C30.8 31.224 33.008 32.4 34.736 33.456C36.464 34.512 37.928 35.88 39.128 37.56C40.328 39.192 40.928 41.112 40.928 43.32C40.928 46.2 40.088 48.744 38.408 50.952C36.776 53.16 34.448 54.864 31.424 56.064C28.4 57.264 24.896 57.864 20.912 57.864Z"/>
<path d="M66.0757 53.04C67.2277 52.752 68.0437 52.32 68.5237 51.744C69.0517 51.12 69.3397 50.208 69.3877 49.008L69.6037 36.696C69.6037 32.52 68.0677 30.432 64.9957 30.432C63.3637 30.432 61.2997 31.32 58.8037 33.096C58.3237 41.832 58.0837 47.208 58.0837 49.224C58.0837 50.472 58.2277 51.336 58.5157 51.816C58.8517 52.248 59.4277 52.464 60.2437 52.464C60.5797 52.464 60.9397 52.44 61.3237 52.392C61.7077 52.344 61.9717 52.32 62.1157 52.32L62.2597 52.68L61.5397 57.216C61.0117 57.168 60.0037 57.12 58.5157 57.072C57.0277 57.024 55.4917 57 53.9077 57C52.3717 57 50.6677 57.048 48.7957 57.144C46.9717 57.288 45.7957 57.384 45.2677 57.432L45.9157 52.824C47.3077 52.68 48.2677 52.32 48.7957 51.744C49.3717 51.168 49.6597 50.208 49.6597 48.864V33.744C49.6597 32.064 49.3957 30.936 48.8677 30.36C48.3877 29.736 47.4757 29.424 46.1317 29.424H45.1957L44.9077 29.064L45.2677 25.248C48.0517 24.816 50.7877 24.36 53.4757 23.88C56.2117 23.352 57.9637 23.016 58.7317 22.872L59.3077 23.592C59.2117 23.88 59.0677 24.528 58.8757 25.536C58.6837 26.544 58.5637 27.552 58.5157 28.56L58.8037 28.848C60.3877 27.456 62.1157 26.112 63.9877 24.816C65.8597 23.52 67.2277 22.872 68.0917 22.872C71.4997 22.872 74.1637 23.712 76.0837 25.392C78.0037 27.024 78.9637 29.304 78.9637 32.232C78.9637 33 78.7717 35.544 78.3877 39.864C77.9077 44.664 77.6677 47.76 77.6677 49.152C77.6677 50.4 77.8357 51.288 78.1717 51.816C78.5077 52.296 79.0837 52.536 79.8997 52.536L82.0597 52.464L82.2037 52.752L81.5557 57.216C80.9797 57.168 79.9237 57.12 78.3877 57.072C76.8517 57.024 75.2917 57 73.7077 57C72.5557 57 71.0677 57.072 69.2437 57.216C67.4197 57.408 66.2197 57.528 65.6437 57.576L66.0757 53.04Z"/>
<path d="M104.33 36.192C104.33 34.128 103.778 32.544 102.674 31.44C101.618 30.288 100.13 29.712 98.2102 29.712C97.0102 29.712 95.5942 30.048 93.9622 30.72C92.3782 31.344 90.9622 32.136 89.7142 33.096L89.1382 32.736L87.7702 28.416C90.6022 26.832 93.2902 25.512 95.8342 24.456C98.3782 23.4 100.13 22.872 101.09 22.872C104.882 22.872 107.834 23.736 109.946 25.464C112.106 27.192 113.186 29.616 113.186 32.736C113.186 33.744 112.97 35.928 112.538 39.288C112.01 43.944 111.746 46.68 111.746 47.496C111.746 48.408 111.962 49.128 112.394 49.656C112.874 50.136 113.498 50.376 114.266 50.376C115.274 50.376 116.426 49.968 117.722 49.152L118.802 50.664C117.842 52.44 116.69 54.024 115.346 55.416C114.05 56.76 112.874 57.576 111.818 57.864C109.658 57.864 107.954 57.408 106.706 56.496C105.506 55.536 104.786 54.144 104.546 52.32L104.042 52.104C102.362 53.784 100.802 55.128 99.3622 56.136C97.9222 57.096 96.8182 57.576 96.0502 57.576C94.2262 57.576 92.5462 57.12 91.0102 56.208C89.5222 55.296 88.3462 54.048 87.4822 52.464C86.6182 50.832 86.1862 49.032 86.1862 47.064C86.1862 45.528 86.5702 44.232 87.3382 43.176C88.1062 42.072 89.1142 41.376 90.3622 41.088L104.258 37.848L104.33 36.192ZM96.5542 43.896C95.4022 44.232 94.8262 45 94.8262 46.2C94.8262 47.592 95.1862 48.672 95.9062 49.44C96.6742 50.208 97.7302 50.592 99.0742 50.592C99.7462 50.592 100.514 50.424 101.378 50.088C102.242 49.704 103.082 49.2 103.898 48.576L104.042 41.808L96.5542 43.896Z"/>
<path d="M121.359 69.528C122.703 69.384 123.591 69.024 124.023 68.448C124.455 67.872 124.671 66.744 124.671 65.064L125.031 54.048V33.744C125.031 32.064 124.767 30.936 124.239 30.36C123.759 29.736 122.847 29.424 121.503 29.424H120.567L120.279 29.064L120.639 25.248C123.375 24.816 126.087 24.36 128.775 23.88C131.463 23.352 133.191 23.016 133.959 22.872L134.607 23.592C134.559 23.88 134.439 24.504 134.247 25.464C134.055 26.376 133.911 27.264 133.815 28.128L134.103 28.488C135.927 26.808 137.463 25.512 138.711 24.6C140.007 23.64 140.871 23.16 141.303 23.16C144.135 23.16 146.631 23.832 148.791 25.176C150.951 26.472 152.607 28.32 153.759 30.72C154.959 33.12 155.559 35.88 155.559 39C155.559 42.696 154.743 45.96 153.111 48.792C151.479 51.624 149.223 53.832 146.343 55.416C143.463 56.952 140.175 57.72 136.479 57.72C135.855 57.72 135.231 57.696 134.607 57.648C134.031 57.6 133.647 57.552 133.455 57.504V64.128C133.455 66.096 133.599 67.416 133.887 68.088C134.223 68.76 134.943 69.096 136.047 69.096C136.767 69.096 137.367 69.072 137.847 69.024C138.375 68.976 138.759 68.952 138.999 68.952L139.143 69.24L138.351 73.704C137.343 73.704 136.431 73.68 135.615 73.632L129.567 73.56C127.887 73.56 126.135 73.608 124.311 73.704C122.487 73.848 121.311 73.944 120.783 73.992L121.359 69.528ZM133.671 50.736C135.543 51.408 137.319 51.744 138.999 51.744C141.255 51.744 143.007 50.88 144.255 49.152C145.551 47.376 146.199 44.904 146.199 41.736C146.199 38.232 145.551 35.472 144.255 33.456C143.007 31.392 141.303 30.36 139.143 30.36C138.471 30.36 137.679 30.552 136.767 30.936C135.855 31.32 134.967 31.824 134.103 32.448C133.815 39.936 133.671 46.032 133.671 50.736Z"/>
<path d="M158.292 49.224C160.452 47.592 162.348 46.776 163.98 46.776C165.42 46.776 166.572 47.352 167.436 48.504C168.348 49.656 168.804 51.216 168.804 53.184C168.804 55.68 167.748 58.176 165.636 60.672C163.524 63.168 160.908 65.304 157.788 67.08L155.124 64.92V63.696C156.66 62.64 157.908 61.368 158.868 59.88C159.828 58.392 160.308 56.928 160.308 55.488C160.308 54.576 160.092 53.64 159.66 52.68C159.228 51.72 158.7 50.904 158.076 50.232L158.292 49.224Z"/>
<path d="M196.131 57.864C193.875 57.864 191.811 57.648 189.939 57.216C188.067 56.832 186.507 56.4 185.259 55.92C184.011 55.44 183.387 55.176 183.387 55.128L182.811 54.12C182.859 53.784 182.955 53.064 183.099 51.96C183.291 50.808 183.483 49.272 183.675 47.352C183.867 45.432 183.963 43.608 183.963 41.88L190.011 41.376C190.011 44.064 190.251 46.128 190.731 47.568C191.211 49.008 192.003 50.016 193.107 50.592C194.259 51.168 195.867 51.456 197.931 51.456C200.187 51.456 201.987 50.952 203.331 49.944C204.723 48.936 205.419 47.592 205.419 45.912C205.419 44.808 205.035 43.824 204.267 42.96C203.499 42.096 202.563 41.352 201.459 40.728C200.355 40.056 198.747 39.192 196.635 38.136L194.763 37.272C191.211 35.544 188.427 33.72 186.411 31.8C184.395 29.88 183.387 27.384 183.387 24.312C183.387 21.528 184.203 19.056 185.835 16.896C187.467 14.688 189.747 12.984 192.675 11.784C195.603 10.536 198.939 9.912 202.683 9.912C204.795 9.912 206.763 10.056 208.587 10.344C210.411 10.632 211.851 10.944 212.907 11.28C214.011 11.568 214.707 11.76 214.995 11.856L215.499 12.792C215.355 13.464 215.067 15.024 214.635 17.472C214.251 19.872 213.963 22.44 213.771 25.176L208.299 25.608L207.651 25.104C207.651 24.96 207.651 24.672 207.651 24.24C207.699 23.76 207.723 23.208 207.723 22.584C207.723 20.472 207.195 18.984 206.139 18.12C205.083 17.208 203.307 16.752 200.811 16.752C198.795 16.752 197.139 17.232 195.843 18.192C194.547 19.152 193.899 20.376 193.899 21.864C193.899 23.496 194.667 24.888 196.203 26.04C197.739 27.144 200.115 28.44 203.331 29.928C206.019 31.224 208.227 32.4 209.955 33.456C211.683 34.512 213.147 35.88 214.347 37.56C215.547 39.192 216.147 41.112 216.147 43.32C216.147 46.2 215.307 48.744 213.627 50.952C211.995 53.16 209.667 54.864 206.643 56.064C203.619 57.264 200.115 57.864 196.131 57.864Z"/>
<path d="M220.83 52.752C222.126 52.608 223.014 52.272 223.494 51.744C224.022 51.168 224.286 50.208 224.286 48.864V14.016C224.286 12.528 224.07 11.496 223.638 10.92C223.206 10.344 222.39 10.056 221.19 10.056H219.534L219.246 9.696L219.678 5.88C222.414 5.544 225.342 5.112 228.462 4.584C231.582 4.056 233.598 3.72 234.51 3.576L235.014 4.944C234.534 5.52 234.126 7.944 233.79 12.216C233.454 16.488 233.19 22.128 232.998 29.136C234.438 27.792 236.142 26.424 238.11 25.032C240.126 23.592 241.59 22.872 242.502 22.872C246.006 22.872 248.694 23.688 250.566 25.32C252.438 26.904 253.374 29.208 253.374 32.232C253.374 33.432 253.158 35.976 252.726 39.864C252.246 44.664 252.006 47.76 252.006 49.152C252.006 50.352 252.174 51.216 252.51 51.744C252.894 52.272 253.494 52.536 254.31 52.536L256.47 52.464L256.614 52.752L255.894 57.216C255.318 57.168 254.262 57.12 252.726 57.072C251.238 57.024 249.702 57 248.118 57C246.966 57 245.478 57.072 243.654 57.216C241.83 57.408 240.63 57.528 240.054 57.576L240.414 53.04C241.614 52.752 242.454 52.32 242.934 51.744C243.462 51.12 243.726 50.208 243.726 49.008L244.014 36.696C244.062 32.52 242.55 30.432 239.478 30.432C237.606 30.432 235.422 31.416 232.926 33.384C232.83 36.696 232.782 42 232.782 49.296C232.782 50.496 232.926 51.336 233.214 51.816C233.55 52.296 234.102 52.536 234.87 52.536C235.254 52.536 235.614 52.512 235.95 52.464C236.334 52.416 236.574 52.392 236.67 52.392L236.886 52.824L236.166 57.216C235.638 57.168 234.606 57.12 233.07 57.072C231.534 57.024 229.95 57 228.318 57C226.446 57 224.742 57.024 223.206 57.072C221.718 57.12 220.734 57.168 220.254 57.216L220.83 52.752Z"/>
<path d="M278.354 36.192C278.354 34.128 277.802 32.544 276.698 31.44C275.642 30.288 274.154 29.712 272.234 29.712C271.034 29.712 269.618 30.048 267.986 30.72C266.402 31.344 264.986 32.136 263.738 33.096L263.162 32.736L261.794 28.416C264.626 26.832 267.314 25.512 269.858 24.456C272.402 23.4 274.154 22.872 275.114 22.872C278.906 22.872 281.858 23.736 283.97 25.464C286.13 27.192 287.21 29.616 287.21 32.736C287.21 33.744 286.994 35.928 286.562 39.288C286.034 43.944 285.77 46.68 285.77 47.496C285.77 48.408 285.986 49.128 286.418 49.656C286.898 50.136 287.522 50.376 288.29 50.376C289.298 50.376 290.45 49.968 291.746 49.152L292.826 50.664C291.866 52.44 290.714 54.024 289.37 55.416C288.074 56.76 286.898 57.576 285.842 57.864C283.682 57.864 281.978 57.408 280.73 56.496C279.53 55.536 278.81 54.144 278.57 52.32L278.066 52.104C276.386 53.784 274.826 55.128 273.386 56.136C271.946 57.096 270.842 57.576 270.074 57.576C268.25 57.576 266.57 57.12 265.034 56.208C263.546 55.296 262.37 54.048 261.506 52.464C260.642 50.832 260.21 49.032 260.21 47.064C260.21 45.528 260.594 44.232 261.362 43.176C262.13 42.072 263.138 41.376 264.386 41.088L278.282 37.848L278.354 36.192ZM270.578 43.896C269.426 44.232 268.85 45 268.85 46.2C268.85 47.592 269.21 48.672 269.93 49.44C270.698 50.208 271.754 50.592 273.098 50.592C273.77 50.592 274.538 50.424 275.402 50.088C276.266 49.704 277.106 49.2 277.922 48.576L278.066 41.808L270.578 43.896Z"/>
<path d="M295.815 52.824C297.207 52.728 298.143 52.344 298.623 51.672C299.151 51 299.415 49.752 299.415 47.928V33.672C299.415 31.992 299.199 30.864 298.767 30.288C298.383 29.712 297.591 29.424 296.391 29.424L295.023 29.496L294.663 28.992L295.023 25.248C297.663 24.864 300.327 24.408 303.015 23.88C305.751 23.352 307.503 23.016 308.271 22.872L308.919 23.52C308.823 23.904 308.679 24.792 308.487 26.184C308.343 27.576 308.247 28.92 308.199 30.216L308.631 30.504C310.119 28.296 311.751 26.568 313.527 25.32C315.351 24.024 317.079 23.376 318.711 23.376C319.287 23.376 319.815 23.424 320.295 23.52C320.775 23.568 321.087 23.616 321.231 23.664L321.519 24.24C321.375 25.056 321.135 26.856 320.799 29.64C320.463 32.376 320.223 34.968 320.079 37.416L315.327 37.704C315.327 35.4 315.183 33.888 314.895 33.168C314.655 32.4 314.127 32.016 313.311 32.016C312.543 32.016 311.727 32.304 310.863 32.88C310.047 33.408 309.279 34.152 308.559 35.112C308.463 36.408 308.319 38.592 308.127 41.664C307.983 44.688 307.887 47.112 307.839 48.936C307.839 50.184 308.031 51.048 308.415 51.528C308.847 52.008 309.591 52.248 310.647 52.248C311.415 52.248 312.159 52.224 312.879 52.176C313.599 52.08 314.079 52.008 314.319 51.96L314.535 52.392L313.743 57.288C313.071 57.24 311.799 57.168 309.927 57.072C308.103 57.024 306.231 57 304.311 57C302.487 57 300.639 57.024 298.767 57.072C296.943 57.168 295.767 57.24 295.239 57.288L295.815 52.824Z"/>
<path d="M332.918 40.8C333.062 43.968 333.902 46.44 335.438 48.216C337.022 49.944 339.158 50.808 341.846 50.808C343.19 50.808 344.51 50.664 345.806 50.376C347.102 50.04 348.158 49.704 348.974 49.368C349.79 48.984 350.318 48.744 350.558 48.648L351.062 48.864L352.286 52.536C352.286 52.584 351.518 53.088 349.982 54.048C348.494 55.008 346.814 55.896 344.942 56.712C343.118 57.48 341.438 57.864 339.902 57.864C334.814 57.864 330.806 56.376 327.878 53.4C324.998 50.424 323.558 46.368 323.558 41.232C323.558 37.776 324.302 34.656 325.79 31.872C327.278 29.088 329.318 26.904 331.91 25.32C334.502 23.688 337.406 22.872 340.622 22.872C348.734 22.872 352.79 27 352.79 35.256C352.79 36.12 352.718 36.96 352.574 37.776C352.43 38.592 352.334 39.12 352.286 39.36L351.422 40.152H332.918V40.8ZM342.566 35.616C343.094 35.52 343.454 35.376 343.646 35.184C343.838 34.992 343.934 34.584 343.934 33.96C343.934 30.408 342.422 28.632 339.398 28.632C337.526 28.632 336.014 29.28 334.862 30.576C333.758 31.824 333.11 33.672 332.918 36.12L342.566 35.616Z"/>
<path d="M356.995 49.224C359.155 47.592 361.051 46.776 362.683 46.776C364.123 46.776 365.275 47.352 366.139 48.504C367.051 49.656 367.507 51.216 367.507 53.184C367.507 55.68 366.451 58.176 364.339 60.672C362.227 63.168 359.611 65.304 356.491 67.08L353.827 64.92V63.696C355.363 62.64 356.611 61.368 357.571 59.88C358.531 58.392 359.011 56.928 359.011 55.488C359.011 54.576 358.795 53.64 358.363 52.68C357.931 51.72 357.403 50.904 356.779 50.232L356.995 49.224Z"/>
<path d="M37.6037 115.192C37.6037 113.128 37.0517 111.544 35.9477 110.44C34.8917 109.288 33.4037 108.712 31.4837 108.712C30.2837 108.712 28.8677 109.048 27.2357 109.72C25.6517 110.344 24.2357 111.136 22.9877 112.096L22.4117 111.736L21.0437 107.416C23.8757 105.832 26.5637 104.512 29.1077 103.456C31.6517 102.4 33.4037 101.872 34.3637 101.872C38.1557 101.872 41.1077 102.736 43.2197 104.464C45.3797 106.192 46.4597 108.616 46.4597 111.736C46.4597 112.744 46.2437 114.928 45.8117 118.288C45.2837 122.944 45.0197 125.68 45.0197 126.496C45.0197 127.408 45.2357 128.128 45.6677 128.656C46.1477 129.136 46.7717 129.376 47.5397 129.376C48.5477 129.376 49.6997 128.968 50.9957 128.152L52.0757 129.664C51.1157 131.44 49.9637 133.024 48.6197 134.416C47.3237 135.76 46.1477 136.576 45.0917 136.864C42.9317 136.864 41.2277 136.408 39.9797 135.496C38.7797 134.536 38.0597 133.144 37.8197 131.32L37.3157 131.104C35.6357 132.784 34.0757 134.128 32.6357 135.136C31.1957 136.096 30.0917 136.576 29.3237 136.576C27.4997 136.576 25.8197 136.12 24.2837 135.208C22.7957 134.296 21.6197 133.048 20.7557 131.464C19.8917 129.832 19.4597 128.032 19.4597 126.064C19.4597 124.528 19.8437 123.232 20.6117 122.176C21.3797 121.072 22.3877 120.376 23.6357 120.088L37.5317 116.848L37.6037 115.192ZM29.8277 122.896C28.6757 123.232 28.0997 124 28.0997 125.2C28.0997 126.592 28.4597 127.672 29.1797 128.44C29.9477 129.208 31.0037 129.592 32.3477 129.592C33.0197 129.592 33.7877 129.424 34.6517 129.088C35.5157 128.704 36.3557 128.2 37.1717 127.576L37.3157 120.808L29.8277 122.896Z"/>
<path d="M74.8648 132.04C76.0168 131.752 76.8328 131.32 77.3128 130.744C77.8408 130.12 78.1288 129.208 78.1768 128.008L78.3928 115.696C78.3928 111.52 76.8568 109.432 73.7848 109.432C72.1528 109.432 70.0888 110.32 67.5928 112.096C67.1128 120.832 66.8728 126.208 66.8728 128.224C66.8728 129.472 67.0168 130.336 67.3048 130.816C67.6408 131.248 68.2168 131.464 69.0328 131.464C69.3688 131.464 69.7288 131.44 70.1128 131.392C70.4968 131.344 70.7608 131.32 70.9048 131.32L71.0488 131.68L70.3288 136.216C69.8008 136.168 68.7928 136.12 67.3048 136.072C65.8168 136.024 64.2808 136 62.6968 136C61.1608 136 59.4568 136.048 57.5848 136.144C55.7608 136.288 54.5848 136.384 54.0568 136.432L54.7048 131.824C56.0968 131.68 57.0568 131.32 57.5848 130.744C58.1608 130.168 58.4488 129.208 58.4488 127.864V112.744C58.4488 111.064 58.1848 109.936 57.6568 109.36C57.1768 108.736 56.2648 108.424 54.9208 108.424H53.9848L53.6968 108.064L54.0568 104.248C56.8408 103.816 59.5768 103.36 62.2648 102.88C65.0008 102.352 66.7528 102.016 67.5208 101.872L68.0968 102.592C68.0008 102.88 67.8568 103.528 67.6648 104.536C67.4728 105.544 67.3528 106.552 67.3048 107.56L67.5928 107.848C69.1768 106.456 70.9048 105.112 72.7768 103.816C74.6488 102.52 76.0168 101.872 76.8808 101.872C80.2888 101.872 82.9528 102.712 84.8728 104.392C86.7928 106.024 87.7528 108.304 87.7528 111.232C87.7528 112 87.5608 114.544 87.1768 118.864C86.6968 123.664 86.4568 126.76 86.4568 128.152C86.4568 129.4 86.6248 130.288 86.9608 130.816C87.2968 131.296 87.8728 131.536 88.6888 131.536L90.8488 131.464L90.9928 131.752L90.3448 136.216C89.7688 136.168 88.7128 136.12 87.1768 136.072C85.6408 136.024 84.0808 136 82.4968 136C81.3448 136 79.8568 136.072 78.0328 136.216C76.2088 136.408 75.0088 136.528 74.4328 136.576L74.8648 132.04Z"/>
<path d="M116.863 131.536C112.207 134.896 109.423 136.576 108.511 136.576C104.287 136.576 100.951 135.16 98.5033 132.328C96.0553 129.496 94.8313 125.656 94.8313 120.808C94.8313 117.208 95.5993 113.992 97.1353 111.16C98.7193 108.328 100.879 106.12 103.615 104.536C106.351 102.904 109.471 102.088 112.975 102.088C114.559 102.088 115.783 102.136 116.647 102.232V93.16C116.647 91.672 116.407 90.64 115.927 90.064C115.495 89.44 114.703 89.128 113.551 89.128C113.167 89.128 112.807 89.152 112.471 89.2C112.135 89.248 111.919 89.296 111.823 89.344L112.327 84.952C115.159 84.568 118.039 84.136 120.967 83.656C123.943 83.128 125.863 82.768 126.727 82.576L127.375 83.8C126.751 84.712 126.223 89.368 125.791 97.768C125.359 106.168 125.143 115.72 125.143 126.424C125.143 127.336 125.335 128.056 125.719 128.584C126.151 129.112 126.703 129.376 127.375 129.376C127.903 129.376 128.407 129.28 128.887 129.088C129.367 128.896 129.751 128.704 130.039 128.512C130.375 128.32 130.591 128.2 130.687 128.152L131.767 129.664C131.623 129.952 131.215 130.6 130.543 131.608C129.871 132.568 129.007 133.6 127.951 134.704C126.895 135.76 125.767 136.48 124.567 136.864C120.295 136.864 117.895 135.136 117.367 131.68L116.863 131.536ZM116.647 109.36C116.551 109.312 116.263 109.192 115.783 109C115.351 108.808 114.751 108.616 113.983 108.424C113.215 108.232 112.375 108.136 111.463 108.136C109.207 108.136 107.431 109.024 106.135 110.8C104.887 112.528 104.263 114.976 104.263 118.144C104.263 121.696 104.887 124.528 106.135 126.64C107.431 128.752 109.135 129.808 111.247 129.808C112.015 129.808 112.807 129.64 113.623 129.304C114.439 128.92 115.111 128.56 115.639 128.224C116.167 127.84 116.503 127.576 116.647 127.432V109.36Z"/>
<path d="M160.131 136.864C157.875 136.864 155.811 136.648 153.939 136.216C152.067 135.832 150.507 135.4 149.259 134.92C148.011 134.44 147.387 134.176 147.387 134.128L146.811 133.12C146.859 132.784 146.955 132.064 147.099 130.96C147.291 129.808 147.483 128.272 147.675 126.352C147.867 124.432 147.963 122.608 147.963 120.88L154.011 120.376C154.011 123.064 154.251 125.128 154.731 126.568C155.211 128.008 156.003 129.016 157.107 129.592C158.259 130.168 159.867 130.456 161.931 130.456C164.187 130.456 165.987 129.952 167.331 128.944C168.723 127.936 169.419 126.592 169.419 124.912C169.419 123.808 169.035 122.824 168.267 121.96C167.499 121.096 166.563 120.352 165.459 119.728C164.355 119.056 162.747 118.192 160.635 117.136L158.763 116.272C155.211 114.544 152.427 112.72 150.411 110.8C148.395 108.88 147.387 106.384 147.387 103.312C147.387 100.528 148.203 98.056 149.835 95.896C151.467 93.688 153.747 91.984 156.675 90.784C159.603 89.536 162.939 88.912 166.683 88.912C168.795 88.912 170.763 89.056 172.587 89.344C174.411 89.632 175.851 89.944 176.907 90.28C178.011 90.568 178.707 90.76 178.995 90.856L179.499 91.792C179.355 92.464 179.067 94.024 178.635 96.472C178.251 98.872 177.963 101.44 177.771 104.176L172.299 104.608L171.651 104.104C171.651 103.96 171.651 103.672 171.651 103.24C171.699 102.76 171.723 102.208 171.723 101.584C171.723 99.472 171.195 97.984 170.139 97.12C169.083 96.208 167.307 95.752 164.811 95.752C162.795 95.752 161.139 96.232 159.843 97.192C158.547 98.152 157.899 99.376 157.899 100.864C157.899 102.496 158.667 103.888 160.203 105.04C161.739 106.144 164.115 107.44 167.331 108.928C170.019 110.224 172.227 111.4 173.955 112.456C175.683 113.512 177.147 114.88 178.347 116.56C179.547 118.192 180.147 120.112 180.147 122.32C180.147 125.2 179.307 127.744 177.627 129.952C175.995 132.16 173.667 133.864 170.643 135.064C167.619 136.264 164.115 136.864 160.131 136.864Z"/>
<path d="M184.83 131.752C186.126 131.608 187.014 131.272 187.494 130.744C188.022 130.168 188.286 129.208 188.286 127.864V93.016C188.286 91.528 188.07 90.496 187.638 89.92C187.206 89.344 186.39 89.056 185.19 89.056H183.534L183.246 88.696L183.678 84.88C186.414 84.544 189.342 84.112 192.462 83.584C195.582 83.056 197.598 82.72 198.51 82.576L199.014 83.944C198.534 84.52 198.126 86.944 197.79 91.216C197.454 95.488 197.19 101.128 196.998 108.136C198.438 106.792 200.142 105.424 202.11 104.032C204.126 102.592 205.59 101.872 206.502 101.872C210.006 101.872 212.694 102.688 214.566 104.32C216.438 105.904 217.374 108.208 217.374 111.232C217.374 112.432 217.158 114.976 216.726 118.864C216.246 123.664 216.006 126.76 216.006 128.152C216.006 129.352 216.174 130.216 216.51 130.744C216.894 131.272 217.494 131.536 218.31 131.536L220.47 131.464L220.614 131.752L219.894 136.216C219.318 136.168 218.262 136.12 216.726 136.072C215.238 136.024 213.702 136 212.118 136C210.966 136 209.478 136.072 207.654 136.216C205.83 136.408 204.63 136.528 204.054 136.576L204.414 132.04C205.614 131.752 206.454 131.32 206.934 130.744C207.462 130.12 207.726 129.208 207.726 128.008L208.014 115.696C208.062 111.52 206.55 109.432 203.478 109.432C201.606 109.432 199.422 110.416 196.926 112.384C196.83 115.696 196.782 121 196.782 128.296C196.782 129.496 196.926 130.336 197.214 130.816C197.55 131.296 198.102 131.536 198.87 131.536C199.254 131.536 199.614 131.512 199.95 131.464C200.334 131.416 200.574 131.392 200.67 131.392L200.886 131.824L200.166 136.216C199.638 136.168 198.606 136.12 197.07 136.072C195.534 136.024 193.95 136 192.318 136C190.446 136 188.742 136.024 187.206 136.072C185.718 136.12 184.734 136.168 184.254 136.216L184.83 131.752Z"/>
<path d="M232.994 94.672C231.362 94.672 230.09 94.216 229.178 93.304C228.314 92.392 227.882 91.12 227.882 89.488C227.882 87.76 228.41 86.368 229.466 85.312C230.522 84.256 231.914 83.728 233.642 83.728C235.178 83.728 236.402 84.184 237.314 85.096C238.226 86.008 238.682 87.28 238.682 88.912C238.682 90.64 238.154 92.032 237.098 93.088C236.042 94.144 234.674 94.672 232.994 94.672ZM224.714 132.184C226.154 131.944 227.186 131.464 227.81 130.744C228.482 130.024 228.818 129.016 228.818 127.72V112.312C228.818 110.824 228.578 109.792 228.098 109.216C227.666 108.592 226.898 108.28 225.794 108.28C225.41 108.28 225.05 108.304 224.714 108.352C224.378 108.4 224.162 108.448 224.066 108.496L224.498 104.248C227.282 103.912 230.066 103.48 232.85 102.952C235.682 102.424 237.506 102.064 238.322 101.872L238.97 103.096C238.49 104.152 238.082 107.008 237.746 111.664C237.458 116.32 237.314 121.888 237.314 128.368C237.314 129.52 237.482 130.336 237.818 130.816C238.154 131.296 238.706 131.536 239.474 131.536C239.906 131.536 240.314 131.512 240.698 131.464C241.13 131.416 241.418 131.392 241.562 131.392L241.778 131.68L241.058 136.216C240.482 136.168 239.426 136.12 237.89 136.072C236.354 136.024 234.746 136 233.066 136C231.578 136 229.874 136.096 227.954 136.288C226.034 136.528 224.786 136.696 224.21 136.792L224.714 132.184Z"/>
<path d="M266.255 132.04C267.407 131.752 268.223 131.32 268.703 130.744C269.231 130.12 269.519 129.208 269.567 128.008L269.783 115.696C269.783 111.52 268.247 109.432 265.175 109.432C263.543 109.432 261.479 110.32 258.983 112.096C258.503 120.832 258.263 126.208 258.263 128.224C258.263 129.472 258.407 130.336 258.695 130.816C259.031 131.248 259.607 131.464 260.423 131.464C260.759 131.464 261.119 131.44 261.503 131.392C261.887 131.344 262.151 131.32 262.295 131.32L262.439 131.68L261.719 136.216C261.191 136.168 260.183 136.12 258.695 136.072C257.207 136.024 255.671 136 254.087 136C252.551 136 250.847 136.048 248.975 136.144C247.151 136.288 245.975 136.384 245.447 136.432L246.095 131.824C247.487 131.68 248.447 131.32 248.975 130.744C249.551 130.168 249.839 129.208 249.839 127.864V112.744C249.839 111.064 249.575 109.936 249.047 109.36C248.567 108.736 247.655 108.424 246.311 108.424H245.375L245.087 108.064L245.447 104.248C248.231 103.816 250.967 103.36 253.655 102.88C256.391 102.352 258.143 102.016 258.911 101.872L259.487 102.592C259.391 102.88 259.247 103.528 259.055 104.536C258.863 105.544 258.743 106.552 258.695 107.56L258.983 107.848C260.567 106.456 262.295 105.112 264.167 103.816C266.039 102.52 267.407 101.872 268.271 101.872C271.679 101.872 274.343 102.712 276.263 104.392C278.183 106.024 279.143 108.304 279.143 111.232C279.143 112 278.951 114.544 278.567 118.864C278.087 123.664 277.847 126.76 277.847 128.152C277.847 129.4 278.015 130.288 278.351 130.816C278.687 131.296 279.263 131.536 280.079 131.536L282.239 131.464L282.383 131.752L281.735 136.216C281.159 136.168 280.103 136.12 278.567 136.072C277.031 136.024 275.471 136 273.887 136C272.735 136 271.247 136.072 269.423 136.216C267.599 136.408 266.399 136.528 265.823 136.576L266.255 132.04Z"/>
<path d="M295.582 119.8C295.726 122.968 296.566 125.44 298.102 127.216C299.686 128.944 301.822 129.808 304.51 129.808C305.854 129.808 307.174 129.664 308.47 129.376C309.766 129.04 310.822 128.704 311.638 128.368C312.454 127.984 312.982 127.744 313.222 127.648L313.726 127.864L314.95 131.536C314.95 131.584 314.182 132.088 312.646 133.048C311.158 134.008 309.478 134.896 307.606 135.712C305.782 136.48 304.102 136.864 302.566 136.864C297.478 136.864 293.47 135.376 290.542 132.4C287.662 129.424 286.222 125.368 286.222 120.232C286.222 116.776 286.966 113.656 288.454 110.872C289.942 108.088 291.982 105.904 294.574 104.32C297.166 102.688 300.07 101.872 303.286 101.872C311.398 101.872 315.454 106 315.454 114.256C315.454 115.12 315.382 115.96 315.238 116.776C315.094 117.592 314.998 118.12 314.95 118.36L314.086 119.152H295.582V119.8ZM305.23 114.616C305.758 114.52 306.118 114.376 306.31 114.184C306.502 113.992 306.598 113.584 306.598 112.96C306.598 109.408 305.086 107.632 302.062 107.632C300.19 107.632 298.678 108.28 297.526 109.576C296.422 110.824 295.774 112.672 295.582 115.12L305.23 114.616Z"/>
</mask>
<path d="M20.912 57.864C18.656 57.864 16.592 57.648 14.72 57.216C12.848 56.832 11.288 56.4 10.04 55.92C8.79204 55.44 8.16804 55.176 8.16804 55.128L7.59204 54.12C7.64004 53.784 7.73604 53.064 7.88004 51.96C8.07204 50.808 8.26404 49.272 8.45604 47.352C8.64804 45.432 8.74404 43.608 8.74404 41.88L14.792 41.376C14.792 44.064 15.032 46.128 15.512 47.568C15.992 49.008 16.784 50.016 17.888 50.592C19.04 51.168 20.648 51.456 22.712 51.456C24.968 51.456 26.768 50.952 28.112 49.944C29.504 48.936 30.2 47.592 30.2 45.912C30.2 44.808 29.816 43.824 29.048 42.96C28.28 42.096 27.344 41.352 26.24 40.728C25.136 40.056 23.528 39.192 21.416 38.136L19.544 37.272C15.992 35.544 13.208 33.72 11.192 31.8C9.17604 29.88 8.16804 27.384 8.16804 24.312C8.16804 21.528 8.98404 19.056 10.616 16.896C12.248 14.688 14.528 12.984 17.456 11.784C20.384 10.536 23.72 9.912 27.464 9.912C29.576 9.912 31.544 10.056 33.368 10.344C35.192 10.632 36.632 10.944 37.688 11.28C38.792 11.568 39.488 11.76 39.776 11.856L40.28 12.792C40.136 13.464 39.848 15.024 39.416 17.472C39.032 19.872 38.744 22.44 38.552 25.176L33.08 25.608L32.432 25.104C32.432 24.96 32.432 24.672 32.432 24.24C32.48 23.76 32.504 23.208 32.504 22.584C32.504 20.472 31.976 18.984 30.92 18.12C29.864 17.208 28.088 16.752 25.592 16.752C23.576 16.752 21.92 17.232 20.624 18.192C19.328 19.152 18.68 20.376 18.68 21.864C18.68 23.496 19.448 24.888 20.984 26.04C22.52 27.144 24.896 28.44 28.112 29.928C30.8 31.224 33.008 32.4 34.736 33.456C36.464 34.512 37.928 35.88 39.128 37.56C40.328 39.192 40.928 41.112 40.928 43.32C40.928 46.2 40.088 48.744 38.408 50.952C36.776 53.16 34.448 54.864 31.424 56.064C28.4 57.264 24.896 57.864 20.912 57.864Z" fill="#FFBA01"/>
<path d="M66.0757 53.04C67.2277 52.752 68.0437 52.32 68.5237 51.744C69.0517 51.12 69.3397 50.208 69.3877 49.008L69.6037 36.696C69.6037 32.52 68.0677 30.432 64.9957 30.432C63.3637 30.432 61.2997 31.32 58.8037 33.096C58.3237 41.832 58.0837 47.208 58.0837 49.224C58.0837 50.472 58.2277 51.336 58.5157 51.816C58.8517 52.248 59.4277 52.464 60.2437 52.464C60.5797 52.464 60.9397 52.44 61.3237 52.392C61.7077 52.344 61.9717 52.32 62.1157 52.32L62.2597 52.68L61.5397 57.216C61.0117 57.168 60.0037 57.12 58.5157 57.072C57.0277 57.024 55.4917 57 53.9077 57C52.3717 57 50.6677 57.048 48.7957 57.144C46.9717 57.288 45.7957 57.384 45.2677 57.432L45.9157 52.824C47.3077 52.68 48.2677 52.32 48.7957 51.744C49.3717 51.168 49.6597 50.208 49.6597 48.864V33.744C49.6597 32.064 49.3957 30.936 48.8677 30.36C48.3877 29.736 47.4757 29.424 46.1317 29.424H45.1957L44.9077 29.064L45.2677 25.248C48.0517 24.816 50.7877 24.36 53.4757 23.88C56.2117 23.352 57.9637 23.016 58.7317 22.872L59.3077 23.592C59.2117 23.88 59.0677 24.528 58.8757 25.536C58.6837 26.544 58.5637 27.552 58.5157 28.56L58.8037 28.848C60.3877 27.456 62.1157 26.112 63.9877 24.816C65.8597 23.52 67.2277 22.872 68.0917 22.872C71.4997 22.872 74.1637 23.712 76.0837 25.392C78.0037 27.024 78.9637 29.304 78.9637 32.232C78.9637 33 78.7717 35.544 78.3877 39.864C77.9077 44.664 77.6677 47.76 77.6677 49.152C77.6677 50.4 77.8357 51.288 78.1717 51.816C78.5077 52.296 79.0837 52.536 79.8997 52.536L82.0597 52.464L82.2037 52.752L81.5557 57.216C80.9797 57.168 79.9237 57.12 78.3877 57.072C76.8517 57.024 75.2917 57 73.7077 57C72.5557 57 71.0677 57.072 69.2437 57.216C67.4197 57.408 66.2197 57.528 65.6437 57.576L66.0757 53.04Z" fill="#FFBA01"/>
<path d="M104.33 36.192C104.33 34.128 103.778 32.544 102.674 31.44C101.618 30.288 100.13 29.712 98.2102 29.712C97.0102 29.712 95.5942 30.048 93.9622 30.72C92.3782 31.344 90.9622 32.136 89.7142 33.096L89.1382 32.736L87.7702 28.416C90.6022 26.832 93.2902 25.512 95.8342 24.456C98.3782 23.4 100.13 22.872 101.09 22.872C104.882 22.872 107.834 23.736 109.946 25.464C112.106 27.192 113.186 29.616 113.186 32.736C113.186 33.744 112.97 35.928 112.538 39.288C112.01 43.944 111.746 46.68 111.746 47.496C111.746 48.408 111.962 49.128 112.394 49.656C112.874 50.136 113.498 50.376 114.266 50.376C115.274 50.376 116.426 49.968 117.722 49.152L118.802 50.664C117.842 52.44 116.69 54.024 115.346 55.416C114.05 56.76 112.874 57.576 111.818 57.864C109.658 57.864 107.954 57.408 106.706 56.496C105.506 55.536 104.786 54.144 104.546 52.32L104.042 52.104C102.362 53.784 100.802 55.128 99.3622 56.136C97.9222 57.096 96.8182 57.576 96.0502 57.576C94.2262 57.576 92.5462 57.12 91.0102 56.208C89.5222 55.296 88.3462 54.048 87.4822 52.464C86.6182 50.832 86.1862 49.032 86.1862 47.064C86.1862 45.528 86.5702 44.232 87.3382 43.176C88.1062 42.072 89.1142 41.376 90.3622 41.088L104.258 37.848L104.33 36.192ZM96.5542 43.896C95.4022 44.232 94.8262 45 94.8262 46.2C94.8262 47.592 95.1862 48.672 95.9062 49.44C96.6742 50.208 97.7302 50.592 99.0742 50.592C99.7462 50.592 100.514 50.424 101.378 50.088C102.242 49.704 103.082 49.2 103.898 48.576L104.042 41.808L96.5542 43.896Z" fill="#FFBA01"/>
<path d="M121.359 69.528C122.703 69.384 123.591 69.024 124.023 68.448C124.455 67.872 124.671 66.744 124.671 65.064L125.031 54.048V33.744C125.031 32.064 124.767 30.936 124.239 30.36C123.759 29.736 122.847 29.424 121.503 29.424H120.567L120.279 29.064L120.639 25.248C123.375 24.816 126.087 24.36 128.775 23.88C131.463 23.352 133.191 23.016 133.959 22.872L134.607 23.592C134.559 23.88 134.439 24.504 134.247 25.464C134.055 26.376 133.911 27.264 133.815 28.128L134.103 28.488C135.927 26.808 137.463 25.512 138.711 24.6C140.007 23.64 140.871 23.16 141.303 23.16C144.135 23.16 146.631 23.832 148.791 25.176C150.951 26.472 152.607 28.32 153.759 30.72C154.959 33.12 155.559 35.88 155.559 39C155.559 42.696 154.743 45.96 153.111 48.792C151.479 51.624 149.223 53.832 146.343 55.416C143.463 56.952 140.175 57.72 136.479 57.72C135.855 57.72 135.231 57.696 134.607 57.648C134.031 57.6 133.647 57.552 133.455 57.504V64.128C133.455 66.096 133.599 67.416 133.887 68.088C134.223 68.76 134.943 69.096 136.047 69.096C136.767 69.096 137.367 69.072 137.847 69.024C138.375 68.976 138.759 68.952 138.999 68.952L139.143 69.24L138.351 73.704C137.343 73.704 136.431 73.68 135.615 73.632L129.567 73.56C127.887 73.56 126.135 73.608 124.311 73.704C122.487 73.848 121.311 73.944 120.783 73.992L121.359 69.528ZM133.671 50.736C135.543 51.408 137.319 51.744 138.999 51.744C141.255 51.744 143.007 50.88 144.255 49.152C145.551 47.376 146.199 44.904 146.199 41.736C146.199 38.232 145.551 35.472 144.255 33.456C143.007 31.392 141.303 30.36 139.143 30.36C138.471 30.36 137.679 30.552 136.767 30.936C135.855 31.32 134.967 31.824 134.103 32.448C133.815 39.936 133.671 46.032 133.671 50.736Z" fill="#FFBA01"/>
<path d="M158.292 49.224C160.452 47.592 162.348 46.776 163.98 46.776C165.42 46.776 166.572 47.352 167.436 48.504C168.348 49.656 168.804 51.216 168.804 53.184C168.804 55.68 167.748 58.176 165.636 60.672C163.524 63.168 160.908 65.304 157.788 67.08L155.124 64.92V63.696C156.66 62.64 157.908 61.368 158.868 59.88C159.828 58.392 160.308 56.928 160.308 55.488C160.308 54.576 160.092 53.64 159.66 52.68C159.228 51.72 158.7 50.904 158.076 50.232L158.292 49.224Z" fill="#FFBA01"/>
<path d="M196.131 57.864C193.875 57.864 191.811 57.648 189.939 57.216C188.067 56.832 186.507 56.4 185.259 55.92C184.011 55.44 183.387 55.176 183.387 55.128L182.811 54.12C182.859 53.784 182.955 53.064 183.099 51.96C183.291 50.808 183.483 49.272 183.675 47.352C183.867 45.432 183.963 43.608 183.963 41.88L190.011 41.376C190.011 44.064 190.251 46.128 190.731 47.568C191.211 49.008 192.003 50.016 193.107 50.592C194.259 51.168 195.867 51.456 197.931 51.456C200.187 51.456 201.987 50.952 203.331 49.944C204.723 48.936 205.419 47.592 205.419 45.912C205.419 44.808 205.035 43.824 204.267 42.96C203.499 42.096 202.563 41.352 201.459 40.728C200.355 40.056 198.747 39.192 196.635 38.136L194.763 37.272C191.211 35.544 188.427 33.72 186.411 31.8C184.395 29.88 183.387 27.384 183.387 24.312C183.387 21.528 184.203 19.056 185.835 16.896C187.467 14.688 189.747 12.984 192.675 11.784C195.603 10.536 198.939 9.912 202.683 9.912C204.795 9.912 206.763 10.056 208.587 10.344C210.411 10.632 211.851 10.944 212.907 11.28C214.011 11.568 214.707 11.76 214.995 11.856L215.499 12.792C215.355 13.464 215.067 15.024 214.635 17.472C214.251 19.872 213.963 22.44 213.771 25.176L208.299 25.608L207.651 25.104C207.651 24.96 207.651 24.672 207.651 24.24C207.699 23.76 207.723 23.208 207.723 22.584C207.723 20.472 207.195 18.984 206.139 18.12C205.083 17.208 203.307 16.752 200.811 16.752C198.795 16.752 197.139 17.232 195.843 18.192C194.547 19.152 193.899 20.376 193.899 21.864C193.899 23.496 194.667 24.888 196.203 26.04C197.739 27.144 200.115 28.44 203.331 29.928C206.019 31.224 208.227 32.4 209.955 33.456C211.683 34.512 213.147 35.88 214.347 37.56C215.547 39.192 216.147 41.112 216.147 43.32C216.147 46.2 215.307 48.744 213.627 50.952C211.995 53.16 209.667 54.864 206.643 56.064C203.619 57.264 200.115 57.864 196.131 57.864Z" fill="#FFBA01"/>
<path d="M220.83 52.752C222.126 52.608 223.014 52.272 223.494 51.744C224.022 51.168 224.286 50.208 224.286 48.864V14.016C224.286 12.528 224.07 11.496 223.638 10.92C223.206 10.344 222.39 10.056 221.19 10.056H219.534L219.246 9.696L219.678 5.88C222.414 5.544 225.342 5.112 228.462 4.584C231.582 4.056 233.598 3.72 234.51 3.576L235.014 4.944C234.534 5.52 234.126 7.944 233.79 12.216C233.454 16.488 233.19 22.128 232.998 29.136C234.438 27.792 236.142 26.424 238.11 25.032C240.126 23.592 241.59 22.872 242.502 22.872C246.006 22.872 248.694 23.688 250.566 25.32C252.438 26.904 253.374 29.208 253.374 32.232C253.374 33.432 253.158 35.976 252.726 39.864C252.246 44.664 252.006 47.76 252.006 49.152C252.006 50.352 252.174 51.216 252.51 51.744C252.894 52.272 253.494 52.536 254.31 52.536L256.47 52.464L256.614 52.752L255.894 57.216C255.318 57.168 254.262 57.12 252.726 57.072C251.238 57.024 249.702 57 248.118 57C246.966 57 245.478 57.072 243.654 57.216C241.83 57.408 240.63 57.528 240.054 57.576L240.414 53.04C241.614 52.752 242.454 52.32 242.934 51.744C243.462 51.12 243.726 50.208 243.726 49.008L244.014 36.696C244.062 32.52 242.55 30.432 239.478 30.432C237.606 30.432 235.422 31.416 232.926 33.384C232.83 36.696 232.782 42 232.782 49.296C232.782 50.496 232.926 51.336 233.214 51.816C233.55 52.296 234.102 52.536 234.87 52.536C235.254 52.536 235.614 52.512 235.95 52.464C236.334 52.416 236.574 52.392 236.67 52.392L236.886 52.824L236.166 57.216C235.638 57.168 234.606 57.12 233.07 57.072C231.534 57.024 229.95 57 228.318 57C226.446 57 224.742 57.024 223.206 57.072C221.718 57.12 220.734 57.168 220.254 57.216L220.83 52.752Z" fill="#FFBA01"/>
<path d="M278.354 36.192C278.354 34.128 277.802 32.544 276.698 31.44C275.642 30.288 274.154 29.712 272.234 29.712C271.034 29.712 269.618 30.048 267.986 30.72C266.402 31.344 264.986 32.136 263.738 33.096L263.162 32.736L261.794 28.416C264.626 26.832 267.314 25.512 269.858 24.456C272.402 23.4 274.154 22.872 275.114 22.872C278.906 22.872 281.858 23.736 283.97 25.464C286.13 27.192 287.21 29.616 287.21 32.736C287.21 33.744 286.994 35.928 286.562 39.288C286.034 43.944 285.77 46.68 285.77 47.496C285.77 48.408 285.986 49.128 286.418 49.656C286.898 50.136 287.522 50.376 288.29 50.376C289.298 50.376 290.45 49.968 291.746 49.152L292.826 50.664C291.866 52.44 290.714 54.024 289.37 55.416C288.074 56.76 286.898 57.576 285.842 57.864C283.682 57.864 281.978 57.408 280.73 56.496C279.53 55.536 278.81 54.144 278.57 52.32L278.066 52.104C276.386 53.784 274.826 55.128 273.386 56.136C271.946 57.096 270.842 57.576 270.074 57.576C268.25 57.576 266.57 57.12 265.034 56.208C263.546 55.296 262.37 54.048 261.506 52.464C260.642 50.832 260.21 49.032 260.21 47.064C260.21 45.528 260.594 44.232 261.362 43.176C262.13 42.072 263.138 41.376 264.386 41.088L278.282 37.848L278.354 36.192ZM270.578 43.896C269.426 44.232 268.85 45 268.85 46.2C268.85 47.592 269.21 48.672 269.93 49.44C270.698 50.208 271.754 50.592 273.098 50.592C273.77 50.592 274.538 50.424 275.402 50.088C276.266 49.704 277.106 49.2 277.922 48.576L278.066 41.808L270.578 43.896Z" fill="#FFBA01"/>
<path d="M295.815 52.824C297.207 52.728 298.143 52.344 298.623 51.672C299.151 51 299.415 49.752 299.415 47.928V33.672C299.415 31.992 299.199 30.864 298.767 30.288C298.383 29.712 297.591 29.424 296.391 29.424L295.023 29.496L294.663 28.992L295.023 25.248C297.663 24.864 300.327 24.408 303.015 23.88C305.751 23.352 307.503 23.016 308.271 22.872L308.919 23.52C308.823 23.904 308.679 24.792 308.487 26.184C308.343 27.576 308.247 28.92 308.199 30.216L308.631 30.504C310.119 28.296 311.751 26.568 313.527 25.32C315.351 24.024 317.079 23.376 318.711 23.376C319.287 23.376 319.815 23.424 320.295 23.52C320.775 23.568 321.087 23.616 321.231 23.664L321.519 24.24C321.375 25.056 321.135 26.856 320.799 29.64C320.463 32.376 320.223 34.968 320.079 37.416L315.327 37.704C315.327 35.4 315.183 33.888 314.895 33.168C314.655 32.4 314.127 32.016 313.311 32.016C312.543 32.016 311.727 32.304 310.863 32.88C310.047 33.408 309.279 34.152 308.559 35.112C308.463 36.408 308.319 38.592 308.127 41.664C307.983 44.688 307.887 47.112 307.839 48.936C307.839 50.184 308.031 51.048 308.415 51.528C308.847 52.008 309.591 52.248 310.647 52.248C311.415 52.248 312.159 52.224 312.879 52.176C313.599 52.08 314.079 52.008 314.319 51.96L314.535 52.392L313.743 57.288C313.071 57.24 311.799 57.168 309.927 57.072C308.103 57.024 306.231 57 304.311 57C302.487 57 300.639 57.024 298.767 57.072C296.943 57.168 295.767 57.24 295.239 57.288L295.815 52.824Z" fill="#FFBA01"/>
<path d="M332.918 40.8C333.062 43.968 333.902 46.44 335.438 48.216C337.022 49.944 339.158 50.808 341.846 50.808C343.19 50.808 344.51 50.664 345.806 50.376C347.102 50.04 348.158 49.704 348.974 49.368C349.79 48.984 350.318 48.744 350.558 48.648L351.062 48.864L352.286 52.536C352.286 52.584 351.518 53.088 349.982 54.048C348.494 55.008 346.814 55.896 344.942 56.712C343.118 57.48 341.438 57.864 339.902 57.864C334.814 57.864 330.806 56.376 327.878 53.4C324.998 50.424 323.558 46.368 323.558 41.232C323.558 37.776 324.302 34.656 325.79 31.872C327.278 29.088 329.318 26.904 331.91 25.32C334.502 23.688 337.406 22.872 340.622 22.872C348.734 22.872 352.79 27 352.79 35.256C352.79 36.12 352.718 36.96 352.574 37.776C352.43 38.592 352.334 39.12 352.286 39.36L351.422 40.152H332.918V40.8ZM342.566 35.616C343.094 35.52 343.454 35.376 343.646 35.184C343.838 34.992 343.934 34.584 343.934 33.96C343.934 30.408 342.422 28.632 339.398 28.632C337.526 28.632 336.014 29.28 334.862 30.576C333.758 31.824 333.11 33.672 332.918 36.12L342.566 35.616Z" fill="#FFBA01"/>
<path d="M356.995 49.224C359.155 47.592 361.051 46.776 362.683 46.776C364.123 46.776 365.275 47.352 366.139 48.504C367.051 49.656 367.507 51.216 367.507 53.184C367.507 55.68 366.451 58.176 364.339 60.672C362.227 63.168 359.611 65.304 356.491 67.08L353.827 64.92V63.696C355.363 62.64 356.611 61.368 357.571 59.88C358.531 58.392 359.011 56.928 359.011 55.488C359.011 54.576 358.795 53.64 358.363 52.68C357.931 51.72 357.403 50.904 356.779 50.232L356.995 49.224Z" fill="#FFBA01"/>
<path d="M37.6037 115.192C37.6037 113.128 37.0517 111.544 35.9477 110.44C34.8917 109.288 33.4037 108.712 31.4837 108.712C30.2837 108.712 28.8677 109.048 27.2357 109.72C25.6517 110.344 24.2357 111.136 22.9877 112.096L22.4117 111.736L21.0437 107.416C23.8757 105.832 26.5637 104.512 29.1077 103.456C31.6517 102.4 33.4037 101.872 34.3637 101.872C38.1557 101.872 41.1077 102.736 43.2197 104.464C45.3797 106.192 46.4597 108.616 46.4597 111.736C46.4597 112.744 46.2437 114.928 45.8117 118.288C45.2837 122.944 45.0197 125.68 45.0197 126.496C45.0197 127.408 45.2357 128.128 45.6677 128.656C46.1477 129.136 46.7717 129.376 47.5397 129.376C48.5477 129.376 49.6997 128.968 50.9957 128.152L52.0757 129.664C51.1157 131.44 49.9637 133.024 48.6197 134.416C47.3237 135.76 46.1477 136.576 45.0917 136.864C42.9317 136.864 41.2277 136.408 39.9797 135.496C38.7797 134.536 38.0597 133.144 37.8197 131.32L37.3157 131.104C35.6357 132.784 34.0757 134.128 32.6357 135.136C31.1957 136.096 30.0917 136.576 29.3237 136.576C27.4997 136.576 25.8197 136.12 24.2837 135.208C22.7957 134.296 21.6197 133.048 20.7557 131.464C19.8917 129.832 19.4597 128.032 19.4597 126.064C19.4597 124.528 19.8437 123.232 20.6117 122.176C21.3797 121.072 22.3877 120.376 23.6357 120.088L37.5317 116.848L37.6037 115.192ZM29.8277 122.896C28.6757 123.232 28.0997 124 28.0997 125.2C28.0997 126.592 28.4597 127.672 29.1797 128.44C29.9477 129.208 31.0037 129.592 32.3477 129.592C33.0197 129.592 33.7877 129.424 34.6517 129.088C35.5157 128.704 36.3557 128.2 37.1717 127.576L37.3157 120.808L29.8277 122.896Z" fill="#FFBA01"/>
<path d="M74.8648 132.04C76.0168 131.752 76.8328 131.32 77.3128 130.744C77.8408 130.12 78.1288 129.208 78.1768 128.008L78.3928 115.696C78.3928 111.52 76.8568 109.432 73.7848 109.432C72.1528 109.432 70.0888 110.32 67.5928 112.096C67.1128 120.832 66.8728 126.208 66.8728 128.224C66.8728 129.472 67.0168 130.336 67.3048 130.816C67.6408 131.248 68.2168 131.464 69.0328 131.464C69.3688 131.464 69.7288 131.44 70.1128 131.392C70.4968 131.344 70.7608 131.32 70.9048 131.32L71.0488 131.68L70.3288 136.216C69.8008 136.168 68.7928 136.12 67.3048 136.072C65.8168 136.024 64.2808 136 62.6968 136C61.1608 136 59.4568 136.048 57.5848 136.144C55.7608 136.288 54.5848 136.384 54.0568 136.432L54.7048 131.824C56.0968 131.68 57.0568 131.32 57.5848 130.744C58.1608 130.168 58.4488 129.208 58.4488 127.864V112.744C58.4488 111.064 58.1848 109.936 57.6568 109.36C57.1768 108.736 56.2648 108.424 54.9208 108.424H53.9848L53.6968 108.064L54.0568 104.248C56.8408 103.816 59.5768 103.36 62.2648 102.88C65.0008 102.352 66.7528 102.016 67.5208 101.872L68.0968 102.592C68.0008 102.88 67.8568 103.528 67.6648 104.536C67.4728 105.544 67.3528 106.552 67.3048 107.56L67.5928 107.848C69.1768 106.456 70.9048 105.112 72.7768 103.816C74.6488 102.52 76.0168 101.872 76.8808 101.872C80.2888 101.872 82.9528 102.712 84.8728 104.392C86.7928 106.024 87.7528 108.304 87.7528 111.232C87.7528 112 87.5608 114.544 87.1768 118.864C86.6968 123.664 86.4568 126.76 86.4568 128.152C86.4568 129.4 86.6248 130.288 86.9608 130.816C87.2968 131.296 87.8728 131.536 88.6888 131.536L90.8488 131.464L90.9928 131.752L90.3448 136.216C89.7688 136.168 88.7128 136.12 87.1768 136.072C85.6408 136.024 84.0808 136 82.4968 136C81.3448 136 79.8568 136.072 78.0328 136.216C76.2088 136.408 75.0088 136.528 74.4328 136.576L74.8648 132.04Z" fill="#FFBA01"/>
<path d="M116.863 131.536C112.207 134.896 109.423 136.576 108.511 136.576C104.287 136.576 100.951 135.16 98.5033 132.328C96.0553 129.496 94.8313 125.656 94.8313 120.808C94.8313 117.208 95.5993 113.992 97.1353 111.16C98.7193 108.328 100.879 106.12 103.615 104.536C106.351 102.904 109.471 102.088 112.975 102.088C114.559 102.088 115.783 102.136 116.647 102.232V93.16C116.647 91.672 116.407 90.64 115.927 90.064C115.495 89.44 114.703 89.128 113.551 89.128C113.167 89.128 112.807 89.152 112.471 89.2C112.135 89.248 111.919 89.296 111.823 89.344L112.327 84.952C115.159 84.568 118.039 84.136 120.967 83.656C123.943 83.128 125.863 82.768 126.727 82.576L127.375 83.8C126.751 84.712 126.223 89.368 125.791 97.768C125.359 106.168 125.143 115.72 125.143 126.424C125.143 127.336 125.335 128.056 125.719 128.584C126.151 129.112 126.703 129.376 127.375 129.376C127.903 129.376 128.407 129.28 128.887 129.088C129.367 128.896 129.751 128.704 130.039 128.512C130.375 128.32 130.591 128.2 130.687 128.152L131.767 129.664C131.623 129.952 131.215 130.6 130.543 131.608C129.871 132.568 129.007 133.6 127.951 134.704C126.895 135.76 125.767 136.48 124.567 136.864C120.295 136.864 117.895 135.136 117.367 131.68L116.863 131.536ZM116.647 109.36C116.551 109.312 116.263 109.192 115.783 109C115.351 108.808 114.751 108.616 113.983 108.424C113.215 108.232 112.375 108.136 111.463 108.136C109.207 108.136 107.431 109.024 106.135 110.8C104.887 112.528 104.263 114.976 104.263 118.144C104.263 121.696 104.887 124.528 106.135 126.64C107.431 128.752 109.135 129.808 111.247 129.808C112.015 129.808 112.807 129.64 113.623 129.304C114.439 128.92 115.111 128.56 115.639 128.224C116.167 127.84 116.503 127.576 116.647 127.432V109.36Z" fill="#FFBA01"/>
<path d="M160.131 136.864C157.875 136.864 155.811 136.648 153.939 136.216C152.067 135.832 150.507 135.4 149.259 134.92C148.011 134.44 147.387 134.176 147.387 134.128L146.811 133.12C146.859 132.784 146.955 132.064 147.099 130.96C147.291 129.808 147.483 128.272 147.675 126.352C147.867 124.432 147.963 122.608 147.963 120.88L154.011 120.376C154.011 123.064 154.251 125.128 154.731 126.568C155.211 128.008 156.003 129.016 157.107 129.592C158.259 130.168 159.867 130.456 161.931 130.456C164.187 130.456 165.987 129.952 167.331 128.944C168.723 127.936 169.419 126.592 169.419 124.912C169.419 123.808 169.035 122.824 168.267 121.96C167.499 121.096 166.563 120.352 165.459 119.728C164.355 119.056 162.747 118.192 160.635 117.136L158.763 116.272C155.211 114.544 152.427 112.72 150.411 110.8C148.395 108.88 147.387 106.384 147.387 103.312C147.387 100.528 148.203 98.056 149.835 95.896C151.467 93.688 153.747 91.984 156.675 90.784C159.603 89.536 162.939 88.912 166.683 88.912C168.795 88.912 170.763 89.056 172.587 89.344C174.411 89.632 175.851 89.944 176.907 90.28C178.011 90.568 178.707 90.76 178.995 90.856L179.499 91.792C179.355 92.464 179.067 94.024 178.635 96.472C178.251 98.872 177.963 101.44 177.771 104.176L172.299 104.608L171.651 104.104C171.651 103.96 171.651 103.672 171.651 103.24C171.699 102.76 171.723 102.208 171.723 101.584C171.723 99.472 171.195 97.984 170.139 97.12C169.083 96.208 167.307 95.752 164.811 95.752C162.795 95.752 161.139 96.232 159.843 97.192C158.547 98.152 157.899 99.376 157.899 100.864C157.899 102.496 158.667 103.888 160.203 105.04C161.739 106.144 164.115 107.44 167.331 108.928C170.019 110.224 172.227 111.4 173.955 112.456C175.683 113.512 177.147 114.88 178.347 116.56C179.547 118.192 180.147 120.112 180.147 122.32C180.147 125.2 179.307 127.744 177.627 129.952C175.995 132.16 173.667 133.864 170.643 135.064C167.619 136.264 164.115 136.864 160.131 136.864Z" fill="#FFBA01"/>
<path d="M184.83 131.752C186.126 131.608 187.014 131.272 187.494 130.744C188.022 130.168 188.286 129.208 188.286 127.864V93.016C188.286 91.528 188.07 90.496 187.638 89.92C187.206 89.344 186.39 89.056 185.19 89.056H183.534L183.246 88.696L183.678 84.88C186.414 84.544 189.342 84.112 192.462 83.584C195.582 83.056 197.598 82.72 198.51 82.576L199.014 83.944C198.534 84.52 198.126 86.944 197.79 91.216C197.454 95.488 197.19 101.128 196.998 108.136C198.438 106.792 200.142 105.424 202.11 104.032C204.126 102.592 205.59 101.872 206.502 101.872C210.006 101.872 212.694 102.688 214.566 104.32C216.438 105.904 217.374 108.208 217.374 111.232C217.374 112.432 217.158 114.976 216.726 118.864C216.246 123.664 216.006 126.76 216.006 128.152C216.006 129.352 216.174 130.216 216.51 130.744C216.894 131.272 217.494 131.536 218.31 131.536L220.47 131.464L220.614 131.752L219.894 136.216C219.318 136.168 218.262 136.12 216.726 136.072C215.238 136.024 213.702 136 212.118 136C210.966 136 209.478 136.072 207.654 136.216C205.83 136.408 204.63 136.528 204.054 136.576L204.414 132.04C205.614 131.752 206.454 131.32 206.934 130.744C207.462 130.12 207.726 129.208 207.726 128.008L208.014 115.696C208.062 111.52 206.55 109.432 203.478 109.432C201.606 109.432 199.422 110.416 196.926 112.384C196.83 115.696 196.782 121 196.782 128.296C196.782 129.496 196.926 130.336 197.214 130.816C197.55 131.296 198.102 131.536 198.87 131.536C199.254 131.536 199.614 131.512 199.95 131.464C200.334 131.416 200.574 131.392 200.67 131.392L200.886 131.824L200.166 136.216C199.638 136.168 198.606 136.12 197.07 136.072C195.534 136.024 193.95 136 192.318 136C190.446 136 188.742 136.024 187.206 136.072C185.718 136.12 184.734 136.168 184.254 136.216L184.83 131.752Z" fill="#FFBA01"/>
<path d="M232.994 94.672C231.362 94.672 230.09 94.216 229.178 93.304C228.314 92.392 227.882 91.12 227.882 89.488C227.882 87.76 228.41 86.368 229.466 85.312C230.522 84.256 231.914 83.728 233.642 83.728C235.178 83.728 236.402 84.184 237.314 85.096C238.226 86.008 238.682 87.28 238.682 88.912C238.682 90.64 238.154 92.032 237.098 93.088C236.042 94.144 234.674 94.672 232.994 94.672ZM224.714 132.184C226.154 131.944 227.186 131.464 227.81 130.744C228.482 130.024 228.818 129.016 228.818 127.72V112.312C228.818 110.824 228.578 109.792 228.098 109.216C227.666 108.592 226.898 108.28 225.794 108.28C225.41 108.28 225.05 108.304 224.714 108.352C224.378 108.4 224.162 108.448 224.066 108.496L224.498 104.248C227.282 103.912 230.066 103.48 232.85 102.952C235.682 102.424 237.506 102.064 238.322 101.872L238.97 103.096C238.49 104.152 238.082 107.008 237.746 111.664C237.458 116.32 237.314 121.888 237.314 128.368C237.314 129.52 237.482 130.336 237.818 130.816C238.154 131.296 238.706 131.536 239.474 131.536C239.906 131.536 240.314 131.512 240.698 131.464C241.13 131.416 241.418 131.392 241.562 131.392L241.778 131.68L241.058 136.216C240.482 136.168 239.426 136.12 237.89 136.072C236.354 136.024 234.746 136 233.066 136C231.578 136 229.874 136.096 227.954 136.288C226.034 136.528 224.786 136.696 224.21 136.792L224.714 132.184Z" fill="#FFBA01"/>
<path d="M266.255 132.04C267.407 131.752 268.223 131.32 268.703 130.744C269.231 130.12 269.519 129.208 269.567 128.008L269.783 115.696C269.783 111.52 268.247 109.432 265.175 109.432C263.543 109.432 261.479 110.32 258.983 112.096C258.503 120.832 258.263 126.208 258.263 128.224C258.263 129.472 258.407 130.336 258.695 130.816C259.031 131.248 259.607 131.464 260.423 131.464C260.759 131.464 261.119 131.44 261.503 131.392C261.887 131.344 262.151 131.32 262.295 131.32L262.439 131.68L261.719 136.216C261.191 136.168 260.183 136.12 258.695 136.072C257.207 136.024 255.671 136 254.087 136C252.551 136 250.847 136.048 248.975 136.144C247.151 136.288 245.975 136.384 245.447 136.432L246.095 131.824C247.487 131.68 248.447 131.32 248.975 130.744C249.551 130.168 249.839 129.208 249.839 127.864V112.744C249.839 111.064 249.575 109.936 249.047 109.36C248.567 108.736 247.655 108.424 246.311 108.424H245.375L245.087 108.064L245.447 104.248C248.231 103.816 250.967 103.36 253.655 102.88C256.391 102.352 258.143 102.016 258.911 101.872L259.487 102.592C259.391 102.88 259.247 103.528 259.055 104.536C258.863 105.544 258.743 106.552 258.695 107.56L258.983 107.848C260.567 106.456 262.295 105.112 264.167 103.816C266.039 102.52 267.407 101.872 268.271 101.872C271.679 101.872 274.343 102.712 276.263 104.392C278.183 106.024 279.143 108.304 279.143 111.232C279.143 112 278.951 114.544 278.567 118.864C278.087 123.664 277.847 126.76 277.847 128.152C277.847 129.4 278.015 130.288 278.351 130.816C278.687 131.296 279.263 131.536 280.079 131.536L282.239 131.464L282.383 131.752L281.735 136.216C281.159 136.168 280.103 136.12 278.567 136.072C277.031 136.024 275.471 136 273.887 136C272.735 136 271.247 136.072 269.423 136.216C267.599 136.408 266.399 136.528 265.823 136.576L266.255 132.04Z" fill="#FFBA01"/>
<path d="M295.582 119.8C295.726 122.968 296.566 125.44 298.102 127.216C299.686 128.944 301.822 129.808 304.51 129.808C305.854 129.808 307.174 129.664 308.47 129.376C309.766 129.04 310.822 128.704 311.638 128.368C312.454 127.984 312.982 127.744 313.222 127.648L313.726 127.864L314.95 131.536C314.95 131.584 314.182 132.088 312.646 133.048C311.158 134.008 309.478 134.896 307.606 135.712C305.782 136.48 304.102 136.864 302.566 136.864C297.478 136.864 293.47 135.376 290.542 132.4C287.662 129.424 286.222 125.368 286.222 120.232C286.222 116.776 286.966 113.656 288.454 110.872C289.942 108.088 291.982 105.904 294.574 104.32C297.166 102.688 300.07 101.872 303.286 101.872C311.398 101.872 315.454 106 315.454 114.256C315.454 115.12 315.382 115.96 315.238 116.776C315.094 117.592 314.998 118.12 314.95 118.36L314.086 119.152H295.582V119.8ZM305.23 114.616C305.758 114.52 306.118 114.376 306.31 114.184C306.502 113.992 306.598 113.584 306.598 112.96C306.598 109.408 305.086 107.632 302.062 107.632C300.19 107.632 298.678 108.28 297.526 109.576C296.422 110.824 295.774 112.672 295.582 115.12L305.23 114.616Z" fill="#FFBA01"/>
<path d="M20.912 57.864C18.656 57.864 16.592 57.648 14.72 57.216C12.848 56.832 11.288 56.4 10.04 55.92C8.79204 55.44 8.16804 55.176 8.16804 55.128L7.59204 54.12C7.64004 53.784 7.73604 53.064 7.88004 51.96C8.07204 50.808 8.26404 49.272 8.45604 47.352C8.64804 45.432 8.74404 43.608 8.74404 41.88L14.792 41.376C14.792 44.064 15.032 46.128 15.512 47.568C15.992 49.008 16.784 50.016 17.888 50.592C19.04 51.168 20.648 51.456 22.712 51.456C24.968 51.456 26.768 50.952 28.112 49.944C29.504 48.936 30.2 47.592 30.2 45.912C30.2 44.808 29.816 43.824 29.048 42.96C28.28 42.096 27.344 41.352 26.24 40.728C25.136 40.056 23.528 39.192 21.416 38.136L19.544 37.272C15.992 35.544 13.208 33.72 11.192 31.8C9.17604 29.88 8.16804 27.384 8.16804 24.312C8.16804 21.528 8.98404 19.056 10.616 16.896C12.248 14.688 14.528 12.984 17.456 11.784C20.384 10.536 23.72 9.912 27.464 9.912C29.576 9.912 31.544 10.056 33.368 10.344C35.192 10.632 36.632 10.944 37.688 11.28C38.792 11.568 39.488 11.76 39.776 11.856L40.28 12.792C40.136 13.464 39.848 15.024 39.416 17.472C39.032 19.872 38.744 22.44 38.552 25.176L33.08 25.608L32.432 25.104C32.432 24.96 32.432 24.672 32.432 24.24C32.48 23.76 32.504 23.208 32.504 22.584C32.504 20.472 31.976 18.984 30.92 18.12C29.864 17.208 28.088 16.752 25.592 16.752C23.576 16.752 21.92 17.232 20.624 18.192C19.328 19.152 18.68 20.376 18.68 21.864C18.68 23.496 19.448 24.888 20.984 26.04C22.52 27.144 24.896 28.44 28.112 29.928C30.8 31.224 33.008 32.4 34.736 33.456C36.464 34.512 37.928 35.88 39.128 37.56C40.328 39.192 40.928 41.112 40.928 43.32C40.928 46.2 40.088 48.744 38.408 50.952C36.776 53.16 34.448 54.864 31.424 56.064C28.4 57.264 24.896 57.864 20.912 57.864Z" stroke="#365FAB" stroke-width="6" mask="url(#path-1-outside-1_141_149)"/>
<path d="M66.0757 53.04C67.2277 52.752 68.0437 52.32 68.5237 51.744C69.0517 51.12 69.3397 50.208 69.3877 49.008L69.6037 36.696C69.6037 32.52 68.0677 30.432 64.9957 30.432C63.3637 30.432 61.2997 31.32 58.8037 33.096C58.3237 41.832 58.0837 47.208 58.0837 49.224C58.0837 50.472 58.2277 51.336 58.5157 51.816C58.8517 52.248 59.4277 52.464 60.2437 52.464C60.5797 52.464 60.9397 52.44 61.3237 52.392C61.7077 52.344 61.9717 52.32 62.1157 52.32L62.2597 52.68L61.5397 57.216C61.0117 57.168 60.0037 57.12 58.5157 57.072C57.0277 57.024 55.4917 57 53.9077 57C52.3717 57 50.6677 57.048 48.7957 57.144C46.9717 57.288 45.7957 57.384 45.2677 57.432L45.9157 52.824C47.3077 52.68 48.2677 52.32 48.7957 51.744C49.3717 51.168 49.6597 50.208 49.6597 48.864V33.744C49.6597 32.064 49.3957 30.936 48.8677 30.36C48.3877 29.736 47.4757 29.424 46.1317 29.424H45.1957L44.9077 29.064L45.2677 25.248C48.0517 24.816 50.7877 24.36 53.4757 23.88C56.2117 23.352 57.9637 23.016 58.7317 22.872L59.3077 23.592C59.2117 23.88 59.0677 24.528 58.8757 25.536C58.6837 26.544 58.5637 27.552 58.5157 28.56L58.8037 28.848C60.3877 27.456 62.1157 26.112 63.9877 24.816C65.8597 23.52 67.2277 22.872 68.0917 22.872C71.4997 22.872 74.1637 23.712 76.0837 25.392C78.0037 27.024 78.9637 29.304 78.9637 32.232C78.9637 33 78.7717 35.544 78.3877 39.864C77.9077 44.664 77.6677 47.76 77.6677 49.152C77.6677 50.4 77.8357 51.288 78.1717 51.816C78.5077 52.296 79.0837 52.536 79.8997 52.536L82.0597 52.464L82.2037 52.752L81.5557 57.216C80.9797 57.168 79.9237 57.12 78.3877 57.072C76.8517 57.024 75.2917 57 73.7077 57C72.5557 57 71.0677 57.072 69.2437 57.216C67.4197 57.408 66.2197 57.528 65.6437 57.576L66.0757 53.04Z" stroke="#365FAB" stroke-width="6" mask="url(#path-1-outside-1_141_149)"/>
<path d="M104.33 36.192C104.33 34.128 103.778 32.544 102.674 31.44C101.618 30.288 100.13 29.712 98.2102 29.712C97.0102 29.712 95.5942 30.048 93.9622 30.72C92.3782 31.344 90.9622 32.136 89.7142 33.096L89.1382 32.736L87.7702 28.416C90.6022 26.832 93.2902 25.512 95.8342 24.456C98.3782 23.4 100.13 22.872 101.09 22.872C104.882 22.872 107.834 23.736 109.946 25.464C112.106 27.192 113.186 29.616 113.186 32.736C113.186 33.744 112.97 35.928 112.538 39.288C112.01 43.944 111.746 46.68 111.746 47.496C111.746 48.408 111.962 49.128 112.394 49.656C112.874 50.136 113.498 50.376 114.266 50.376C115.274 50.376 116.426 49.968 117.722 49.152L118.802 50.664C117.842 52.44 116.69 54.024 115.346 55.416C114.05 56.76 112.874 57.576 111.818 57.864C109.658 57.864 107.954 57.408 106.706 56.496C105.506 55.536 104.786 54.144 104.546 52.32L104.042 52.104C102.362 53.784 100.802 55.128 99.3622 56.136C97.9222 57.096 96.8182 57.576 96.0502 57.576C94.2262 57.576 92.5462 57.12 91.0102 56.208C89.5222 55.296 88.3462 54.048 87.4822 52.464C86.6182 50.832 86.1862 49.032 86.1862 47.064C86.1862 45.528 86.5702 44.232 87.3382 43.176C88.1062 42.072 89.1142 41.376 90.3622 41.088L104.258 37.848L104.33 36.192ZM96.5542 43.896C95.4022 44.232 94.8262 45 94.8262 46.2C94.8262 47.592 95.1862 48.672 95.9062 49.44C96.6742 50.208 97.7302 50.592 99.0742 50.592C99.7462 50.592 100.514 50.424 101.378 50.088C102.242 49.704 103.082 49.2 103.898 48.576L104.042 41.808L96.5542 43.896Z" stroke="#365FAB" stroke-width="6" mask="url(#path-1-outside-1_141_149)"/>
<path d="M121.359 69.528C122.703 69.384 123.591 69.024 124.023 68.448C124.455 67.872 124.671 66.744 124.671 65.064L125.031 54.048V33.744C125.031 32.064 124.767 30.936 124.239 30.36C123.759 29.736 122.847 29.424 121.503 29.424H120.567L120.279 29.064L120.639 25.248C123.375 24.816 126.087 24.36 128.775 23.88C131.463 23.352 133.191 23.016 133.959 22.872L134.607 23.592C134.559 23.88 134.439 24.504 134.247 25.464C134.055 26.376 133.911 27.264 133.815 28.128L134.103 28.488C135.927 26.808 137.463 25.512 138.711 24.6C140.007 23.64 140.871 23.16 141.303 23.16C144.135 23.16 146.631 23.832 148.791 25.176C150.951 26.472 152.607 28.32 153.759 30.72C154.959 33.12 155.559 35.88 155.559 39C155.559 42.696 154.743 45.96 153.111 48.792C151.479 51.624 149.223 53.832 146.343 55.416C143.463 56.952 140.175 57.72 136.479 57.72C135.855 57.72 135.231 57.696 134.607 57.648C134.031 57.6 133.647 57.552 133.455 57.504V64.128C133.455 66.096 133.599 67.416 133.887 68.088C134.223 68.76 134.943 69.096 136.047 69.096C136.767 69.096 137.367 69.072 137.847 69.024C138.375 68.976 138.759 68.952 138.999 68.952L139.143 69.24L138.351 73.704C137.343 73.704 136.431 73.68 135.615 73.632L129.567 73.56C127.887 73.56 126.135 73.608 124.311 73.704C122.487 73.848 121.311 73.944 120.783 73.992L121.359 69.528ZM133.671 50.736C135.543 51.408 137.319 51.744 138.999 51.744C141.255 51.744 143.007 50.88 144.255 49.152C145.551 47.376 146.199 44.904 146.199 41.736C146.199 38.232 145.551 35.472 144.255 33.456C143.007 31.392 141.303 30.36 139.143 30.36C138.471 30.36 137.679 30.552 136.767 30.936C135.855 31.32 134.967 31.824 134.103 32.448C133.815 39.936 133.671 46.032 133.671 50.736Z" stroke="#365FAB" stroke-width="6" mask="url(#path-1-outside-1_141_149)"/>
<path d="M158.292 49.224C160.452 47.592 162.348 46.776 163.98 46.776C165.42 46.776 166.572 47.352 167.436 48.504C168.348 49.656 168.804 51.216 168.804 53.184C168.804 55.68 167.748 58.176 165.636 60.672C163.524 63.168 160.908 65.304 157.788 67.08L155.124 64.92V63.696C156.66 62.64 157.908 61.368 158.868 59.88C159.828 58.392 160.308 56.928 160.308 55.488C160.308 54.576 160.092 53.64 159.66 52.68C159.228 51.72 158.7 50.904 158.076 50.232L158.292 49.224Z" stroke="#365FAB" stroke-width="6" mask="url(#path-1-outside-1_141_149)"/>
<path d="M196.131 57.864C193.875 57.864 191.811 57.648 189.939 57.216C188.067 56.832 186.507 56.4 185.259 55.92C184.011 55.44 183.387 55.176 183.387 55.128L182.811 54.12C182.859 53.784 182.955 53.064 183.099 51.96C183.291 50.808 183.483 49.272 183.675 47.352C183.867 45.432 183.963 43.608 183.963 41.88L190.011 41.376C190.011 44.064 190.251 46.128 190.731 47.568C191.211 49.008 192.003 50.016 193.107 50.592C194.259 51.168 195.867 51.456 197.931 51.456C200.187 51.456 201.987 50.952 203.331 49.944C204.723 48.936 205.419 47.592 205.419 45.912C205.419 44.808 205.035 43.824 204.267 42.96C203.499 42.096 202.563 41.352 201.459 40.728C200.355 40.056 198.747 39.192 196.635 38.136L194.763 37.272C191.211 35.544 188.427 33.72 186.411 31.8C184.395 29.88 183.387 27.384 183.387 24.312C183.387 21.528 184.203 19.056 185.835 16.896C187.467 14.688 189.747 12.984 192.675 11.784C195.603 10.536 198.939 9.912 202.683 9.912C204.795 9.912 206.763 10.056 208.587 10.344C210.411 10.632 211.851 10.944 212.907 11.28C214.011 11.568 214.707 11.76 214.995 11.856L215.499 12.792C215.355 13.464 215.067 15.024 214.635 17.472C214.251 19.872 213.963 22.44 213.771 25.176L208.299 25.608L207.651 25.104C207.651 24.96 207.651 24.672 207.651 24.24C207.699 23.76 207.723 23.208 207.723 22.584C207.723 20.472 207.195 18.984 206.139 18.12C205.083 17.208 203.307 16.752 200.811 16.752C198.795 16.752 197.139 17.232 195.843 18.192C194.547 19.152 193.899 20.376 193.899 21.864C193.899 23.496 194.667 24.888 196.203 26.04C197.739 27.144 200.115 28.44 203.331 29.928C206.019 31.224 208.227 32.4 209.955 33.456C211.683 34.512 213.147 35.88 214.347 37.56C215.547 39.192 216.147 41.112 216.147 43.32C216.147 46.2 215.307 48.744 213.627 50.952C211.995 53.16 209.667 54.864 206.643 56.064C203.619 57.264 200.115 57.864 196.131 57.864Z" stroke="#365FAB" stroke-width="6" mask="url(#path-1-outside-1_141_149)"/>
<path d="M220.83 52.752C222.126 52.608 223.014 52.272 223.494 51.744C224.022 51.168 224.286 50.208 224.286 48.864V14.016C224.286 12.528 224.07 11.496 223.638 10.92C223.206 10.344 222.39 10.056 221.19 10.056H219.534L219.246 9.696L219.678 5.88C222.414 5.544 225.342 5.112 228.462 4.584C231.582 4.056 233.598 3.72 234.51 3.576L235.014 4.944C234.534 5.52 234.126 7.944 233.79 12.216C233.454 16.488 233.19 22.128 232.998 29.136C234.438 27.792 236.142 26.424 238.11 25.032C240.126 23.592 241.59 22.872 242.502 22.872C246.006 22.872 248.694 23.688 250.566 25.32C252.438 26.904 253.374 29.208 253.374 32.232C253.374 33.432 253.158 35.976 252.726 39.864C252.246 44.664 252.006 47.76 252.006 49.152C252.006 50.352 252.174 51.216 252.51 51.744C252.894 52.272 253.494 52.536 254.31 52.536L256.47 52.464L256.614 52.752L255.894 57.216C255.318 57.168 254.262 57.12 252.726 57.072C251.238 57.024 249.702 57 248.118 57C246.966 57 245.478 57.072 243.654 57.216C241.83 57.408 240.63 57.528 240.054 57.576L240.414 53.04C241.614 52.752 242.454 52.32 242.934 51.744C243.462 51.12 243.726 50.208 243.726 49.008L244.014 36.696C244.062 32.52 242.55 30.432 239.478 30.432C237.606 30.432 235.422 31.416 232.926 33.384C232.83 36.696 232.782 42 232.782 49.296C232.782 50.496 232.926 51.336 233.214 51.816C233.55 52.296 234.102 52.536 234.87 52.536C235.254 52.536 235.614 52.512 235.95 52.464C236.334 52.416 236.574 52.392 236.67 52.392L236.886 52.824L236.166 57.216C235.638 57.168 234.606 57.12 233.07 57.072C231.534 57.024 229.95 57 228.318 57C226.446 57 224.742 57.024 223.206 57.072C221.718 57.12 220.734 57.168 220.254 57.216L220.83 52.752Z" stroke="#365FAB" stroke-width="6" mask="url(#path-1-outside-1_141_149)"/>
<path d="M278.354 36.192C278.354 34.128 277.802 32.544 276.698 31.44C275.642 30.288 274.154 29.712 272.234 29.712C271.034 29.712 269.618 30.048 267.986 30.72C266.402 31.344 264.986 32.136 263.738 33.096L263.162 32.736L261.794 28.416C264.626 26.832 267.314 25.512 269.858 24.456C272.402 23.4 274.154 22.872 275.114 22.872C278.906 22.872 281.858 23.736 283.97 25.464C286.13 27.192 287.21 29.616 287.21 32.736C287.21 33.744 286.994 35.928 286.562 39.288C286.034 43.944 285.77 46.68 285.77 47.496C285.77 48.408 285.986 49.128 286.418 49.656C286.898 50.136 287.522 50.376 288.29 50.376C289.298 50.376 290.45 49.968 291.746 49.152L292.826 50.664C291.866 52.44 290.714 54.024 289.37 55.416C288.074 56.76 286.898 57.576 285.842 57.864C283.682 57.864 281.978 57.408 280.73 56.496C279.53 55.536 278.81 54.144 278.57 52.32L278.066 52.104C276.386 53.784 274.826 55.128 273.386 56.136C271.946 57.096 270.842 57.576 270.074 57.576C268.25 57.576 266.57 57.12 265.034 56.208C263.546 55.296 262.37 54.048 261.506 52.464C260.642 50.832 260.21 49.032 260.21 47.064C260.21 45.528 260.594 44.232 261.362 43.176C262.13 42.072 263.138 41.376 264.386 41.088L278.282 37.848L278.354 36.192ZM270.578 43.896C269.426 44.232 268.85 45 268.85 46.2C268.85 47.592 269.21 48.672 269.93 49.44C270.698 50.208 271.754 50.592 273.098 50.592C273.77 50.592 274.538 50.424 275.402 50.088C276.266 49.704 277.106 49.2 277.922 48.576L278.066 41.808L270.578 43.896Z" stroke="#365FAB" stroke-width="6" mask="url(#path-1-outside-1_141_149)"/>
<path d="M295.815 52.824C297.207 52.728 298.143 52.344 298.623 51.672C299.151 51 299.415 49.752 299.415 47.928V33.672C299.415 31.992 299.199 30.864 298.767 30.288C298.383 29.712 297.591 29.424 296.391 29.424L295.023 29.496L294.663 28.992L295.023 25.248C297.663 24.864 300.327 24.408 303.015 23.88C305.751 23.352 307.503 23.016 308.271 22.872L308.919 23.52C308.823 23.904 308.679 24.792 308.487 26.184C308.343 27.576 308.247 28.92 308.199 30.216L308.631 30.504C310.119 28.296 311.751 26.568 313.527 25.32C315.351 24.024 317.079 23.376 318.711 23.376C319.287 23.376 319.815 23.424 320.295 23.52C320.775 23.568 321.087 23.616 321.231 23.664L321.519 24.24C321.375 25.056 321.135 26.856 320.799 29.64C320.463 32.376 320.223 34.968 320.079 37.416L315.327 37.704C315.327 35.4 315.183 33.888 314.895 33.168C314.655 32.4 314.127 32.016 313.311 32.016C312.543 32.016 311.727 32.304 310.863 32.88C310.047 33.408 309.279 34.152 308.559 35.112C308.463 36.408 308.319 38.592 308.127 41.664C307.983 44.688 307.887 47.112 307.839 48.936C307.839 50.184 308.031 51.048 308.415 51.528C308.847 52.008 309.591 52.248 310.647 52.248C311.415 52.248 312.159 52.224 312.879 52.176C313.599 52.08 314.079 52.008 314.319 51.96L314.535 52.392L313.743 57.288C313.071 57.24 311.799 57.168 309.927 57.072C308.103 57.024 306.231 57 304.311 57C302.487 57 300.639 57.024 298.767 57.072C296.943 57.168 295.767 57.24 295.239 57.288L295.815 52.824Z" stroke="#365FAB" stroke-width="6" mask="url(#path-1-outside-1_141_149)"/>
<path d="M332.918 40.8C333.062 43.968 333.902 46.44 335.438 48.216C337.022 49.944 339.158 50.808 341.846 50.808C343.19 50.808 344.51 50.664 345.806 50.376C347.102 50.04 348.158 49.704 348.974 49.368C349.79 48.984 350.318 48.744 350.558 48.648L351.062 48.864L352.286 52.536C352.286 52.584 351.518 53.088 349.982 54.048C348.494 55.008 346.814 55.896 344.942 56.712C343.118 57.48 341.438 57.864 339.902 57.864C334.814 57.864 330.806 56.376 327.878 53.4C324.998 50.424 323.558 46.368 323.558 41.232C323.558 37.776 324.302 34.656 325.79 31.872C327.278 29.088 329.318 26.904 331.91 25.32C334.502 23.688 337.406 22.872 340.622 22.872C348.734 22.872 352.79 27 352.79 35.256C352.79 36.12 352.718 36.96 352.574 37.776C352.43 38.592 352.334 39.12 352.286 39.36L351.422 40.152H332.918V40.8ZM342.566 35.616C343.094 35.52 343.454 35.376 343.646 35.184C343.838 34.992 343.934 34.584 343.934 33.96C343.934 30.408 342.422 28.632 339.398 28.632C337.526 28.632 336.014 29.28 334.862 30.576C333.758 31.824 333.11 33.672 332.918 36.12L342.566 35.616Z" stroke="#365FAB" stroke-width="6" mask="url(#path-1-outside-1_141_149)"/>
<path d="M356.995 49.224C359.155 47.592 361.051 46.776 362.683 46.776C364.123 46.776 365.275 47.352 366.139 48.504C367.051 49.656 367.507 51.216 367.507 53.184C367.507 55.68 366.451 58.176 364.339 60.672C362.227 63.168 359.611 65.304 356.491 67.08L353.827 64.92V63.696C355.363 62.64 356.611 61.368 357.571 59.88C358.531 58.392 359.011 56.928 359.011 55.488C359.011 54.576 358.795 53.64 358.363 52.68C357.931 51.72 357.403 50.904 356.779 50.232L356.995 49.224Z" stroke="#365FAB" stroke-width="6" mask="url(#path-1-outside-1_141_149)"/>
<path d="M37.6037 115.192C37.6037 113.128 37.0517 111.544 35.9477 110.44C34.8917 109.288 33.4037 108.712 31.4837 108.712C30.2837 108.712 28.8677 109.048 27.2357 109.72C25.6517 110.344 24.2357 111.136 22.9877 112.096L22.4117 111.736L21.0437 107.416C23.8757 105.832 26.5637 104.512 29.1077 103.456C31.6517 102.4 33.4037 101.872 34.3637 101.872C38.1557 101.872 41.1077 102.736 43.2197 104.464C45.3797 106.192 46.4597 108.616 46.4597 111.736C46.4597 112.744 46.2437 114.928 45.8117 118.288C45.2837 122.944 45.0197 125.68 45.0197 126.496C45.0197 127.408 45.2357 128.128 45.6677 128.656C46.1477 129.136 46.7717 129.376 47.5397 129.376C48.5477 129.376 49.6997 128.968 50.9957 128.152L52.0757 129.664C51.1157 131.44 49.9637 133.024 48.6197 134.416C47.3237 135.76 46.1477 136.576 45.0917 136.864C42.9317 136.864 41.2277 136.408 39.9797 135.496C38.7797 134.536 38.0597 133.144 37.8197 131.32L37.3157 131.104C35.6357 132.784 34.0757 134.128 32.6357 135.136C31.1957 136.096 30.0917 136.576 29.3237 136.576C27.4997 136.576 25.8197 136.12 24.2837 135.208C22.7957 134.296 21.6197 133.048 20.7557 131.464C19.8917 129.832 19.4597 128.032 19.4597 126.064C19.4597 124.528 19.8437 123.232 20.6117 122.176C21.3797 121.072 22.3877 120.376 23.6357 120.088L37.5317 116.848L37.6037 115.192ZM29.8277 122.896C28.6757 123.232 28.0997 124 28.0997 125.2C28.0997 126.592 28.4597 127.672 29.1797 128.44C29.9477 129.208 31.0037 129.592 32.3477 129.592C33.0197 129.592 33.7877 129.424 34.6517 129.088C35.5157 128.704 36.3557 128.2 37.1717 127.576L37.3157 120.808L29.8277 122.896Z" stroke="#365FAB" stroke-width="6" mask="url(#path-1-outside-1_141_149)"/>
<path d="M74.8648 132.04C76.0168 131.752 76.8328 131.32 77.3128 130.744C77.8408 130.12 78.1288 129.208 78.1768 128.008L78.3928 115.696C78.3928 111.52 76.8568 109.432 73.7848 109.432C72.1528 109.432 70.0888 110.32 67.5928 112.096C67.1128 120.832 66.8728 126.208 66.8728 128.224C66.8728 129.472 67.0168 130.336 67.3048 130.816C67.6408 131.248 68.2168 131.464 69.0328 131.464C69.3688 131.464 69.7288 131.44 70.1128 131.392C70.4968 131.344 70.7608 131.32 70.9048 131.32L71.0488 131.68L70.3288 136.216C69.8008 136.168 68.7928 136.12 67.3048 136.072C65.8168 136.024 64.2808 136 62.6968 136C61.1608 136 59.4568 136.048 57.5848 136.144C55.7608 136.288 54.5848 136.384 54.0568 136.432L54.7048 131.824C56.0968 131.68 57.0568 131.32 57.5848 130.744C58.1608 130.168 58.4488 129.208 58.4488 127.864V112.744C58.4488 111.064 58.1848 109.936 57.6568 109.36C57.1768 108.736 56.2648 108.424 54.9208 108.424H53.9848L53.6968 108.064L54.0568 104.248C56.8408 103.816 59.5768 103.36 62.2648 102.88C65.0008 102.352 66.7528 102.016 67.5208 101.872L68.0968 102.592C68.0008 102.88 67.8568 103.528 67.6648 104.536C67.4728 105.544 67.3528 106.552 67.3048 107.56L67.5928 107.848C69.1768 106.456 70.9048 105.112 72.7768 103.816C74.6488 102.52 76.0168 101.872 76.8808 101.872C80.2888 101.872 82.9528 102.712 84.8728 104.392C86.7928 106.024 87.7528 108.304 87.7528 111.232C87.7528 112 87.5608 114.544 87.1768 118.864C86.6968 123.664 86.4568 126.76 86.4568 128.152C86.4568 129.4 86.6248 130.288 86.9608 130.816C87.2968 131.296 87.8728 131.536 88.6888 131.536L90.8488 131.464L90.9928 131.752L90.3448 136.216C89.7688 136.168 88.7128 136.12 87.1768 136.072C85.6408 136.024 84.0808 136 82.4968 136C81.3448 136 79.8568 136.072 78.0328 136.216C76.2088 136.408 75.0088 136.528 74.4328 136.576L74.8648 132.04Z" stroke="#365FAB" stroke-width="6" mask="url(#path-1-outside-1_141_149)"/>
<path d="M116.863 131.536C112.207 134.896 109.423 136.576 108.511 136.576C104.287 136.576 100.951 135.16 98.5033 132.328C96.0553 129.496 94.8313 125.656 94.8313 120.808C94.8313 117.208 95.5993 113.992 97.1353 111.16C98.7193 108.328 100.879 106.12 103.615 104.536C106.351 102.904 109.471 102.088 112.975 102.088C114.559 102.088 115.783 102.136 116.647 102.232V93.16C116.647 91.672 116.407 90.64 115.927 90.064C115.495 89.44 114.703 89.128 113.551 89.128C113.167 89.128 112.807 89.152 112.471 89.2C112.135 89.248 111.919 89.296 111.823 89.344L112.327 84.952C115.159 84.568 118.039 84.136 120.967 83.656C123.943 83.128 125.863 82.768 126.727 82.576L127.375 83.8C126.751 84.712 126.223 89.368 125.791 97.768C125.359 106.168 125.143 115.72 125.143 126.424C125.143 127.336 125.335 128.056 125.719 128.584C126.151 129.112 126.703 129.376 127.375 129.376C127.903 129.376 128.407 129.28 128.887 129.088C129.367 128.896 129.751 128.704 130.039 128.512C130.375 128.32 130.591 128.2 130.687 128.152L131.767 129.664C131.623 129.952 131.215 130.6 130.543 131.608C129.871 132.568 129.007 133.6 127.951 134.704C126.895 135.76 125.767 136.48 124.567 136.864C120.295 136.864 117.895 135.136 117.367 131.68L116.863 131.536ZM116.647 109.36C116.551 109.312 116.263 109.192 115.783 109C115.351 108.808 114.751 108.616 113.983 108.424C113.215 108.232 112.375 108.136 111.463 108.136C109.207 108.136 107.431 109.024 106.135 110.8C104.887 112.528 104.263 114.976 104.263 118.144C104.263 121.696 104.887 124.528 106.135 126.64C107.431 128.752 109.135 129.808 111.247 129.808C112.015 129.808 112.807 129.64 113.623 129.304C114.439 128.92 115.111 128.56 115.639 128.224C116.167 127.84 116.503 127.576 116.647 127.432V109.36Z" stroke="#365FAB" stroke-width="6" mask="url(#path-1-outside-1_141_149)"/>
<path d="M160.131 136.864C157.875 136.864 155.811 136.648 153.939 136.216C152.067 135.832 150.507 135.4 149.259 134.92C148.011 134.44 147.387 134.176 147.387 134.128L146.811 133.12C146.859 132.784 146.955 132.064 147.099 130.96C147.291 129.808 147.483 128.272 147.675 126.352C147.867 124.432 147.963 122.608 147.963 120.88L154.011 120.376C154.011 123.064 154.251 125.128 154.731 126.568C155.211 128.008 156.003 129.016 157.107 129.592C158.259 130.168 159.867 130.456 161.931 130.456C164.187 130.456 165.987 129.952 167.331 128.944C168.723 127.936 169.419 126.592 169.419 124.912C169.419 123.808 169.035 122.824 168.267 121.96C167.499 121.096 166.563 120.352 165.459 119.728C164.355 119.056 162.747 118.192 160.635 117.136L158.763 116.272C155.211 114.544 152.427 112.72 150.411 110.8C148.395 108.88 147.387 106.384 147.387 103.312C147.387 100.528 148.203 98.056 149.835 95.896C151.467 93.688 153.747 91.984 156.675 90.784C159.603 89.536 162.939 88.912 166.683 88.912C168.795 88.912 170.763 89.056 172.587 89.344C174.411 89.632 175.851 89.944 176.907 90.28C178.011 90.568 178.707 90.76 178.995 90.856L179.499 91.792C179.355 92.464 179.067 94.024 178.635 96.472C178.251 98.872 177.963 101.44 177.771 104.176L172.299 104.608L171.651 104.104C171.651 103.96 171.651 103.672 171.651 103.24C171.699 102.76 171.723 102.208 171.723 101.584C171.723 99.472 171.195 97.984 170.139 97.12C169.083 96.208 167.307 95.752 164.811 95.752C162.795 95.752 161.139 96.232 159.843 97.192C158.547 98.152 157.899 99.376 157.899 100.864C157.899 102.496 158.667 103.888 160.203 105.04C161.739 106.144 164.115 107.44 167.331 108.928C170.019 110.224 172.227 111.4 173.955 112.456C175.683 113.512 177.147 114.88 178.347 116.56C179.547 118.192 180.147 120.112 180.147 122.32C180.147 125.2 179.307 127.744 177.627 129.952C175.995 132.16 173.667 133.864 170.643 135.064C167.619 136.264 164.115 136.864 160.131 136.864Z" stroke="#365FAB" stroke-width="6" mask="url(#path-1-outside-1_141_149)"/>
<path d="M184.83 131.752C186.126 131.608 187.014 131.272 187.494 130.744C188.022 130.168 188.286 129.208 188.286 127.864V93.016C188.286 91.528 188.07 90.496 187.638 89.92C187.206 89.344 186.39 89.056 185.19 89.056H183.534L183.246 88.696L183.678 84.88C186.414 84.544 189.342 84.112 192.462 83.584C195.582 83.056 197.598 82.72 198.51 82.576L199.014 83.944C198.534 84.52 198.126 86.944 197.79 91.216C197.454 95.488 197.19 101.128 196.998 108.136C198.438 106.792 200.142 105.424 202.11 104.032C204.126 102.592 205.59 101.872 206.502 101.872C210.006 101.872 212.694 102.688 214.566 104.32C216.438 105.904 217.374 108.208 217.374 111.232C217.374 112.432 217.158 114.976 216.726 118.864C216.246 123.664 216.006 126.76 216.006 128.152C216.006 129.352 216.174 130.216 216.51 130.744C216.894 131.272 217.494 131.536 218.31 131.536L220.47 131.464L220.614 131.752L219.894 136.216C219.318 136.168 218.262 136.12 216.726 136.072C215.238 136.024 213.702 136 212.118 136C210.966 136 209.478 136.072 207.654 136.216C205.83 136.408 204.63 136.528 204.054 136.576L204.414 132.04C205.614 131.752 206.454 131.32 206.934 130.744C207.462 130.12 207.726 129.208 207.726 128.008L208.014 115.696C208.062 111.52 206.55 109.432 203.478 109.432C201.606 109.432 199.422 110.416 196.926 112.384C196.83 115.696 196.782 121 196.782 128.296C196.782 129.496 196.926 130.336 197.214 130.816C197.55 131.296 198.102 131.536 198.87 131.536C199.254 131.536 199.614 131.512 199.95 131.464C200.334 131.416 200.574 131.392 200.67 131.392L200.886 131.824L200.166 136.216C199.638 136.168 198.606 136.12 197.07 136.072C195.534 136.024 193.95 136 192.318 136C190.446 136 188.742 136.024 187.206 136.072C185.718 136.12 184.734 136.168 184.254 136.216L184.83 131.752Z" stroke="#365FAB" stroke-width="6" mask="url(#path-1-outside-1_141_149)"/>
<path d="M232.994 94.672C231.362 94.672 230.09 94.216 229.178 93.304C228.314 92.392 227.882 91.12 227.882 89.488C227.882 87.76 228.41 86.368 229.466 85.312C230.522 84.256 231.914 83.728 233.642 83.728C235.178 83.728 236.402 84.184 237.314 85.096C238.226 86.008 238.682 87.28 238.682 88.912C238.682 90.64 238.154 92.032 237.098 93.088C236.042 94.144 234.674 94.672 232.994 94.672ZM224.714 132.184C226.154 131.944 227.186 131.464 227.81 130.744C228.482 130.024 228.818 129.016 228.818 127.72V112.312C228.818 110.824 228.578 109.792 228.098 109.216C227.666 108.592 226.898 108.28 225.794 108.28C225.41 108.28 225.05 108.304 224.714 108.352C224.378 108.4 224.162 108.448 224.066 108.496L224.498 104.248C227.282 103.912 230.066 103.48 232.85 102.952C235.682 102.424 237.506 102.064 238.322 101.872L238.97 103.096C238.49 104.152 238.082 107.008 237.746 111.664C237.458 116.32 237.314 121.888 237.314 128.368C237.314 129.52 237.482 130.336 237.818 130.816C238.154 131.296 238.706 131.536 239.474 131.536C239.906 131.536 240.314 131.512 240.698 131.464C241.13 131.416 241.418 131.392 241.562 131.392L241.778 131.68L241.058 136.216C240.482 136.168 239.426 136.12 237.89 136.072C236.354 136.024 234.746 136 233.066 136C231.578 136 229.874 136.096 227.954 136.288C226.034 136.528 224.786 136.696 224.21 136.792L224.714 132.184Z" stroke="#365FAB" stroke-width="6" mask="url(#path-1-outside-1_141_149)"/>
<path d="M266.255 132.04C267.407 131.752 268.223 131.32 268.703 130.744C269.231 130.12 269.519 129.208 269.567 128.008L269.783 115.696C269.783 111.52 268.247 109.432 265.175 109.432C263.543 109.432 261.479 110.32 258.983 112.096C258.503 120.832 258.263 126.208 258.263 128.224C258.263 129.472 258.407 130.336 258.695 130.816C259.031 131.248 259.607 131.464 260.423 131.464C260.759 131.464 261.119 131.44 261.503 131.392C261.887 131.344 262.151 131.32 262.295 131.32L262.439 131.68L261.719 136.216C261.191 136.168 260.183 136.12 258.695 136.072C257.207 136.024 255.671 136 254.087 136C252.551 136 250.847 136.048 248.975 136.144C247.151 136.288 245.975 136.384 245.447 136.432L246.095 131.824C247.487 131.68 248.447 131.32 248.975 130.744C249.551 130.168 249.839 129.208 249.839 127.864V112.744C249.839 111.064 249.575 109.936 249.047 109.36C248.567 108.736 247.655 108.424 246.311 108.424H245.375L245.087 108.064L245.447 104.248C248.231 103.816 250.967 103.36 253.655 102.88C256.391 102.352 258.143 102.016 258.911 101.872L259.487 102.592C259.391 102.88 259.247 103.528 259.055 104.536C258.863 105.544 258.743 106.552 258.695 107.56L258.983 107.848C260.567 106.456 262.295 105.112 264.167 103.816C266.039 102.52 267.407 101.872 268.271 101.872C271.679 101.872 274.343 102.712 276.263 104.392C278.183 106.024 279.143 108.304 279.143 111.232C279.143 112 278.951 114.544 278.567 118.864C278.087 123.664 277.847 126.76 277.847 128.152C277.847 129.4 278.015 130.288 278.351 130.816C278.687 131.296 279.263 131.536 280.079 131.536L282.239 131.464L282.383 131.752L281.735 136.216C281.159 136.168 280.103 136.12 278.567 136.072C277.031 136.024 275.471 136 273.887 136C272.735 136 271.247 136.072 269.423 136.216C267.599 136.408 266.399 136.528 265.823 136.576L266.255 132.04Z" stroke="#365FAB" stroke-width="6" mask="url(#path-1-outside-1_141_149)"/>
<path d="M295.582 119.8C295.726 122.968 296.566 125.44 298.102 127.216C299.686 128.944 301.822 129.808 304.51 129.808C305.854 129.808 307.174 129.664 308.47 129.376C309.766 129.04 310.822 128.704 311.638 128.368C312.454 127.984 312.982 127.744 313.222 127.648L313.726 127.864L314.95 131.536C314.95 131.584 314.182 132.088 312.646 133.048C311.158 134.008 309.478 134.896 307.606 135.712C305.782 136.48 304.102 136.864 302.566 136.864C297.478 136.864 293.47 135.376 290.542 132.4C287.662 129.424 286.222 125.368 286.222 120.232C286.222 116.776 286.966 113.656 288.454 110.872C289.942 108.088 291.982 105.904 294.574 104.32C297.166 102.688 300.07 101.872 303.286 101.872C311.398 101.872 315.454 106 315.454 114.256C315.454 115.12 315.382 115.96 315.238 116.776C315.094 117.592 314.998 118.12 314.95 118.36L314.086 119.152H295.582V119.8ZM305.23 114.616C305.758 114.52 306.118 114.376 306.31 114.184C306.502 113.992 306.598 113.584 306.598 112.96C306.598 109.408 305.086 107.632 302.062 107.632C300.19 107.632 298.678 108.28 297.526 109.576C296.422 110.824 295.774 112.672 295.582 115.12L305.23 114.616Z" stroke="#365FAB" stroke-width="6" mask="url(#path-1-outside-1_141_149)"/>
</g>
<defs>
<filter id="filter0_d_141_149" x="0.476685" y="0.228739" width="374.03" height="148.173" filterUnits="userSpaceOnUse" color-interpolation-filters="sRGB">
<feFlood flood-opacity="0" result="BackgroundImageFix"/>
<feColorMatrix in="SourceAlpha" type="matrix" values="0 0 0 0 0 0 0 0 0 0 0 0 0 0 0 0 0 0 127 0" result="hardAlpha"/>
<feOffset dy="4"/>
<feGaussianBlur stdDeviation="2"/>
<feComposite in2="hardAlpha" operator="out"/>
<feColorMatrix type="matrix" values="0 0 0 0 0 0 0 0 0 0 0 0 0 0 0 0 0 0 0.25 0"/>
<feBlend mode="normal" in2="BackgroundImageFix" result="effect1_dropShadow_141_149"/>
<feBlend mode="normal" in="SourceGraphic" in2="effect1_dropShadow_141_149" result="shape"/>
</filter>
</defs>
</svg>
