<svg version="1.1" id="Layer_1" xmlns="http://www.w3.org/2000/svg" xmlns:xlink="http://www.w3.org/1999/xlink" x="0px" y="0px"
	 width="100%" viewBox="0 0 353 360" enable-background="new 0 0 353 360" xml:space="preserve">
<path fill="#000000" opacity="1.000000" stroke="none" 
	d="
M230.000000,361.000000 
	C153.333344,361.000000 77.166695,361.000000 1.000031,361.000000 
	C1.000021,241.000031 1.000021,121.000069 1.000010,1.000079 
	C118.666603,1.000053 236.333206,1.000053 353.999878,1.000026 
	C353.999908,120.999916 353.999908,240.999832 353.999939,360.999878 
	C312.833344,361.000000 271.666656,361.000000 230.000000,361.000000 
M239.650848,304.912933 
	C243.926178,306.201080 248.388153,307.090729 252.389221,308.964539 
	C254.098709,309.765106 255.838760,312.614319 255.846161,314.539215 
	C255.868347,320.319366 255.286514,326.136505 254.488953,331.876465 
	C253.483337,339.113708 253.471207,339.492218 260.475616,341.951202 
	C274.146667,346.750610 288.175201,350.098419 302.664673,350.806854 
	C312.407501,351.283173 322.191559,351.039703 331.952820,350.869415 
	C333.254852,350.846680 334.531342,349.357910 335.819641,348.548096 
	C335.013062,347.422943 334.406128,346.040558 333.357788,345.226959 
	C331.270813,343.607239 329.005066,342.187317 326.701019,340.882996 
	C314.291779,333.858154 301.874146,326.847076 289.398376,319.941559 
	C286.205261,318.174133 285.483368,315.720734 286.355896,312.438416 
	C288.190247,305.537964 289.883545,298.597748 291.841919,291.732941 
	C295.135040,280.189362 296.379059,280.224884 281.846375,276.927490 
	C281.688110,276.891602 281.514709,276.922272 281.165405,276.203369 
	C279.263824,274.803955 277.556946,272.807861 275.425659,272.112366 
	C267.759064,269.610382 259.949188,267.547394 252.172791,265.312622 
	C252.172791,264.564880 252.115082,264.070923 252.181091,263.594147 
	C254.755554,244.997986 257.328766,226.401627 259.935913,207.810028 
	C260.472778,203.981598 259.119568,201.554474 255.418243,200.021637 
	C249.748566,197.673615 244.361862,194.620941 238.642746,192.418655 
	C229.680267,188.967453 220.540695,185.976151 211.282135,182.721893 
	C213.788712,175.238785 216.511826,168.097000 218.571579,160.768784 
	C224.053375,141.265625 229.263992,121.686073 234.547058,102.127342 
	C235.638138,98.087990 235.036484,94.798401 231.022827,92.298111 
	C223.688629,87.729263 216.785568,82.454597 209.369675,78.032845 
	C171.948990,55.720638 131.545715,40.160244 90.548920,25.979269 
	C75.194572,20.668131 59.863228,15.288695 44.467110,10.101513 
	C41.305107,9.036186 38.720486,9.925021 37.396488,13.592820 
	C27.165586,41.935001 17.873098,70.533585 13.938625,100.556564 
	C12.751060,109.618568 12.431112,118.796219 11.182704,127.847656 
	C10.225826,134.785370 10.200603,135.480591 17.108665,136.988571 
	C50.567863,144.292435 84.033615,151.568085 117.538391,158.658371 
	C120.722733,159.332230 121.962921,160.332199 122.180901,163.661499 
	C123.376770,181.927063 124.867722,200.173035 126.151932,218.433167 
	C126.706123,226.313339 128.157639,228.044495 135.926407,229.633484 
	C152.858810,233.096756 169.794937,236.545700 186.694061,240.166077 
	C194.768295,241.895859 202.761642,244.003265 210.820068,245.946487 
	C210.671890,246.945587 210.601303,247.415878 210.532501,247.886429 
	C208.634949,260.861877 206.678665,273.829132 204.871750,286.817200 
	C204.229523,291.433533 206.282364,294.135010 210.923828,295.596436 
	C215.788391,297.128113 220.268753,299.855042 225.106171,301.505188 
	C229.546829,303.019989 234.239304,303.796570 239.650848,304.912933 
z"/>
<path fill="#FDC002" opacity="1.000000" stroke="none" 
	d="
M238.820847,304.898376 
	C234.239304,303.796570 229.546829,303.019989 225.106171,301.505188 
	C220.268753,299.855042 215.788391,297.128113 210.923828,295.596436 
	C206.282364,294.135010 204.229523,291.433533 204.871750,286.817200 
	C206.678665,273.829132 208.634949,260.861877 210.532501,247.886429 
	C210.601303,247.415878 210.671890,246.945587 210.820068,245.946487 
	C202.761642,244.003265 194.768295,241.895859 186.694061,240.166077 
	C169.794937,236.545700 152.858810,233.096756 135.926407,229.633484 
	C128.157639,228.044495 126.706123,226.313339 126.151932,218.433167 
	C124.867722,200.173035 123.376770,181.927063 122.180901,163.661499 
	C121.962921,160.332199 120.722733,159.332230 117.538391,158.658371 
	C84.033615,151.568085 50.567863,144.292435 17.108665,136.988571 
	C10.200603,135.480591 10.225826,134.785370 11.182704,127.847656 
	C12.431112,118.796219 12.751060,109.618568 13.938625,100.556564 
	C17.873098,70.533585 27.165586,41.935001 37.396488,13.592820 
	C38.720486,9.925021 41.305107,9.036186 44.467110,10.101513 
	C59.863228,15.288695 75.194572,20.668131 90.548920,25.979269 
	C131.545715,40.160244 171.948990,55.720638 209.369675,78.032845 
	C216.785568,82.454597 223.688629,87.729263 231.022827,92.298111 
	C235.036484,94.798401 235.638138,98.087990 234.547058,102.127342 
	C229.263992,121.686073 224.053375,141.265625 218.571579,160.768784 
	C216.511826,168.097000 213.788712,175.238785 211.282135,182.721893 
	C220.540695,185.976151 229.680267,188.967453 238.642746,192.418655 
	C244.361862,194.620941 249.748566,197.673615 255.418243,200.021637 
	C259.119568,201.554474 260.472778,203.981598 259.935913,207.810028 
	C257.328766,226.401627 254.755554,244.997986 252.181091,263.594147 
	C252.115082,264.070923 252.172791,264.564880 252.172791,265.312622 
	C259.949188,267.547394 267.759064,269.610382 275.425659,272.112366 
	C277.556946,272.807861 279.263824,274.803955 281.108124,276.984924 
	C280.656036,281.387177 280.377228,285.026672 279.796173,288.617218 
	C279.620514,289.702515 278.421539,291.599823 278.006165,291.518402 
	C273.543274,290.643951 269.081787,289.640778 264.751984,288.258972 
	C262.527954,287.549164 260.569794,286.006317 258.491486,284.839905 
	C258.102203,285.119476 257.712891,285.399078 257.323578,285.678650 
	C258.321625,288.548889 259.364441,291.404663 260.297363,294.295929 
	C260.715759,295.592621 260.914062,296.960358 261.212219,298.295837 
	C259.735962,298.016266 258.119110,298.031281 256.807922,297.405731 
	C251.337845,294.795929 245.959671,291.993530 238.820847,288.390076 
	C238.820847,294.816925 238.820847,299.857635 238.820847,304.898376 
z"/>
<path fill="#322300" opacity="1.000000" stroke="none" 
	d="
M239.235840,304.905640 
	C238.820847,299.857635 238.820847,294.816925 238.820847,288.390076 
	C245.959671,291.993530 251.337845,294.795929 256.807922,297.405731 
	C258.119110,298.031281 259.735962,298.016266 261.212219,298.295837 
	C260.914062,296.960358 260.715759,295.592621 260.297363,294.295929 
	C259.364441,291.404663 258.321625,288.548889 257.323578,285.678650 
	C257.712891,285.399078 258.102203,285.119476 258.491486,284.839905 
	C260.569794,286.006317 262.527954,287.549164 264.751984,288.258972 
	C269.081787,289.640778 273.543274,290.643951 278.006165,291.518402 
	C278.421539,291.599823 279.620514,289.702515 279.796173,288.617218 
	C280.377228,285.026672 280.656036,281.387177 281.199615,277.344177 
	C281.514709,276.922272 281.688110,276.891602 281.846375,276.927490 
	C296.379059,280.224884 295.135040,280.189362 291.841919,291.732941 
	C289.883545,298.597748 288.190247,305.537964 286.355896,312.438416 
	C285.483368,315.720734 286.205261,318.174133 289.398376,319.941559 
	C301.874146,326.847076 314.291779,333.858154 326.701019,340.882996 
	C329.005066,342.187317 331.270813,343.607239 333.357788,345.226959 
	C334.406128,346.040558 335.013062,347.422943 335.819641,348.548096 
	C334.531342,349.357910 333.254852,350.846680 331.952820,350.869415 
	C322.191559,351.039703 312.407501,351.283173 302.664673,350.806854 
	C288.175201,350.098419 274.146667,346.750610 260.475616,341.951202 
	C253.471207,339.492218 253.483337,339.113708 254.488953,331.876465 
	C255.286514,326.136505 255.868347,320.319366 255.846161,314.539215 
	C255.838760,312.614319 254.098709,309.765106 252.389221,308.964539 
	C248.388153,307.090729 243.926178,306.201080 239.235840,304.905640 
z"/>
</svg>